<svg width="61" height="61" viewBox="0 0 61 61" fill="none" xmlns="http://www.w3.org/2000/svg">
    <path
        d="M44.7237 28.625H9.875C9.37772 28.625 8.90081 28.8226 8.54918 29.1742C8.19754 29.5259 8 30.0028 8 30.5C8 30.9973 8.19754 31.4742 8.54918 31.8259C8.90081 32.1775 9.37772 32.375 9.875 32.375H44.7237L31.0475 46.0475C30.6954 46.3996 30.4976 46.8771 30.4976 47.375C30.4976 47.873 30.6954 48.3505 31.0475 48.7025C31.3996 49.0546 31.8771 49.2524 32.375 49.2524C32.8729 49.2524 33.3504 49.0546 33.7025 48.7025L50.5775 31.8275C50.7521 31.6534 50.8906 31.4465 50.9852 31.2187C51.0797 30.9909 51.1283 30.7467 51.1283 30.5C51.1283 30.2534 51.0797 30.0092 50.9852 29.7814C50.8906 29.5536 50.7521 29.3467 50.5775 29.1725L33.7025 12.2975C33.3504 11.9455 32.8729 11.7477 32.375 11.7477C31.8771 11.7477 31.3996 11.9455 31.0475 12.2975C30.6954 12.6496 30.4976 13.1271 30.4976 13.625C30.4976 14.123 30.6954 14.6005 31.0475 14.9525L44.7237 28.625Z"
        fill="#359976" />
</svg> 