<svg width="157" height="119" viewBox="0 0 157 119" fill="none" xmlns="http://www.w3.org/2000/svg">
    <path
        d="M13.4644 41.9118C13.4644 45.6305 10.4508 48.644 6.73218 48.644C3.01353 48.644 0 45.6305 0 41.9118C0 38.1932 3.01353 35.1796 6.73218 35.1796C10.4508 35.1796 13.4644 38.1932 13.4644 41.9118Z"
        fill="#22604B" />
    <path
        d="M42.3613 41.9118C42.3613 45.6305 39.3478 48.644 35.6292 48.644C31.9105 48.644 28.897 45.6305 28.897 41.9118C28.897 38.1932 31.9105 35.1796 35.6292 35.1796C39.3462 35.1796 42.3613 38.1932 42.3613 41.9118Z"
        fill="#ECF8F4" />
    <path
        d="M71.2573 41.9118C71.2573 45.6305 68.2438 48.644 64.5251 48.644C60.8065 48.644 57.793 45.6305 57.793 41.9118C57.793 38.1932 60.8065 35.1796 64.5251 35.1796C68.2438 35.1796 71.2573 38.1932 71.2573 41.9118Z"
        fill="#22604B" />
    <path
        d="M42.3613 6.73218C42.3613 10.4492 39.3478 13.4643 35.6292 13.4643C31.9105 13.4643 28.897 10.4508 28.897 6.73218C28.897 3.01353 31.9105 0 35.6292 0C39.3462 0 42.3613 3.01512 42.3613 6.73218Z"
        fill="#22604B" />
    <path
        d="M71.2573 6.73218C71.2573 10.4492 68.2438 13.4643 64.5251 13.4643C60.8065 13.4643 57.793 10.4508 57.793 6.73218C57.793 3.01353 60.8065 0 64.5251 0C68.2438 0 71.2573 3.01512 71.2573 6.73218Z"
        fill="#22604B" />
    <path
        d="M100.154 41.9118C100.154 45.6305 97.1408 48.644 93.4221 48.644C89.7035 48.644 86.6899 45.6305 86.6899 41.9118C86.6899 38.1932 89.7035 35.1796 93.4221 35.1796C97.1392 35.1796 100.154 38.1932 100.154 41.9118Z"
        fill="#22604B" />
    <path
        d="M129.051 41.9118C129.051 45.6305 126.037 48.644 122.319 48.644C118.6 48.644 115.586 45.6305 115.586 41.9118C115.586 38.1932 118.6 35.1796 122.319 35.1796C126.037 35.1796 129.051 38.1932 129.051 41.9118Z"
        fill="#ECF8F4" />
    <path
        d="M156.69 41.9118C156.69 45.6305 153.677 48.644 149.958 48.644C146.24 48.644 143.226 45.6305 143.226 41.9118C143.226 38.1932 146.24 35.1796 149.958 35.1796C153.677 35.1796 156.69 38.1932 156.69 41.9118Z"
        fill="#22604B" />
    <path
        d="M42.3613 77.0898C42.3613 80.8085 39.3478 83.822 35.6292 83.822C31.9105 83.822 28.897 80.8085 28.897 77.0898C28.897 73.3712 31.9105 70.3577 35.6292 70.3577C39.3462 70.3577 42.3613 73.3712 42.3613 77.0898Z"
        fill="#22604B" />
    <path
        d="M42.3613 112.268C42.3613 115.986 39.3478 119 35.6292 119C31.9105 119 28.897 115.986 28.897 112.268C28.897 108.549 31.9105 105.536 35.6292 105.536C39.3462 105.536 42.3613 108.551 42.3613 112.268Z"
        fill="#ECF8F4" />
    <path
        d="M64.5251 83.822C68.2432 83.822 71.2573 80.8079 71.2573 77.0898C71.2573 73.3718 68.2432 70.3577 64.5251 70.3577C60.8071 70.3577 57.793 73.3718 57.793 77.0898C57.793 80.8079 60.8071 83.822 64.5251 83.822Z"
        fill="#ECF8F4" />
    <path
        d="M100.154 77.0898C100.154 80.8085 97.1408 83.822 93.4221 83.822C89.7035 83.822 86.6899 80.8085 86.6899 77.0898C86.6899 73.3712 89.7035 70.3577 93.4221 70.3577C97.1392 70.3577 100.154 73.3712 100.154 77.0898Z"
        fill="#22604B" />
</svg>