<svg width="124" height="80" viewBox="0 0 124 80" fill="none" xmlns="http://www.w3.org/2000/svg">
    <path d="M110.315 39.9991C110.315 36.4516 113.192 33.5739 116.741 33.5739C120.29 33.5739 123.166 36.45 123.166 39.9991C123.166 43.5482 120.29 46.4243 116.741 46.4243C113.192 46.4243 110.315 43.5482 110.315 39.9991Z" fill="#22604B"/>
    <path d="M82.7373 39.9991C82.7373 36.4516 85.6135 33.5739 89.1626 33.5739C92.7117 33.5739 95.5877 36.45 95.5877 39.9991C95.5877 43.5482 92.7117 46.4243 89.1626 46.4243C85.6135 46.4243 82.7373 43.5482 82.7373 39.9991Z" fill="#ECF8F4"/>
    <path d="M55.1572 39.9991C55.1572 36.4516 58.0333 33.5739 61.5824 33.5739C65.1315 33.5739 68.0077 36.45 68.0077 39.9991C68.0077 43.5482 65.1315 46.4243 61.5824 46.4243C58.0333 46.4243 55.1572 43.5482 55.1572 39.9991Z" fill="#22604B"/>
    <path d="M82.7373 73.5749C82.7373 70.0258 85.6135 67.1497 89.1626 67.1497C92.7117 67.1497 95.5877 70.0258 95.5877 73.5749C95.5877 77.1224 92.7117 80.0001 89.1626 80.0001C85.6135 80.0001 82.7373 77.1224 82.7373 73.5749Z" fill="#ECF8F4"/>
    <path d="M55.1572 73.5749C55.1572 70.0258 58.0333 67.1497 61.5824 67.1497C65.1315 67.1497 68.0077 70.0258 68.0077 73.5749C68.0077 77.1224 65.1315 80.0001 61.5824 80.0001C58.0333 79.9986 55.1572 77.1224 55.1572 73.5749Z" fill="#22604B"/>
    <path d="M27.5801 39.9991C27.5801 36.4516 30.4562 33.5739 34.0053 33.5739C37.5544 33.5739 40.4305 36.45 40.4305 39.9991C40.4305 43.5482 37.5544 46.4243 34.0053 46.4243C30.4562 46.4243 27.5801 43.5482 27.5801 39.9991Z" fill="#ECF8F4"/>
    <path d="M0 39.9991C0 36.4516 2.87607 33.5739 6.42517 33.5739C9.97426 33.5739 12.8503 36.45 12.8503 39.9991C12.8503 43.5482 9.97426 46.4243 6.42517 46.4243C2.87607 46.4243 0 43.5482 0 39.9991Z" fill="#22604B"/>
    <path d="M82.7373 6.42521C82.7373 2.87764 85.6135 0 89.1626 0C92.7117 0 95.5877 2.87612 95.5877 6.42521C95.5877 9.9743 92.7117 12.8504 89.1626 12.8504C85.6135 12.8504 82.7373 9.97278 82.7373 6.42521Z" fill="#22604B"/>
  </svg>