<svg width="16" height="17" viewBox="0 0 16 17" fill="none" xmlns="http://www.w3.org/2000/svg">
<path d="M14.6659 5.83334C14.6659 5.71236 14.633 5.59365 14.5705 5.49001L12.7645 2.48001C12.6455 2.28324 12.4779 2.12039 12.2778 2.00714C12.0777 1.89388 11.8518 1.83403 11.6219 1.83334H4.37652C3.91119 1.83334 3.47319 2.08134 3.23385 2.48068L1.42785 5.49001C1.36542 5.59365 1.33246 5.71236 1.33252 5.83334C1.33252 6.50334 1.58985 7.10934 1.99919 7.57868V13.8333C1.99919 14.0102 2.06942 14.1797 2.19445 14.3047C2.31947 14.4298 2.48904 14.5 2.66585 14.5H7.99919C8.176 14.5 8.34557 14.4298 8.47059 14.3047C8.59562 14.1797 8.66585 14.0102 8.66585 13.8333V10.5H11.3325V13.8333C11.3325 14.0102 11.4028 14.1797 11.5278 14.3047C11.6528 14.4298 11.8224 14.5 11.9992 14.5H13.3325C13.5093 14.5 13.6789 14.4298 13.8039 14.3047C13.9289 14.1797 13.9992 14.0102 13.9992 13.8333V7.57868C14.4085 7.10934 14.6659 6.50334 14.6659 5.83334ZM13.3219 6.00068C13.2808 6.32262 13.1239 6.61858 12.8805 6.83319C12.637 7.04781 12.3237 7.16636 11.9992 7.16668C11.2639 7.16668 10.6659 6.56868 10.6659 5.83334C10.6659 5.78801 10.6492 5.74801 10.6399 5.70534L10.6532 5.70268L10.1459 3.16668H11.6219L13.3219 6.00068ZM6.67052 5.87668L7.21185 3.16668H8.78585L9.32785 5.87668C9.30452 6.59201 8.71919 7.16668 7.99919 7.16668C7.27919 7.16668 6.69385 6.59201 6.67052 5.87668ZM4.37652 3.16668H5.85252L5.34585 5.70268L5.35919 5.70534C5.34919 5.74801 5.33252 5.78801 5.33252 5.83334C5.33252 6.56868 4.73452 7.16668 3.99919 7.16668C3.67465 7.16636 3.36134 7.04781 3.11789 6.83319C2.87444 6.61858 2.71753 6.32262 2.67652 6.00068L4.37652 3.16668ZM6.66585 11.1667H3.99919V9.16668H6.66585V11.1667Z" fill="#666C73"/>
</svg>
