<svg width="64" height="64" viewBox="0 0 64 64" fill="none" xmlns="http://www.w3.org/2000/svg">
<path d="M20.3732 27.68C20.3732 28.3467 20.4266 28.88 20.5599 29.3334C20.6932 29.6534 20.8799 30.08 21.1199 30.56C21.2266 30.6667 21.2532 30.8267 21.2532 30.96C21.2532 31.1467 21.1466 31.3067 20.9066 31.4934L19.7866 32.24C19.6266 32.3467 19.4666 32.4 19.3332 32.4C19.1466 32.4 18.9866 32.2934 18.7999 32.1334C18.5599 31.8667 18.3466 31.6 18.1599 31.3067C17.9999 31.0134 17.8132 30.6667 17.6266 30.2667C16.2399 31.8934 14.5066 32.72 12.3999 32.72C10.9066 32.72 9.73325 32.2934 8.85325 31.44C7.99991 30.5867 7.54658 29.44 7.54658 28C7.54658 26.5334 8.07991 25.3334 9.14658 24.3734C10.2399 23.4667 11.6799 22.9867 13.4932 22.9867C14.1066 22.9867 14.6666 23.04 15.3866 23.1467C15.9999 23.2267 16.7199 23.36 17.4132 23.52V22.24C17.4132 20.88 17.1466 20 16.5866 19.3867C15.9999 18.8267 15.0666 18.5867 13.7066 18.5867C13.0666 18.5867 12.4266 18.6667 11.7866 18.8C11.1199 18.96 10.4799 19.1467 9.86658 19.4134C9.57325 19.52 9.33325 19.6 9.25325 19.6267C9.11991 19.68 9.03991 19.68 8.95991 19.68C8.71991 19.68 8.58658 19.52 8.58658 19.1467V18.2667C8.58658 18 8.61325 17.7867 8.71991 17.6534C8.79991 17.52 8.95991 17.4134 9.19991 17.3334C9.83991 16.96 10.5599 16.6934 11.4399 16.48C12.3452 16.2433 13.2776 16.1268 14.2132 16.1334C16.3199 16.1334 17.8666 16.6134 18.8532 17.5734C19.8399 18.5334 20.3199 20 20.3199 21.9467V27.68H20.3732ZM13.1732 30.4C13.7599 30.4 14.3466 30.2934 14.9866 30.08C15.6266 29.8667 16.1866 29.4667 16.6666 28.9334C16.9599 28.5867 17.1732 28.2134 17.3332 27.7867C17.3332 27.36 17.4666 26.8534 17.4666 26.24V25.52C16.9332 25.3334 16.3999 25.3334 15.8132 25.2C15.264 25.14 14.7123 25.1044 14.1599 25.0934C12.9599 25.0934 12.1066 25.3334 11.5199 25.8134C10.9332 26.2934 10.6666 26.96 10.6666 27.84C10.6666 28.6934 10.8532 29.3334 11.3066 29.7334C11.7332 30.1867 12.3466 30.4 13.1732 30.4ZM27.4132 32.2934C27.1551 32.3011 26.8989 32.2462 26.6666 32.1334C26.5866 32 26.4532 31.76 26.3466 31.44L22.1866 17.7334C22.0799 17.3334 22.0266 17.1467 22.0266 17.0134C22.0266 16.72 22.1599 16.56 22.4532 16.56H24.1866C24.5332 16.56 24.7732 16.6134 24.8799 16.7467C25.0399 16.8534 25.1466 17.0934 25.2532 17.44L28.2132 29.1734L30.9866 17.44C31.0666 17.0934 31.1732 16.8534 31.3332 16.7467C31.4666 16.64 31.7066 16.56 31.9999 16.56H33.4666C33.7866 16.56 34.0266 16.6134 34.1599 16.7467C34.2932 16.8534 34.4266 17.0934 34.5066 17.44L37.3332 29.3334L40.3732 17.44C40.4799 17.0934 40.6133 16.8534 40.7199 16.7467C40.8799 16.64 41.0932 16.56 41.4132 16.56H43.0666C43.3599 16.56 43.5199 16.72 43.5199 17.0134C43.5199 17.0934 43.4932 17.2 43.4666 17.3334C43.4666 17.3334 43.4132 17.5467 43.3599 17.7334L39.0666 31.44C38.9599 31.8134 38.8532 32 38.6666 32.1334C38.5599 32.24 38.3199 32.32 38.0266 32.32H36.5066C36.1599 32.32 35.9999 32.2667 35.7866 32.1334C35.6073 31.9433 35.4949 31.6998 35.4666 31.44L32.7199 20L29.9732 31.4134C29.8932 31.76 29.7866 32 29.6532 32.1334C29.4331 32.2533 29.1835 32.3088 28.9332 32.2934H27.4132ZM50.2132 32.7734C49.3332 32.7734 48.3466 32.6667 47.4666 32.4534C46.5866 32.24 45.8932 32 45.4399 31.76C45.2083 31.6486 45.0139 31.4727 44.8799 31.2534C44.8075 31.1038 44.7709 30.9395 44.7733 30.7734V29.8667C44.7733 29.4934 44.9066 29.3334 45.1732 29.3334H45.4932C45.5999 29.3334 45.7599 29.4667 45.9466 29.5467C46.5332 29.8134 47.1999 30.0267 47.8932 30.16C48.6132 30.2934 49.3332 30.3734 49.9999 30.3734C51.1199 30.3734 51.9999 30.1867 52.5866 29.7867C53.1999 29.3334 53.5199 28.8267 53.5199 28.1067C53.5199 27.6 53.3332 27.2 53.0399 26.8534C52.7199 26.5334 52.1066 26.2134 51.2532 25.9467L48.6666 25.1467C47.3866 24.72 46.4266 24.1334 45.8399 23.3334C45.2674 22.5928 44.9578 21.6827 44.9599 20.7467C44.9599 20 45.1199 19.36 45.4399 18.8C45.7599 18.2134 46.1866 17.7334 46.6666 17.3334C47.2532 16.9334 47.8399 16.64 48.5599 16.4267C49.2532 16.2134 49.9999 16.1067 50.7999 16.1067C51.1732 16.1067 51.5732 16.1334 51.9999 16.1867C52.3732 16.24 52.7466 16.32 53.1199 16.3734C53.4932 16.48 53.8132 16.56 54.1332 16.6667C54.4532 16.7734 54.6666 16.88 54.8799 16.9867C55.1199 17.12 55.3066 17.2534 55.4132 17.4134C55.5199 17.5734 55.5732 17.76 55.5732 18V18.8534C55.5732 19.2267 55.4399 19.4134 55.1732 19.4134C55.0399 19.4134 54.7999 19.3334 54.4799 19.2C53.4932 18.7467 52.3466 18.5067 51.0932 18.5067C50.0799 18.5067 49.3332 18.6667 48.7199 19.0134C48.1866 19.3334 47.8932 19.8667 47.8932 20.5867C47.8932 21.0934 48.0799 21.52 48.4266 21.84C48.7732 22.1867 49.4399 22.5067 50.3732 22.8267L52.9066 23.6267C54.1866 24 55.0933 24.5867 55.6533 25.3334C56.1866 26.0534 56.4532 26.88 56.4532 27.8134C56.4532 28.56 56.2932 29.2534 55.9999 29.8667C55.6799 30.4534 55.2533 30.9867 54.6666 31.4134C54.1599 31.8667 53.4933 32.1867 52.7466 32.4267C51.9999 32.6667 51.0932 32.7734 50.2132 32.7734ZM53.5466 41.4134C47.7066 45.7067 39.2266 48 31.9999 48C21.7332 48 12.5332 44.2134 5.57325 37.9467C5.01325 37.44 5.51991 36.7734 6.18658 37.1734C13.7066 41.52 22.9599 44.16 32.5599 44.16C39.0399 44.16 46.1599 42.8267 52.6932 40C53.6799 39.6 54.5066 40.6934 53.5466 41.4134ZM55.9999 38.6667C55.2266 37.68 51.0399 38.1867 49.1466 38.4C48.5866 38.48 48.5066 37.9734 49.0132 37.6C52.3466 35.28 57.8399 36 58.4532 36.72C59.0933 37.52 58.2933 43.0134 55.1732 45.6267C54.6666 46.0267 54.2132 45.8134 54.4266 45.3334C55.1466 43.52 56.7199 39.5734 55.9999 38.6667Z" fill="#666C73"/>
</svg>
