<svg width="48" height="16" viewBox="0 0 48 16" fill="none" xmlns="http://www.w3.org/2000/svg">
<path d="M20 16C19.2444 16 18.6116 15.744 18.1013 15.232C17.5911 14.72 17.3351 14.0871 17.3333 13.3333V10.6667H21.3333V12H26.6667V9.33333H20C19.2444 9.33333 18.6116 9.07733 18.1013 8.56533C17.5911 8.05333 17.3351 7.42044 17.3333 6.66667V2.66667C17.3333 1.91111 17.5893 1.27822 18.1013 0.768C18.6133 0.257778 19.2462 0.00177778 20 0H28C28.7556 0 29.3893 0.256 29.9013 0.768C30.4133 1.28 30.6684 1.91289 30.6667 2.66667V5.33333H26.6667V4H21.3333V6.66667H28C28.7556 6.66667 29.3893 6.92267 29.9013 7.43467C30.4133 7.94667 30.6684 8.57956 30.6667 9.33333V13.3333C30.6667 14.0889 30.4107 14.7227 29.8987 15.2347C29.3867 15.7467 28.7538 16.0018 28 16H20ZM37.3333 16C36.5778 16 35.9449 15.744 35.4347 15.232C34.9244 14.72 34.6684 14.0871 34.6667 13.3333V10.6667H38.6667V12H44V9.33333H37.3333C36.5778 9.33333 35.9449 9.07733 35.4347 8.56533C34.9244 8.05333 34.6684 7.42044 34.6667 6.66667V2.66667C34.6667 1.91111 34.9227 1.27822 35.4347 0.768C35.9467 0.257778 36.5796 0.00177778 37.3333 0H45.3333C46.0889 0 46.7227 0.256 47.2347 0.768C47.7467 1.28 48.0018 1.91289 48 2.66667V5.33333H44V4H38.6667V6.66667H45.3333C46.0889 6.66667 46.7227 6.92267 47.2347 7.43467C47.7467 7.94667 48.0018 8.57956 48 9.33333V13.3333C48 14.0889 47.744 14.7227 47.232 15.2347C46.72 15.7467 46.0871 16.0018 45.3333 16H37.3333ZM2.66667 16C1.91111 16 1.27822 15.744 0.768 15.232C0.257778 14.72 0.00177778 14.0871 0 13.3333V2.66667C0 1.91111 0.256 1.27822 0.768 0.768C1.28 0.257778 1.91289 0.00177778 2.66667 0H10.6667C11.4222 0 12.056 0.256 12.568 0.768C13.08 1.28 13.3351 1.91289 13.3333 2.66667V5.33333H9.33333V4H4V12H9.33333V10.6667H13.3333V13.3333C13.3333 14.0889 13.0773 14.7227 12.5653 15.2347C12.0533 15.7467 11.4204 16.0018 10.6667 16H2.66667Z" fill="#666C73"/>
</svg>
