<svg width="64" height="64" viewBox="0 0 64 64" fill="none" xmlns="http://www.w3.org/2000/svg">
<path fill-rule="evenodd" clip-rule="evenodd" d="M23.1121 25.112C22.2075 25.112 21.3119 25.2901 20.4762 25.6363C19.6405 25.9825 18.8811 26.4898 18.2415 27.1294C17.6019 27.769 17.0946 28.5284 16.7484 29.3641C16.4022 30.1997 16.2241 31.0954 16.2241 32C16.2241 32.9045 16.4022 33.8002 16.7484 34.6359C17.0946 35.4716 17.6019 36.2309 18.2415 36.8705C18.8811 37.5101 19.6405 38.0175 20.4762 38.3637C21.3119 38.7098 22.2075 38.888 23.1121 38.888H30.0001V32.1386C29.999 32.0462 29.999 31.9538 30.0001 31.8613V25.112H23.1121ZM30.0001 21.112H23.1121C21.2849 21.112 19.5326 20.3861 18.2406 19.0941C16.9486 17.8021 16.2228 16.0498 16.2228 14.2226C16.2228 12.3955 16.9486 10.6432 18.2406 9.35115C19.5326 8.05915 21.2849 7.33331 23.1121 7.33331H30.0001V21.112ZM34.0001 7.33331V21.112H40.8881C42.6918 21.0765 44.4096 20.3351 45.6727 19.0469C46.9357 17.7588 47.6432 16.0267 47.6432 14.2226C47.6432 12.4186 46.9357 10.6865 45.6727 9.39837C44.4096 8.11023 42.6918 7.3688 40.8881 7.33331H34.0001ZM40.8881 25.1093C39.0801 25.1091 37.3444 25.8198 36.0558 27.088C34.7671 28.3562 34.0288 30.0802 34.0001 31.888V32.1093C34.0222 33.4666 34.4448 34.7872 35.215 35.9051C35.9851 37.023 37.0684 37.8884 38.3288 38.3926C39.5892 38.8968 40.9705 39.0173 42.2992 38.739C43.6279 38.4607 44.8447 37.796 45.7968 36.8284C46.749 35.8608 47.394 34.6334 47.6508 33.3004C47.9076 31.9674 47.7648 30.5883 47.2403 29.3362C46.7159 28.0841 45.8331 27.0149 44.703 26.2628C43.5728 25.5108 42.2456 25.1095 40.8881 25.1093ZM23.1121 42.888C21.7491 42.8875 20.4166 43.2911 19.2831 44.048C18.1496 44.8048 17.266 45.8808 16.744 47.1399C16.2221 48.3989 16.0853 49.7845 16.3508 51.1213C16.6164 52.4581 17.2725 53.6862 18.236 54.6501C19.1996 55.6141 20.4274 56.2706 21.7641 56.5367C23.1009 56.8028 24.4865 56.6665 25.7457 56.145C27.005 55.6236 28.0813 54.7404 28.8386 53.6072C29.5959 52.474 30.0001 51.1416 30.0001 49.7786V42.888H23.1121Z" fill="#666C73"/>
</svg>
