<svg width="64" height="64" viewBox="0 0 64 64" fill="none" xmlns="http://www.w3.org/2000/svg">
<path d="M0 40V24H4V29.3333H9.33333V24H13.3333V40H9.33333V33.3333H4V40H0ZM20.6667 40V28H16V24H29.3333V28H24.6667V40H20.6667ZM32 40V26.6667C32 25.9111 32.256 25.2782 32.768 24.768C33.28 24.2578 33.9129 24.0018 34.6667 24H46.6667C47.4222 24 48.056 24.256 48.568 24.768C49.08 25.28 49.3351 25.9129 49.3333 26.6667V40H45.3333V28H42.6667V37.3333H38.6667V28H36V40H32ZM53.3333 40V24H57.3333V36H64V40H53.3333Z" fill="#666C73"/>
</svg>
