<svg width="64" height="64" viewBox="0 0 64 64" fill="none" xmlns="http://www.w3.org/2000/svg">
<path d="M62 22V42H58L54 30V42H50V22H54L58 34V22H62ZM42.668 42H37.334C36.4506 41.9984 35.6038 41.6469 34.979 41.0224C34.3541 40.398 34.0021 39.5514 34 38.668V25.334C34.0016 24.4506 34.3531 23.6038 34.9776 22.979C35.602 22.3541 36.4486 22.0021 37.332 22H42.666C43.5494 22.0016 44.3962 22.3531 45.021 22.9775C45.6459 23.602 45.9979 24.4486 46 25.332V38.666C45.9984 39.5494 45.6469 40.3962 45.0224 41.021C44.398 41.6459 43.5514 41.9979 42.668 42ZM38 38H42V26H38V38ZM26.668 42H18V38H26V34H22C20.9391 34 19.9217 33.5786 19.1716 32.8284C18.4214 32.0783 18 31.0609 18 30V25.332C18.0021 24.4489 18.3538 23.6027 18.9783 22.9783C19.6027 22.3538 20.4489 22.0021 21.332 22H30V26H22V30H26C27.0609 30 28.0783 30.4214 28.8284 31.1716C29.5786 31.9217 30 32.9391 30 34V38.668C29.9979 39.5511 29.6462 40.3973 29.0217 41.0217C28.3973 41.6462 27.5511 41.9979 26.668 42ZM10.668 42H5.334C4.4506 41.9984 3.60381 41.6469 2.97896 41.0224C2.35412 40.398 2.00211 39.5514 2 38.668V34H6V38H10V22H14V38.668C13.9979 39.5511 13.6462 40.3973 13.0217 41.0217C12.3973 41.6462 11.5511 41.9979 10.668 42Z" fill="#666C73"/>
</svg>
