<svg width="64" height="64" viewBox="0 0 64 64" fill="none" xmlns="http://www.w3.org/2000/svg">
<path fill-rule="evenodd" clip-rule="evenodd" d="M41.4015 17.115C40.0995 13.061 38.011 9.473 35.068 6.3855C34.324 5.6045 33.497 4.889 32.978 3.9175C32.65 3.3025 32.3375 2.679 32.018 2.06L31.815 1.5495L31.7585 1.7505C31.732 2.7605 31.16 3.445 30.448 4.0845C29.646 4.8035 28.9 5.5845 28.13 6.339L25.762 9.4535L23.8475 12.9745L22.567 16.432L22.5285 16.4855C21.824 18.8 21.4765 21.18 21.306 23.583C21.2415 24.4865 21.3155 25.4025 21.366 26.3105C21.4385 27.6085 21.664 28.884 22.002 30.1405C23.2305 34.7035 25.724 38.488 29.1335 41.704C29.7665 42.3015 30.451 42.845 31.1115 43.413L31.404 44.417L31.676 45.975L31.806 47.6015C31.8045 47.9315 31.791 48.263 31.8105 48.592C31.816 48.6765 31.926 48.7545 31.988 48.8355L32.54 49.0295L33.1145 49.253L33.016 47.8075L33.0115 46.3835L33.21 44.2145L33.354 43.7425L33.7665 43.012C34.2755 42.603 34.821 42.231 35.2845 41.7755C36.123 40.952 36.96 40.117 37.7105 39.2145C38.6869 38.0447 39.5209 36.763 40.195 35.3965C40.6445 34.48 41.0685 33.545 41.419 32.5875C41.728 31.7435 41.9195 30.856 42.163 29.9875L42.227 29.8C42.7295 27.456 42.814 25.088 42.6295 22.705C42.481 20.7845 42.0295 18.931 41.4015 17.115ZM31.4515 42.2525C31.5285 41.867 31.624 41.4835 31.6935 41.0965C31.624 41.4835 31.529 41.867 31.4515 42.2525ZM53.237 51.482C52.824 50.6905 52.218 50.0895 51.417 49.695C50.746 49.365 50.0245 49.22 49.2825 49.199C48.7265 49.183 48.1685 49.2115 47.6115 49.2185C47.117 49.2245 46.622 49.233 46.1275 49.2285C45.546 49.2225 44.9645 49.205 44.383 49.1885C44.2865 49.1855 44.218 49.205 44.173 49.303C44.1025 49.4555 44.019 49.6025 43.9325 49.7695L44.0295 49.8005C44.318 49.8515 44.608 49.895 44.895 49.9525C45.264 50.026 45.43 50.238 45.447 50.549C45.4713 50.9923 45.4825 51.436 45.4805 51.88C45.473 53.637 45.4605 55.394 45.4475 57.1505C45.4465 57.2665 45.4445 57.3875 45.413 57.4965C45.3765 57.6225 45.337 57.7855 45.243 57.8475C45.0739 57.9562 44.8841 58.0286 44.6855 58.06C44.405 58.106 44.358 58.1185 44.2705 58.3945L44.2325 58.5325C44.1905 58.683 44.213 58.7125 44.37 58.714C45.271 58.724 46.1715 58.7435 47.072 58.7405C47.8935 58.7375 48.715 58.7875 49.5335 58.633C50.307 58.4875 51.029 58.2325 51.688 57.801C52.543 57.2405 53.158 56.4915 53.4825 55.514C53.7445 54.7245 53.803 53.919 53.714 53.0935C53.6588 52.5309 53.4969 51.984 53.237 51.482ZM51.6585 56.3125C51.1765 57.2095 50.4575 57.8085 49.43 57.9665C48.7865 58.065 48.142 58.0365 47.5285 57.793C47.14 57.639 46.9955 57.3035 46.9835 56.907C46.9725 56.5184 46.967 56.1297 46.967 55.741C46.965 54.374 46.965 53.0072 46.967 51.6405C46.968 51.21 46.9755 50.7785 46.9825 50.3475C46.9875 50.0445 47.051 49.943 47.3465 49.9185C48.6445 49.8095 49.883 49.9495 50.9115 50.863C51.5475 51.428 51.9095 52.1485 52.06 52.976C52.1225 53.321 52.1415 53.674 52.1805 54.024C52.149 54.823 52.041 55.6005 51.6585 56.3125ZM62.553 54.832C62.297 54.209 61.812 53.8185 61.2025 53.5685C60.9945 53.483 60.78 53.4125 60.5555 53.3295L60.634 53.2795C60.8765 53.124 61.1465 52.9985 61.3555 52.807C61.8635 52.3415 62.0745 51.756 61.9755 51.0605C61.8815 50.399 61.5515 49.9135 60.962 49.5985C60.427 49.3135 59.85 49.2095 59.253 49.21C58.22 49.211 57.1865 49.2265 56.1535 49.2285C55.7975 49.229 55.4415 49.2025 55.0855 49.1975C55.0165 49.1965 54.914 49.214 54.8845 49.26C54.803 49.385 54.749 49.529 54.691 49.668C54.6575 49.749 54.6905 49.7935 54.783 49.8055C55.0315 49.8395 55.2795 49.882 55.5285 49.919C55.8725 49.9705 56.039 50.1495 56.06 50.496L56.0645 50.7015C56.065 51.779 56.0685 52.8565 56.064 53.934C56.0576 55.01 56.0474 56.086 56.0335 57.162C56.032 57.2975 56.0135 57.4335 55.994 57.568C55.9645 57.771 55.856 57.911 55.648 57.955L55.0595 58.071C54.99 58.085 54.8895 58.083 54.861 58.126C54.753 58.2875 54.666 58.464 54.678 58.677L54.7385 58.6935L56.715 58.742L57.1115 58.7405C57.7955 58.7325 58.4805 58.746 59.1635 58.711C59.903 58.674 60.5975 58.4545 61.2395 58.077C61.923 57.6745 62.449 57.144 62.636 56.346C62.756 55.8365 62.7565 55.324 62.553 54.832ZM57.5315 50.2415C57.5345 50.025 57.63 49.931 57.845 49.9255C58.3745 49.911 58.9005 49.914 59.4115 50.0965C60.0725 50.3325 60.479 50.9025 60.4715 51.599C60.468 51.8665 60.472 52.1315 60.3735 52.3885C60.179 52.8945 59.806 53.1615 59.277 53.2135C59.001 53.2415 58.7225 53.2445 58.4765 53.2575L57.6555 53.2215C57.5465 53.2175 57.499 53.1695 57.4995 53.0575L57.5315 50.2415ZM60.9345 56.9885C60.67 57.564 60.188 57.8665 59.5845 57.9715C59.1035 58.0544 58.6104 58.0327 58.1385 57.908C57.7855 57.8175 57.6415 57.534 57.571 57.2195C57.5235 57.009 57.5315 56.7585 57.5275 56.5395C57.521 56.2015 57.526 55.5 57.526 55.5H57.519C57.519 55 57.5205 54.567 57.5175 54.0875C57.517 53.984 57.5345 53.9325 57.661 53.9365C58.11 53.95 58.5605 53.9575 59.0095 53.975C59.411 53.9905 59.787 54.1095 60.1405 54.3C60.6785 54.59 61.0025 55.034 61.0915 55.644C61.1595 56.1065 61.1305 56.5615 60.9345 56.9885ZM11.641 57.5275L11.6505 54.809C11.652 54.4 11.6 53.999 11.466 53.611C11.0965 52.5425 10.0775 52.056 9.01651 52.4395C8.53401 52.614 8.10151 52.8785 7.68851 53.1785C7.44801 53.3535 7.44801 53.3535 7.27401 53.104C6.78151 52.398 6.07801 52.1565 5.25901 52.417C4.72951 52.585 4.26651 52.8725 3.82801 53.2065C3.78701 53.2375 3.70451 53.272 3.68001 53.2535C3.63901 53.223 3.61051 53.1505 3.61151 53.096L3.64151 52.613C3.64401 52.5115 3.62451 52.4095 3.61451 52.303C3.41651 52.3715 3.25851 52.44 3.09301 52.48C2.58151 52.605 2.06651 52.72 1.55201 52.8375C1.42751 52.866 1.29601 52.9035 1.28401 53.0465C1.27151 53.187 1.40701 53.2105 1.51201 53.2525C1.73301 53.3422 1.95268 53.4353 2.17101 53.532C2.35451 53.613 2.42301 53.7595 2.42201 53.9565C2.41851 54.799 2.42401 55.6405 2.41901 56.483C2.41701 56.8255 2.40101 57.1675 2.38551 57.51C2.37151 57.8135 2.26801 57.9405 1.97401 58.017C1.81801 58.058 1.65951 58.0855 1.50251 58.1225C1.46801 58.1305 1.40901 58.1525 1.40851 58.1695C1.40201 58.318 1.39401 58.47 1.41901 58.6145C1.42401 58.6405 1.58101 58.6405 1.66801 58.6505L1.72651 58.647C2.33251 58.6373 2.93868 58.629 3.54501 58.622C3.86651 58.6185 4.18751 58.6215 4.53651 58.6215L4.57401 58.1365C4.37401 58.1 4.19551 58.0725 4.01951 58.034C3.74501 57.974 3.62801 57.8285 3.62101 57.5515L3.61601 57.155C3.61301 56.1265 3.60901 55.0985 3.60901 54.07C3.60901 53.9205 3.67101 53.802 3.80251 53.7125C4.08101 53.5245 4.37501 53.375 4.70051 53.2915C5.38651 53.116 5.98151 53.36 6.24551 53.9435C6.32901 54.1275 6.39451 54.331 6.41301 54.531C6.51001 55.562 6.46801 56.594 6.40951 57.625C6.39701 57.8475 6.29251 57.9595 6.07301 58.014L5.55701 58.123C5.51551 58.1335 5.45501 58.1055 5.45201 58.14C5.44051 58.2825 5.44701 58.501 5.44701 58.501H5.57001L7.14101 58.5525C7.57151 58.5515 8.00251 58.6035 8.43251 58.6145C8.50951 58.616 8.57801 58.6275 8.58251 58.5385C8.58704 58.4003 8.58521 58.262 8.57701 58.124L8.49501 58.1095L8.05251 58.01C7.75401 57.9395 7.65101 57.826 7.65001 57.524C7.64651 56.7795 7.65651 56.0355 7.65001 55.2915C7.64624 54.866 7.6304 54.4406 7.60251 54.016C7.59501 53.903 7.61251 53.829 7.70251 53.7655C7.96331 53.5747 8.2568 53.4332 8.56851 53.348C9.53601 53.093 10.328 53.6235 10.378 54.621C10.427 55.583 10.4065 56.5485 10.399 57.5125C10.3965 57.848 10.2855 57.9495 9.95501 58.0395L9.84101 58.069C9.50251 58.15 9.50551 58.15 9.52551 58.5095C9.53201 58.622 9.56301 58.651 9.68301 58.648C10.3725 58.6325 11.062 58.6285 11.7515 58.6225C12.0335 58.62 12.3155 58.6225 12.6225 58.6225L12.685 58.1545C12.4155 58.083 12.167 58.03 11.927 57.9515C11.715 57.8795 11.64 57.7515 11.641 57.5275ZM35.3855 53.407C35.6695 53.1435 35.6715 52.7955 35.592 52.409C35.367 52.6445 35.115 52.753 34.8275 52.7735C34.442 52.801 34.0635 52.7675 33.7045 52.614C32.7335 52.197 31.7775 52.2265 30.8245 52.684C30.023 53.068 29.53 53.6665 29.4805 54.574C29.449 55.1555 29.558 55.706 29.946 56.1685C30.1785 56.4455 30.477 56.625 30.8135 56.749C30.9585 56.8025 30.9695 56.8715 30.848 56.964C30.7583 57.0318 30.6653 57.0952 30.5695 57.154C30.3664 57.2817 30.1621 57.4073 29.9565 57.531C29.836 57.604 29.795 57.697 29.8345 57.8395C29.95 58.2585 30.2475 58.5005 30.6195 58.677L30.755 58.7715L30.6365 58.89C30.272 59.1855 29.893 59.4645 29.544 59.778C29.251 60.0415 29.1565 60.3945 29.245 60.784C29.4235 61.5615 29.939 62.0425 30.6705 62.2635C31.949 62.6505 33.1495 62.4285 34.244 61.671C34.893 61.2215 35.3585 60.6365 35.5 59.8315C35.6585 58.927 35.156 58.142 34.2565 57.98C33.6615 57.872 33.0525 57.841 32.4505 57.772C32.1695 57.74 31.8845 57.721 31.611 57.6565C31.3785 57.6015 31.263 57.412 31.2845 57.227C31.306 57.045 31.4995 56.8755 31.721 56.858C32.167 56.822 32.604 56.7525 33.015 56.5645C34.104 56.0665 34.6095 55.1945 34.483 54.0205C34.4665 53.8625 34.4305 53.7065 34.398 53.5225C34.7465 53.581 35.103 53.6695 35.3855 53.407ZM32.081 58.9155C32.524 58.9285 33.028 58.956 33.515 59.0985C33.9435 59.2235 34.296 59.4425 34.4 59.921C34.5255 60.499 34.2475 61.074 33.688 61.383C33.164 61.672 32.595 61.696 32.018 61.6365C31.524 61.5855 31.0795 61.4145 30.7235 61.0495C30.2545 60.569 30.252 59.904 30.7215 59.425C31.141 58.997 31.3655 58.9085 32.081 58.9155ZM33.1895 55.4345C32.9315 56.26 32.1805 56.374 31.592 56.11C31.0905 55.8855 30.872 55.4435 30.7575 54.939C30.713 54.745 30.7025 54.5435 30.6765 54.345C30.687 54.0605 30.734 53.7875 30.8565 53.5315C31.232 52.743 32.1545 52.79 32.665 53.147C32.884 53.3 33.0365 53.508 33.132 53.7545C33.3445 54.2911 33.3648 54.8847 33.1895 55.4345ZM28.5045 58.066C28.3259 58.0387 28.1493 57.9992 27.976 57.948C27.672 57.855 27.635 57.798 27.6315 57.4765C27.6225 56.5805 27.6165 55.6845 27.6065 54.789C27.6015 54.386 27.5535 53.9885 27.43 53.6035C27.105 52.5885 26.1095 52.0435 25.1135 52.343C24.5615 52.5095 24.0875 52.819 23.646 53.1825L23.485 53.306L23.4855 53.1405C23.496 52.95 23.5165 52.7595 23.515 52.569C23.514 52.4695 23.476 52.3695 23.4575 52.282C23.081 52.3955 22.7435 52.5095 22.399 52.5965C22.0535 52.6835 21.701 52.7425 21.3515 52.8135C21.178 52.8485 21.0505 52.9535 21.0535 53.073C21.058 53.2415 21.1975 53.274 21.3195 53.3245C21.5405 53.415 21.761 53.5065 21.9795 53.6035C22.1355 53.673 22.199 53.802 22.1975 53.9695C22.1865 55.134 22.1795 56.299 22.1625 57.464C22.1575 57.832 22.0645 57.929 21.7025 58.01L21.5445 58.0415C21.2095 58.099 21.2 58.1125 21.223 58.466L21.225 58.5245C21.221 58.6605 21.2805 58.7045 21.4205 58.703C22.3105 58.692 23.2007 58.688 24.091 58.691C24.4725 58.6925 24.5135 58.6625 24.5055 58.2705L24.4875 58.102C24.2695 58.0655 24.061 58.039 23.857 57.994C23.6435 57.9465 23.567 57.859 23.547 57.642C23.5285 57.4435 23.5225 57.242 23.5205 57.042C23.5105 56.1263 23.503 55.211 23.498 54.296C23.497 54.0655 23.5395 53.8515 23.7515 53.703C24.0635 53.48 24.4314 53.3481 24.814 53.322C25.608 53.2675 26.2115 53.738 26.2545 54.5295C26.3075 55.506 26.2915 56.486 26.304 57.4645C26.305 57.5375 26.292 57.611 26.282 57.6835C26.263 57.8265 26.193 57.934 26.048 57.971C25.9065 58.008 25.763 58.041 25.6185 58.063C25.403 58.095 25.3985 58.0935 25.382 58.311L25.3875 58.4575C25.413 58.7105 25.4135 58.703 25.6695 58.7005C26.5305 58.6932 27.3912 58.6897 28.2515 58.69C28.6115 58.691 28.637 58.674 28.64 58.303L28.639 58.215C28.6445 58.12 28.602 58.0815 28.5045 58.066ZM40.5305 52.4045C39.628 52.184 38.772 52.348 37.959 52.7685C37.169 53.177 36.641 53.8085 36.44 54.6805C36.237 55.562 36.334 56.422 36.7235 57.2405C36.977 57.772 37.367 58.183 37.898 58.45C39.141 59.076 40.6615 58.792 41.6365 57.9545C42.406 57.294 42.6885 56.4145 42.7055 55.326C42.695 55.217 42.6845 55.007 42.6555 54.799C42.492 53.614 41.6715 52.6835 40.5305 52.4045ZM41.214 56.982C40.9745 57.925 40.159 58.344 39.239 58.02C38.7695 57.855 38.4185 57.5395 38.1825 57.113C37.6395 56.133 37.535 55.091 37.844 54.022C38.05 53.31 38.636 52.9205 39.333 52.9695C39.956 53.013 40.435 53.312 40.7865 53.819C41.157 54.354 41.3 54.9625 41.338 55.6015C41.3445 55.704 41.339 55.8065 41.339 55.9095L41.383 55.9145C41.328 56.271 41.302 56.6345 41.214 56.982ZM17.832 52.389C16.8825 52.172 15.993 52.3865 15.169 52.869C14.4565 53.286 13.996 53.909 13.8195 54.723C13.654 55.4835 13.7215 56.231 13.991 56.9595C14.155 57.4035 14.4035 57.794 14.768 58.0985C15.5355 58.739 16.4325 58.901 17.387 58.7225C18.195 58.571 18.905 58.212 19.421 57.5405C19.904 56.9125 20.088 56.1915 20.107 55.41C20.0785 55.1625 20.0715 54.9105 20.019 54.669C19.758 53.4635 19.053 52.6675 17.832 52.389ZM18.6065 56.979C18.375 57.917 17.5465 58.3465 16.633 58.0225C16.0465 57.814 15.6645 57.3845 15.423 56.834C15.036 55.9495 14.957 55.029 15.2075 54.096C15.3995 53.3825 15.978 52.857 16.8635 52.983C17.407 53.06 17.831 53.3375 18.147 53.779C18.574 54.3745 18.7145 55.0565 18.734 55.773V55.9195L18.77 55.925C18.7175 56.277 18.6915 56.635 18.6065 56.979Z" fill="#666C73"/>
</svg>
