<svg width="81" height="64" viewBox="0 0 81 64" fill="none" xmlns="http://www.w3.org/2000/svg">
<path d="M40.0317 56.5C39.7659 56.5 39.5002 56.425 39.2597 56.3L36.8297 54.875C36.4627 54.675 36.6398 54.6 36.7664 54.5625C37.2473 54.4 37.3486 54.3625 37.8675 54.0625C37.9181 54.0375 37.9941 54.05 38.0447 54.075L39.9178 55.175C39.9811 55.2125 40.0823 55.2125 40.1456 55.175L47.4609 51C47.5242 50.9625 47.5748 50.8875 47.5748 50.8V42.4625C47.5748 42.375 47.5369 42.3 47.4609 42.2625L40.1456 38.1C40.0823 38.0625 39.9938 38.0625 39.9178 38.1L32.6025 42.2625C32.5266 42.3 32.4886 42.3875 32.4886 42.4625V50.8C32.4886 50.875 32.5392 50.95 32.6025 50.9875L34.6022 52.125C35.6906 52.6625 36.3614 52.025 36.3614 51.4V43.1625C36.3614 43.05 36.45 42.95 36.5766 42.95H37.5005C37.6144 42.95 37.7156 43.0375 37.7156 43.1625V51.4C37.7156 52.8375 36.9309 53.65 35.5514 53.65C35.1338 53.65 34.792 53.65 33.8681 53.2L31.9444 52.1125C31.4761 51.8375 31.1723 51.3375 31.1723 50.8V42.4625C31.1723 41.925 31.4634 41.4125 31.9444 41.15L39.2597 36.975C39.728 36.7125 40.3355 36.7125 40.7911 36.975L48.1064 41.15C48.5747 41.425 48.8784 41.925 48.8784 42.4625V50.8C48.8784 51.3375 48.5873 51.85 48.1064 52.1125L40.7911 56.2875C40.5759 56.425 40.3102 56.5 40.0317 56.5ZM45.9422 48.275C45.9422 46.7125 44.8791 46.3 42.6263 46C40.3481 45.7 40.1203 45.55 40.1203 45.025C40.1203 44.5875 40.3102 44.0125 41.9934 44.0125C43.4995 44.0125 44.0564 44.3375 44.2842 45.3375C44.3095 45.4375 44.3855 45.5 44.4867 45.5H45.4359C45.4992 45.5 45.5498 45.475 45.5878 45.4375C45.6258 45.3875 45.6511 45.3375 45.6384 45.275C45.4866 43.55 44.3348 42.75 41.9934 42.75C39.9052 42.75 38.6648 43.625 38.6648 45.075C38.6648 46.6625 39.9052 47.0875 41.9048 47.2875C44.2969 47.525 44.4867 47.8625 44.4867 48.325C44.4867 49.1375 43.8286 49.475 42.2845 49.475C40.3481 49.475 39.9178 49 39.7786 48.05C39.7659 47.95 39.6773 47.875 39.5634 47.875H38.6142C38.5003 47.875 38.3991 47.9625 38.3991 48.0875C38.3991 49.3 39.0698 50.75 42.2719 50.75C44.6133 50.75 45.9422 49.85 45.9422 48.275ZM52.8398 42.0125C52.8398 42.775 52.207 43.4 51.435 43.4C50.663 43.4 50.0302 42.775 50.0302 42.0125C50.0302 41.225 50.6883 40.625 51.435 40.625C52.1944 40.6125 52.8398 41.225 52.8398 42.0125ZM52.612 42.0125C52.612 41.3625 52.0805 40.85 51.4223 40.85C50.7769 40.85 50.2453 41.3625 50.2453 42.0125C50.2453 42.6625 50.7769 43.1875 51.4223 43.1875C52.0805 43.175 52.612 42.65 52.612 42.0125ZM52.0425 42.7875H51.7134C51.7008 42.7125 51.6502 42.3125 51.6502 42.3C51.6248 42.2125 51.5995 42.1625 51.4856 42.1625H51.2072V42.7875H50.9034V41.225H51.4477C51.6375 41.225 52.0045 41.225 52.0045 41.6375C52.0045 41.925 51.8147 41.9875 51.7008 42.025C51.9159 42.0375 51.9286 42.175 51.9666 42.375C51.9792 42.5 52.0045 42.7125 52.0425 42.7875ZM51.6881 41.6875C51.6881 41.475 51.5363 41.475 51.4603 41.475H51.2072V41.9125H51.4477C51.6502 41.9125 51.6881 41.775 51.6881 41.6875ZM17.377 23.875C17.377 23.5375 17.1998 23.2375 16.9088 23.075L9.15047 18.6625C9.02391 18.5875 8.87203 18.55 8.72016 18.5375H8.64422C8.49234 18.5375 8.35313 18.5875 8.21391 18.6625L0.468281 23.075C0.177188 23.2375 0 23.55 0 23.875L0.0126563 35.75C0.0126563 35.9125 0.10125 36.0625 0.240469 36.15C0.379688 36.2375 0.556875 36.2375 0.70875 36.15L5.31563 33.5375C5.60672 33.3625 5.78391 33.0625 5.78391 32.7375V27.1875C5.78391 26.8625 5.96109 26.55 6.25219 26.3875L8.21391 25.275C8.36578 25.1875 8.51766 25.15 8.68219 25.15C8.84672 25.15 9.01125 25.1875 9.15047 25.275L11.1122 26.3875C11.4033 26.55 11.5805 26.8625 11.5805 27.1875V32.7375C11.5805 33.0625 11.7577 33.375 12.0487 33.5375L16.6556 36.15C16.7948 36.2375 16.9847 36.2375 17.1239 36.15C17.2631 36.075 17.3517 35.9125 17.3517 35.75L17.377 23.875ZM59.8008 10.9125V32.9625C59.8008 33.2875 59.6236 33.6 59.3325 33.7625L51.5742 38.1875C51.2831 38.35 50.9288 38.35 50.6377 38.1875L42.8794 33.7625C42.5883 33.6 42.4111 33.2875 42.4111 32.9625V24.1125C42.4111 23.7875 42.5883 23.475 42.8794 23.3125L50.6377 18.8875C50.9288 18.725 51.2831 18.725 51.5742 18.8875L53.5106 19.9875C53.7258 20.1125 54.0042 19.95 54.0042 19.7125V7.96252C54.0042 7.61252 54.3839 7.38752 54.7003 7.56252L59.3198 10.1125C59.6109 10.2625 59.8008 10.575 59.8008 10.9125ZM53.9789 27.025C53.9789 26.9375 53.9283 26.8625 53.865 26.825L51.2072 25.3C51.1313 25.2625 51.0427 25.2625 50.9667 25.3L48.3089 26.825C48.233 26.8625 48.195 26.9375 48.195 27.025V30.0625C48.195 30.15 48.2456 30.225 48.3089 30.2625L50.9667 31.775C51.0427 31.8125 51.1313 31.8125 51.1945 31.775L53.8523 30.2625C53.9283 30.225 53.9663 30.15 53.9663 30.0625V27.025H53.9789ZM80.5317 26.9375C80.8228 26.775 81 26.4625 81 26.1375V24C81 23.675 80.8228 23.3625 80.5317 23.2L72.8241 18.775C72.533 18.6125 72.1786 18.6125 71.8875 18.775L64.1292 23.2C63.8381 23.3625 63.6609 23.675 63.6609 24V32.85C63.6609 33.1875 63.8381 33.4875 64.1292 33.65L71.8369 37.9875C72.1153 38.15 72.4697 38.15 72.7608 37.9875L77.4183 35.425C77.7347 35.25 77.7347 34.8 77.4183 34.625L69.6094 30.2C69.4575 30.1125 69.3689 29.9625 69.3689 29.8V27.025C69.3689 26.8625 69.4575 26.7125 69.6094 26.625L72.0394 25.2375C72.1786 25.15 72.3684 25.15 72.5077 25.2375L74.9377 26.625C75.0769 26.7125 75.1781 26.8625 75.1781 27.025V29.2C75.1781 29.55 75.5705 29.775 75.8869 29.6L80.5317 26.9375ZM70.7484 27.375C70.6978 27.4125 70.6598 27.4625 70.6598 27.525V29.225C70.6598 29.2875 70.6978 29.35 70.7484 29.375L72.2419 30.225C72.2925 30.2625 72.3684 30.2625 72.4191 30.225L73.9125 29.375C73.9631 29.3375 74.0011 29.2875 74.0011 29.225V27.525C74.0011 27.4625 73.9631 27.4 73.9125 27.375L72.4191 26.525C72.3684 26.4875 72.2925 26.4875 72.2419 26.525L70.7484 27.375ZM38.5763 32.8125V24.0125C38.5763 23.6875 38.3738 23.375 38.0827 23.2125L30.3497 18.8125C30.0839 18.6625 29.7169 18.6375 29.4131 18.8125L21.6802 23.2125C21.3891 23.375 21.1866 23.675 21.1866 24.0125V32.8125C21.1866 33.1625 21.427 33.4625 21.6928 33.6125L29.4384 38.0125C29.7422 38.1875 30.0966 38.175 30.375 38.0125L38.0953 33.6125C38.3231 33.4875 38.4877 33.275 38.5509 33.025C38.5636 32.9625 38.5763 32.8875 38.5763 32.8125ZM29.1727 17.2L29.0714 17.2625H29.2106L29.1727 17.2ZM38.8167 33.475L38.7661 33.3875V33.5L38.8167 33.475Z" fill="#666C73"/>
</svg>
