<svg width="64" height="64" viewBox="0 0 64 64" fill="none" xmlns="http://www.w3.org/2000/svg">
<g clip-path="url(#clip0_21_2119)">
<path d="M12.8 51.2H6.4C4.70261 51.2 3.07475 50.5257 1.87452 49.3255C0.674284 48.1253 0 46.4974 0 44.8L0 23.4667C0 21.7693 0.674284 20.1414 1.87452 18.9412C3.07475 17.7409 4.70261 17.0667 6.4 17.0667H34.1333V12.8H29.8667V8.53333H25.6V12.8H17.0667V6.4C17.0667 4.70261 17.7409 3.07475 18.9412 1.87452C20.1414 0.674284 21.7693 0 23.4667 0L40.5333 0C42.2307 0 43.8586 0.674284 45.0588 1.87452C46.2591 3.07475 46.9333 4.70261 46.9333 6.4V27.7333C46.9333 28.2991 46.7086 28.8418 46.3085 29.2418C45.9084 29.6419 45.3658 29.8667 44.8 29.8667H19.2C17.5026 29.8667 15.8748 30.541 14.6745 31.7412C13.4743 32.9414 12.8 34.5693 12.8 36.2667V51.2Z" fill="#666C73"/>
<path d="M51.2 12.8V27.7333C51.2 29.4307 50.5257 31.0586 49.3255 32.2588C48.1252 33.459 46.4974 34.1333 44.8 34.1333H19.2C18.6342 34.1333 18.0916 34.3581 17.6915 34.7582C17.2914 35.1582 17.0667 35.7009 17.0667 36.2667V57.6C17.0667 59.2974 17.7409 60.9252 18.9412 62.1255C20.1414 63.3257 21.7693 64 23.4667 64H40.5333C42.2307 64 43.8586 63.3257 45.0588 62.1255C46.259 60.9252 46.9333 59.2974 46.9333 57.6V51.2H38.4V55.4667H34.1333V51.2H29.8667V46.9333H57.6C59.2974 46.9333 60.9252 46.259 62.1255 45.0588C63.3257 43.8586 64 42.2307 64 40.5333V19.2C64 17.5026 63.3257 15.8747 62.1255 14.6745C60.9252 13.4743 59.2974 12.8 57.6 12.8H51.2Z" fill="#666C73"/>
</g>
<defs>
<clipPath id="clip0_21_2119">
<rect width="64" height="64" fill="white"/>
</clipPath>
</defs>
</svg>
