<svg width="64" height="64" viewBox="0 0 64 64" fill="none" xmlns="http://www.w3.org/2000/svg">
<path d="M31.9999 26.96C34.7466 26.96 36.9866 29.2 36.9866 32C36.9866 34.6666 34.7466 36.9333 31.9999 36.9333C29.2533 36.9333 27.0133 34.6666 27.0133 32C27.0133 29.2 29.2533 26.96 31.9999 26.96ZM19.6532 53.3333C21.3333 54.3466 25.0133 52.8 29.2533 48.8C27.8666 47.2266 26.5066 45.52 25.2266 43.7333C23.0778 43.5262 20.9415 43.2057 18.8266 42.7733C17.4666 48.48 17.9733 52.4 19.6532 53.3333ZM21.5466 38.0266L20.7733 36.6666C20.4799 37.44 20.1866 38.2133 19.9999 38.96C20.7199 39.12 21.5199 39.2533 22.3466 39.3866L21.5466 38.0266ZM38.9866 36L41.1466 32L38.9866 28C38.1866 26.5866 37.3332 25.3333 36.5599 24.08C35.1199 24 33.5999 24 31.9999 24C30.3999 24 28.8799 24 27.4399 24.08C26.6666 25.3333 25.8133 26.5866 25.0133 28L22.8533 32L25.0133 36C25.8133 37.4133 26.6666 38.6666 27.4399 39.92C28.8799 40 30.3999 40 31.9999 40C33.5999 40 35.1199 40 36.5599 39.92C37.3332 38.6666 38.1866 37.4133 38.9866 36ZM31.9999 18.08C31.4932 18.6666 30.9599 19.28 30.4266 20H33.5732C33.0399 19.28 32.5066 18.6666 31.9999 18.08ZM31.9999 45.92C32.5066 45.3333 33.0399 44.72 33.5732 44H30.4266C30.9599 44.72 31.4932 45.3333 31.9999 45.92ZM44.3199 10.6666C42.6666 9.65331 38.9866 11.2 34.7466 15.2C36.1332 16.7733 37.4932 18.48 38.7733 20.2666C40.9599 20.48 43.1199 20.8 45.1733 21.2266C46.5332 15.52 46.0266 11.6 44.3199 10.6666ZM42.4533 25.9733L43.2266 27.3333C43.5199 26.56 43.8132 25.7866 43.9999 25.04C43.2799 24.88 42.4799 24.7466 41.6532 24.6133L42.4533 25.9733ZM46.3199 7.17331C50.2399 9.41331 50.6666 15.3066 49.0132 22.1866C55.7866 24.1866 60.6666 27.4933 60.6666 32C60.6666 36.5066 55.7866 39.8133 49.0132 41.8133C50.6666 48.6933 50.2399 54.5866 46.3199 56.8266C42.4266 59.0666 37.1199 56.5066 31.9999 51.6266C26.8799 56.5066 21.5732 59.0666 17.6533 56.8266C13.7599 54.5866 13.3333 48.6933 14.9866 41.8133C8.21325 39.8133 3.33325 36.5066 3.33325 32C3.33325 27.4933 8.21325 24.1866 14.9866 22.1866C13.3333 15.3066 13.7599 9.41331 17.6533 7.17331C21.5732 4.93331 26.8799 7.49331 31.9999 12.3733C37.1199 7.49331 42.4266 4.93331 46.3199 7.17331ZM45.5466 32C46.4533 34 47.2532 36 47.9199 38.0266C53.5199 36.3466 56.6666 33.9466 56.6666 32C56.6666 30.0533 53.5199 27.6533 47.9199 25.9733C47.2532 28 46.4533 30 45.5466 32ZM18.4533 32C17.5466 30 16.7466 28 16.0799 25.9733C10.4799 27.6533 7.33325 30.0533 7.33325 32C7.33325 33.9466 10.4799 36.3466 16.0799 38.0266C16.7466 36 17.5466 34 18.4533 32ZM42.4533 38.0266L41.6532 39.3866C42.4799 39.2533 43.2799 39.12 43.9999 38.96C43.8132 38.2133 43.5199 37.44 43.2266 36.6666L42.4533 38.0266ZM34.7466 48.8C38.9866 52.8 42.6666 54.3466 44.3199 53.3333C46.0266 52.4 46.5332 48.48 45.1733 42.7733C43.1199 43.2 40.9599 43.52 38.7733 43.7333C37.4932 45.52 36.1332 47.2266 34.7466 48.8ZM21.5466 25.9733L22.3466 24.6133C21.5199 24.7466 20.7199 24.88 19.9999 25.04C20.1866 25.7866 20.4799 26.56 20.7733 27.3333L21.5466 25.9733ZM29.2533 15.2C25.0133 11.2 21.3333 9.65331 19.6532 10.6666C17.9733 11.6 17.4666 15.52 18.8266 21.2266C20.9415 20.7942 23.0778 20.4738 25.2266 20.2666C26.5066 18.48 27.8666 16.7733 29.2533 15.2Z" fill="#666C73"/>
</svg>
