<svg width="64" height="64" viewBox="0 0 64 64" fill="none" xmlns="http://www.w3.org/2000/svg">
<path d="M45.3333 21.3333V42.6666H56M34.6667 40L37.3333 42.6666M8 40C8 40.7072 8.28095 41.3855 8.78105 41.8856C9.28115 42.3857 9.95942 42.6666 10.6667 42.6666H16C16.7072 42.6666 17.3855 42.3857 17.8856 41.8856C18.3857 41.3855 18.6667 40.7072 18.6667 40V34.6666C18.6667 33.9594 18.3857 33.2811 17.8856 32.781C17.3855 32.2809 16.7072 32 16 32H10.6667C9.95942 32 9.28115 31.719 8.78105 31.2189C8.28095 30.7188 8 30.0406 8 29.3333V24C8 23.2927 8.28095 22.6145 8.78105 22.1144C9.28115 21.6143 9.95942 21.3333 10.6667 21.3333H16C16.7072 21.3333 17.3855 21.6143 17.8856 22.1144C18.3857 22.6145 18.6667 23.2927 18.6667 24M32 21.3333C33.4145 21.3333 34.771 21.8952 35.7712 22.8954C36.7714 23.8956 37.3333 25.2522 37.3333 26.6666V37.3333C37.3333 38.7478 36.7714 40.1044 35.7712 41.1045C34.771 42.1047 33.4145 42.6666 32 42.6666C30.5855 42.6666 29.229 42.1047 28.2288 41.1045C27.2286 40.1044 26.6667 38.7478 26.6667 37.3333V26.6666C26.6667 25.2522 27.2286 23.8956 28.2288 22.8954C29.229 21.8952 30.5855 21.3333 32 21.3333Z" stroke="#666C73" stroke-width="2" stroke-linecap="round" stroke-linejoin="round"/>
</svg>
