<svg width="64" height="64" viewBox="0 0 64 64" fill="none" xmlns="http://www.w3.org/2000/svg">
<path d="M31.9999 16C24.8799 16 20.4533 19.5467 18.6666 26.6667C21.3333 23.12 24.4533 21.7867 27.9999 22.6667C30.0266 23.1733 31.4932 24.64 33.0933 26.2667C35.7066 28.9333 38.6666 32 45.3332 32C52.4533 32 56.8799 28.4533 58.6666 21.3333C55.9999 24.88 52.8799 26.2133 49.3332 25.3333C47.3066 24.8267 45.8666 23.36 44.2399 21.7333C41.6266 19.0667 38.6666 16 31.9999 16ZM18.6666 32C11.5466 32 7.11992 35.5467 5.33325 42.6667C7.99992 39.12 11.1199 37.7867 14.6666 38.6667C16.6933 39.1733 18.1333 40.64 19.7599 42.2667C22.3733 44.9333 25.3333 48 31.9999 48C39.1199 48 43.5466 44.4533 45.3332 37.3333C42.6666 40.88 39.5466 42.2133 35.9999 41.3333C33.9732 40.8267 32.5333 39.36 30.9066 37.7333C28.2933 35.0667 25.3333 32 18.6666 32Z" fill="#666C73"/>
</svg>
