<svg width="53" height="53" viewBox="0 0 53 53" fill="none" xmlns="http://www.w3.org/2000/svg">
<path d="M34.0128 46.375V30.9918H39.1648L39.9355 25.0116H34.0128V21.1956C34.0128 19.4642 34.4942 18.2828 36.9763 18.2828H40.1431V12.9342C38.6101 12.7716 37.0693 12.6927 35.5277 12.6979C30.963 12.6979 27.8382 15.4848 27.8382 20.6037V25.0116H22.6752V30.9918H27.8382V46.375H8.83333C8.24765 46.375 7.68595 46.1423 7.27181 45.7282C6.85766 45.3141 6.625 44.7523 6.625 44.1667V8.83333C6.625 8.24765 6.85766 7.68595 7.27181 7.27181C7.68595 6.85766 8.24765 6.625 8.83333 6.625H44.1667C44.7523 6.625 45.3141 6.85766 45.7282 7.27181C46.1423 7.68595 46.375 8.24765 46.375 8.83333V44.1667C46.375 44.7523 46.1423 45.3141 45.7282 45.7282C45.3141 46.1423 44.7523 46.375 44.1667 46.375H34.0128Z" fill="#6C3B83"/>
</svg>
