<svg width="47" height="47" viewBox="0 0 47 47" fill="none" xmlns="http://www.w3.org/2000/svg">
<path d="M15.2751 3.91663H31.7251C37.9917 3.91663 43.0834 9.00829 43.0834 15.275V31.725C43.0834 34.7374 41.8867 37.6264 39.7566 39.7565C37.6265 41.8866 34.7375 43.0833 31.7251 43.0833H15.2751C9.00842 43.0833 3.91675 37.9916 3.91675 31.725V15.275C3.91675 12.2625 5.11343 9.37351 7.24353 7.24341C9.37363 5.1133 12.2627 3.91663 15.2751 3.91663ZM14.8834 7.83329C13.0136 7.83329 11.2204 8.57606 9.89831 9.89819C8.57618 11.2203 7.83341 13.0135 7.83341 14.8833V32.1166C7.83341 36.0137 10.9863 39.1666 14.8834 39.1666H32.1167C33.9865 39.1666 35.7797 38.4239 37.1019 37.1017C38.424 35.7796 39.1667 33.9864 39.1667 32.1166V14.8833C39.1667 10.9862 36.0138 7.83329 32.1167 7.83329H14.8834ZM33.7813 10.7708C34.4306 10.7708 35.0532 11.0287 35.5123 11.4878C35.9713 11.9468 36.2292 12.5695 36.2292 13.2187C36.2292 13.8679 35.9713 14.4906 35.5123 14.9496C35.0532 15.4087 34.4306 15.6666 33.7813 15.6666C33.1321 15.6666 32.5095 15.4087 32.0504 14.9496C31.5913 14.4906 31.3334 13.8679 31.3334 13.2187C31.3334 12.5695 31.5913 11.9468 32.0504 11.4878C32.5095 11.0287 33.1321 10.7708 33.7813 10.7708ZM23.5001 13.7083C26.097 13.7083 28.5875 14.7399 30.4238 16.5762C32.2601 18.4125 33.2917 20.903 33.2917 23.5C33.2917 26.0969 32.2601 28.5874 30.4238 30.4237C28.5875 32.26 26.097 33.2916 23.5001 33.2916C20.9032 33.2916 18.4126 32.26 16.5763 30.4237C14.74 28.5874 13.7084 26.0969 13.7084 23.5C13.7084 20.903 14.74 18.4125 16.5763 16.5762C18.4126 14.7399 20.9032 13.7083 23.5001 13.7083ZM23.5001 17.625C21.9419 17.625 20.4476 18.2439 19.3458 19.3457C18.2441 20.4475 17.6251 21.9418 17.6251 23.5C17.6251 25.0581 18.2441 26.5524 19.3458 27.6542C20.4476 28.756 21.9419 29.375 23.5001 29.375C25.0582 29.375 26.5526 28.756 27.6543 27.6542C28.7561 26.5524 29.3751 25.0581 29.3751 23.5C29.3751 21.9418 28.7561 20.4475 27.6543 19.3457C26.5526 18.2439 25.0582 17.625 23.5001 17.625Z" fill="#6C3B83"/>
</svg>
