<svg width="37" height="37" viewBox="0 0 37 37" fill="none" xmlns="http://www.w3.org/2000/svg">
<path d="M30.8333 18.5C30.4222 18.5 30.0563 18.352 29.7357 18.056C29.414 17.761 29.2274 17.3951 29.176 16.9583C28.842 14.5687 27.8338 12.5322 26.1513 10.8487C24.4678 9.16624 22.4312 8.15799 20.0417 7.82396C19.6049 7.77257 19.239 7.59271 18.944 7.28437C18.648 6.97604 18.5 6.60347 18.5 6.16667C18.5 5.72986 18.6542 5.36346 18.9625 5.06746C19.2708 4.77249 19.6306 4.65069 20.0417 4.70208C23.2792 5.06181 26.0413 6.38507 28.3281 8.67188C30.6149 10.9587 31.9382 13.7208 32.2979 16.9583C32.3493 17.3694 32.227 17.7292 31.931 18.0375C31.636 18.3458 31.2701 18.5 30.8333 18.5ZM24.3969 18.5C24.0628 18.5 23.7674 18.3844 23.5104 18.1531C23.2535 17.9219 23.0608 17.6135 22.9323 17.2281C22.7267 16.483 22.3352 15.8211 21.7575 15.2425C21.1789 14.6648 20.517 14.2733 19.7719 14.0677C19.3865 13.9392 19.0781 13.7465 18.8469 13.4896C18.6156 13.2326 18.5 12.9243 18.5 12.5646C18.5 12.0507 18.6799 11.6329 19.0396 11.3112C19.3993 10.9905 19.7976 10.8816 20.2344 10.9844C21.6733 11.3184 22.9133 12.0055 23.9544 13.0456C24.9945 14.0867 25.6816 15.3267 26.0156 16.7656C26.1184 17.2024 26.0028 17.6007 25.6687 17.9604C25.3347 18.3201 24.9108 18.5 24.3969 18.5ZM30.7563 32.375C27.4417 32.375 24.2108 31.636 21.0638 30.1581C17.9157 28.6812 15.1279 26.7284 12.7002 24.2997C10.2716 21.8721 8.31883 19.0843 6.84192 15.9362C5.36397 12.7892 4.625 9.55833 4.625 6.24375C4.625 5.78125 4.77917 5.39583 5.0875 5.0875C5.39583 4.77917 5.78125 4.625 6.24375 4.625H12.4875C12.8472 4.625 13.1684 4.74062 13.451 4.97187C13.7337 5.20312 13.9007 5.49861 13.9521 5.85833L14.9542 11.2542C15.0056 11.6139 14.9994 11.9412 14.9357 12.2362C14.8709 12.5322 14.7229 12.7958 14.4917 13.0271L10.7917 16.8042C11.8708 18.6542 13.2198 20.3885 14.8385 22.0073C16.4573 23.626 18.2431 25.0264 20.1958 26.2083L23.8187 22.5854C24.05 22.3542 24.3522 22.1805 24.7253 22.0643C25.0973 21.9492 25.4632 21.9174 25.8229 21.9688L31.1417 23.0479C31.5014 23.125 31.7969 23.2982 32.0281 23.5675C32.2594 23.8378 32.375 24.1528 32.375 24.5125V30.7563C32.375 31.2188 32.2208 31.6042 31.9125 31.9125C31.6042 32.2208 31.2188 32.375 30.7563 32.375Z" fill="#322448"/>
</svg>
