<svg width="285" height="283" viewBox="0 0 285 283" fill="none" xmlns="http://www.w3.org/2000/svg">
<path d="M280.287 120.926C272.591 70.5542 241.039 8.66886 178.704 2.19245C178.704 2.19245 131.376 -3.56428 84.7217 5.16061C57.0322 10.3388 32.7525 25.7531 17.3893 47.9074C2.02601 70.0616 -3.10588 97.0757 3.12229 122.83C7.16743 139.558 9.90091 156.871 9.15066 174.059C7.84503 203.975 8.5962 231.899 37.6285 249.74C63.5511 265.67 96.175 279.719 127.299 282.18C148.45 283.852 172.17 281.146 192.556 275.639C296.448 247.575 287.982 171.298 280.287 120.926Z" fill="#F4F7FA"/>
<path d="M216.184 242.879C210.757 245.241 201.622 249.217 190.66 247.027C170.73 243.047 157.698 221.273 154.073 203.443C150.96 188.129 155.85 172.286 165.63 140.6C174.841 110.759 180.444 103.453 175.527 94.2177C168.518 81.0521 150.041 82.5798 144.167 65.995C143.462 64.0048 141.042 57.1695 144.095 51.2153C149.323 41.0228 166.924 40.5661 177.099 42.6243C186.914 44.6094 201.337 51.2637 205.101 63.3782C207.828 72.1553 202.644 76.3424 206.614 83.1691C210.608 90.0378 217.06 87.8709 227.635 95.76C231.86 98.9116 240.341 105.238 242.644 114.942C245.623 127.489 235.578 134.325 240.101 143.015C243.368 149.293 249.68 147.777 254.766 153.935C261.461 162.042 258.679 174.547 256.224 184.923C253.335 197.141 245.537 230.105 216.184 242.879Z" fill="#22604B"/>
<path opacity="0.16" d="M150.077 51.9796C148.499 58.8098 172.795 60.8558 185.105 81.4455C198.349 103.599 189.639 133.705 185.613 147.618C178.745 171.356 170.264 175.323 170.055 195.252C169.973 203.139 169.801 219.571 181.963 231.143C183.093 232.218 195.869 244.017 211.272 241.127C228.744 237.848 236.311 218.165 242.832 201.204C246.772 190.955 254.643 170.482 246.297 163.376C241.196 159.031 231.208 160.682 224.957 164.205C216.034 169.234 213.498 178.766 211.664 178.085C210.012 177.471 210.48 169.147 213.601 160.468C219.842 143.108 230.313 142.077 233.854 127.978C234.283 126.269 237.487 112.678 229.544 103.571C224.963 98.3188 216.554 94.4211 211.427 97.1468C205.628 100.229 206.53 110.453 204.516 110.433C202.591 110.413 200.597 101.053 199.977 91.5151C199.067 77.5001 201.883 74.7778 199.605 67.4446C196.131 56.2565 185.85 50.5925 184.361 49.7994C170.403 42.3683 151.426 46.1401 150.077 51.9796Z" fill="#359976"/>
<path d="M205.501 256.291C201.496 255.029 194.754 252.903 189.905 246.626C181.089 235.214 184.252 217.489 190.614 206.256C196.079 196.608 206.074 190.404 226.065 177.995C244.892 166.309 251.294 165.006 252.962 157.773C255.341 147.461 244.737 139.674 249.316 128.06C249.865 126.667 251.752 121.88 256.16 120.115C263.704 117.092 273.34 125.044 277.829 130.884C282.159 136.517 286.781 146.796 283.155 155.034C280.528 161.003 275.803 160.83 274.749 166.334C273.689 171.871 278.152 173.715 280.14 182.863C280.934 186.518 282.529 193.854 279.243 200.121C274.995 208.226 266.434 207.208 264.809 213.966C263.634 218.848 267.72 220.976 267.575 226.641C267.384 234.099 260.071 239.498 253.925 243.91C246.688 249.105 227.164 263.121 205.501 256.291Z" fill="#22604B"/>
<path opacity="0.16" d="M259.006 123.31C254.981 126.231 267.035 138.64 264.037 155.395C260.812 173.423 242.129 185.484 233.495 191.058C218.764 200.568 212.376 198.742 202.985 209.314C199.268 213.498 191.524 222.215 192.646 234.073C192.75 235.175 194.096 247.441 203.688 253.066C214.568 259.447 227.785 252.433 239.174 246.389C246.056 242.738 259.803 235.443 258.645 227.752C257.937 223.05 251.821 219.283 246.834 218.258C239.715 216.795 233.919 220.718 233.254 219.499C232.656 218.401 236.783 214.163 242.495 210.969C253.92 204.582 260.006 208.907 268.467 203.007C269.492 202.292 277.536 196.508 277.524 187.934C277.518 182.989 274.831 176.986 270.817 176.058C266.277 175.008 261.999 180.901 260.931 179.953C259.909 179.046 263.2 173.107 267.31 167.712C273.349 159.785 276.124 159.638 278.32 154.652C281.67 147.045 278.803 139.225 278.375 138.107C274.363 127.629 262.448 120.812 259.006 123.31Z" fill="#359976"/>
<path d="M89.2496 127.698C92.5816 130.657 97.8804 130.131 101.084 126.523C104.289 122.915 104.185 117.592 100.853 114.632C100.681 114.479 100.5 114.341 100.317 114.206C101.635 112.09 102.782 109.911 103.752 107.684C103.972 107.741 104.194 107.795 104.424 107.834C108.912 108.593 113.449 105.476 114.558 100.871C115.667 96.2671 112.928 91.9194 108.44 91.1607C108.205 91.1211 107.971 91.0982 107.736 91.0794C107.874 88.6896 107.827 86.3078 107.598 83.9543C107.831 83.8892 108.063 83.8198 108.295 83.7339C112.736 82.0891 115.296 77.2157 114.013 72.8491C112.729 68.4823 108.089 66.276 103.648 67.9207C103.42 68.005 103.201 68.103 102.984 68.2039C101.931 66.1773 100.704 64.233 99.3088 62.3865C99.4856 62.2162 99.6605 62.0426 99.8264 61.8557C103.031 58.2479 106.984 54.4256 103.606 51.5189C95.7917 44.7948 90.9646 47.5315 87.7602 51.1394C87.5943 51.3263 87.4425 51.5205 87.2943 51.716C85.2958 50.5487 83.2204 49.5596 81.0836 48.7539C81.158 48.5262 81.2295 48.2971 81.2865 48.0611C82.3953 43.4571 84.4042 41.3349 80.0248 40.0952C70.475 37.3919 66.144 40.7091 65.035 45.3129C64.977 45.5537 64.9358 45.793 64.8983 46.0317C62.5343 46.082 60.1638 46.3173 57.8068 46.7356C57.7604 46.5051 57.7099 46.2748 57.643 46.0465C56.3596 41.6798 51.719 39.4735 47.278 41.1184C42.8369 42.7633 40.2774 47.6365 41.5609 52.0032C41.6265 52.2269 41.7068 52.441 41.7895 52.6532C39.6924 53.8793 37.6634 55.2755 35.7181 56.8341C35.5629 56.6687 35.4041 56.5052 35.2314 56.352C31.8995 53.3928 26.6008 53.9186 23.3965 57.5265C20.1922 61.1344 20.2958 66.458 23.6278 69.4172C23.8004 69.5706 23.9815 69.7088 24.1639 69.8436C22.8461 71.9593 21.699 74.139 20.7294 76.3661C20.5087 76.3091 20.2868 76.2547 20.0571 76.2158C15.569 75.4571 11.0323 78.5741 9.92314 83.1784C8.81414 87.7825 11.5534 92.13 16.041 92.8888C16.2754 92.9284 16.5101 92.9515 16.7442 92.9703C16.6072 95.3602 16.6535 97.7418 16.8827 100.095C16.6501 100.161 16.4174 100.23 16.1853 100.316C11.7444 101.961 9.18469 106.834 10.4682 111.201C11.7516 115.568 18.8145 119.292 23.2554 117.647C23.483 117.562 21.2797 115.947 21.4971 115.846C22.5494 117.873 23.7767 119.817 25.1717 121.663C24.9951 121.834 24.8202 122.007 24.6542 122.194C21.4499 125.802 21.5535 131.126 24.8854 134.085C28.2174 137.044 33.5161 136.518 36.7203 132.911C36.8863 132.724 37.038 132.53 37.1862 132.334C39.1846 133.501 41.2601 134.49 43.3968 135.296C43.3224 135.524 43.251 135.753 43.1941 135.989C42.0851 140.593 44.8242 144.941 49.3119 145.699C53.7996 146.458 58.3366 143.341 59.4455 138.737C59.5035 138.496 59.5449 138.257 59.582 138.018C61.9462 137.968 64.3168 137.733 66.6736 137.314C66.72 137.545 66.7705 137.775 66.8375 138.003C68.1211 142.37 72.7614 144.577 77.2025 142.932C81.6435 141.287 84.2032 136.413 82.9198 132.047C82.8539 131.823 82.7739 131.609 82.6911 131.397C84.7881 130.171 86.8172 128.775 88.7623 127.216C88.9183 127.381 89.077 127.544 89.2496 127.698ZM41.1755 115.743C29.0779 104.999 28.702 85.6697 40.3359 72.5705C51.9698 59.471 71.208 57.562 83.3057 68.3063C95.4034 79.0507 95.7794 98.3797 84.1456 111.479C72.5115 124.578 53.2733 126.488 41.1755 115.743Z" fill="#A73A60"/>
<path d="M104.424 107.834C108.912 108.592 113.449 105.475 114.558 100.871C115.667 96.2669 112.928 91.9193 108.44 91.1605C108.205 91.1208 107.971 91.0981 107.736 91.0791C107.874 88.6892 107.827 86.3077 107.598 83.9541C107.831 83.8891 108.063 83.8195 108.295 83.7335C112.736 82.0888 119.043 76.9546 117.319 72.7427C114.045 64.7487 108.088 66.2758 103.648 67.9204C103.42 68.0048 103.201 68.1027 102.984 68.2035C101.931 66.1768 100.704 64.2327 99.3089 62.3861C99.4857 62.2158 99.6604 62.0423 99.8265 61.8554C101.57 59.8919 102.327 57.4212 102.124 55.0989C96.8277 60.5268 91.5735 65.9944 86.3743 71.5135C95.3685 82.5906 94.6978 99.5969 84.1452 111.479C75.203 121.548 61.7706 124.996 50.539 121.178C49.6813 122.368 48.831 123.568 47.9402 124.736C45.5236 127.906 42.9241 130.949 40.3237 133.988C41.3328 134.466 42.3574 134.903 43.3973 135.295C43.3229 135.523 43.2515 135.752 43.1945 135.988C42.0855 140.592 43.846 145.213 51.904 146.875C56.3616 147.794 58.3369 143.34 59.4459 138.736C59.5038 138.496 59.5452 138.256 59.5825 138.018C61.9466 137.967 64.3171 137.732 66.674 137.314C66.7204 137.544 66.7709 137.774 66.838 138.003C68.1214 142.369 75.5835 146.038 80.0246 144.393C84.4657 142.748 84.2035 136.413 82.9202 132.046C82.8544 131.822 82.7742 131.608 82.6915 131.396C84.7885 130.17 86.8176 128.774 88.7628 127.215C88.9181 127.381 89.0768 127.544 89.2494 127.697C92.5814 130.657 97.8802 130.131 101.084 126.523C104.289 122.915 104.185 117.591 100.853 114.632C100.68 114.479 100.499 114.34 100.317 114.206C101.635 112.09 102.782 109.91 103.752 107.683C103.972 107.741 104.194 107.795 104.424 107.834Z" fill="#22604B"/>
<path d="M93.2604 129.251C96.5923 132.21 101.891 131.685 105.095 128.077C108.3 124.469 108.196 119.145 104.864 116.186C104.691 116.032 104.51 115.894 104.328 115.759C105.646 113.644 106.793 111.464 107.762 109.237C107.983 109.294 108.205 109.348 108.435 109.387C112.923 110.146 117.459 107.029 118.569 102.425C119.678 97.8205 116.939 93.4729 112.451 92.7141C112.216 92.6745 111.982 92.6516 111.747 92.6327C111.884 90.2428 111.838 87.8611 111.609 85.5076C111.842 85.4425 112.074 85.3732 112.306 85.2872C116.747 83.6424 119.307 78.769 118.024 74.4023C116.74 70.0356 112.1 67.8291 107.659 69.474C107.431 69.5583 107.212 69.6564 106.995 69.7571C105.942 67.7305 104.715 65.7864 103.32 63.9398C103.497 63.7696 103.671 63.5959 103.837 63.4091C107.042 59.8013 106.938 54.4775 103.606 51.5183C100.274 48.559 94.9755 49.0849 91.7713 52.6927C91.6053 52.8795 91.4536 53.0738 91.3053 53.2694C89.307 52.102 87.2315 51.113 85.0949 50.3073C85.1693 50.0795 85.2406 49.8504 85.2975 49.6145C86.4065 45.0105 83.6674 40.6629 79.1796 39.9041C74.6919 39.1452 70.1549 42.2625 69.0459 46.8664C68.9881 47.107 68.9467 47.3462 68.9094 47.5849C66.5454 47.6353 64.1749 47.8705 61.818 48.2889C61.7716 48.0584 61.7211 47.8282 61.6542 47.5998C60.3708 43.2331 55.7301 41.0266 51.2891 42.6716C46.8481 44.3167 44.2886 49.1899 45.5719 53.5565C45.6378 53.7802 45.7178 53.9944 45.8006 54.2065C43.7036 55.4325 41.6744 56.8287 39.7293 58.3874C39.5739 58.222 39.4152 58.0586 39.2425 57.9054C35.9106 54.9461 30.612 55.472 27.4077 59.0798C24.2034 62.6877 24.3069 68.0115 27.6389 70.9706C27.8116 71.124 27.9925 71.2621 28.1751 71.3969C26.8572 73.5126 25.7101 75.6923 24.7405 77.9195C24.5201 77.8624 24.2979 77.8081 24.0681 77.769C19.5804 77.0105 15.0434 80.1274 13.9344 84.7316C12.8254 89.3357 15.5646 93.6832 20.0522 94.4421C20.2866 94.4818 20.5213 94.5047 20.7555 94.5236C20.6184 96.9134 20.6648 99.2952 20.8939 101.649C20.6614 101.714 20.4286 101.783 20.1965 101.869C15.7557 103.514 13.1959 108.387 14.4794 112.754C15.7627 117.121 20.4034 119.327 24.8442 117.682C25.0719 117.598 25.2909 117.5 25.5083 117.399C26.5607 119.426 27.7879 121.37 29.1831 123.217C29.0065 123.387 28.8314 123.56 28.6655 123.747C25.4613 127.355 25.5648 132.679 28.8968 135.638C32.2287 138.597 37.5275 138.072 40.7316 134.464C40.8977 134.277 41.0494 134.083 41.1975 133.887C43.1959 135.054 45.2715 136.043 47.4082 136.849C47.3339 137.077 47.2622 137.306 47.2054 137.542C46.0966 142.146 48.8355 146.494 53.3231 147.253C57.8109 148.011 62.3479 144.894 63.4568 140.29C63.5148 140.049 63.5561 139.81 63.5933 139.571C65.9574 139.521 68.3278 139.286 70.6848 138.868C70.7313 139.098 70.7818 139.328 70.8489 139.556C72.1323 143.923 76.7728 146.13 81.2137 144.485C85.6548 142.84 88.2143 137.967 86.931 133.6C86.8652 133.376 86.785 133.162 86.7022 132.95C88.7993 131.724 90.8283 130.328 92.7737 128.769C92.9291 128.934 93.0878 129.098 93.2604 129.251ZM45.1865 117.297C33.0888 106.552 32.7127 87.2233 44.3466 74.1239C55.9808 61.0245 75.2187 59.1155 87.3164 69.8598C99.4141 80.6043 99.79 99.9332 88.1562 113.033C76.5223 126.132 57.2841 128.041 45.1865 117.297Z" fill="#E596B2"/>
<path d="M172.008 73.7815C174.319 75.8344 177.995 75.4696 180.218 72.9668C182.441 70.464 182.369 66.7709 180.057 64.7181C179.938 64.6117 179.812 64.5158 179.685 64.4223C180.6 62.9547 181.395 61.4425 182.068 59.8975C182.221 59.9371 182.375 59.9748 182.534 60.0018C185.648 60.5281 188.795 58.3658 189.564 55.1718C190.334 51.9778 188.434 48.9618 185.32 48.4354C185.158 48.408 184.995 48.3921 184.832 48.3789C184.927 46.7211 184.895 45.0688 184.736 43.4362C184.898 43.391 185.059 43.3429 185.22 43.2833C188.301 42.1423 190.076 38.7616 189.186 35.7323C188.296 32.703 185.076 31.1725 181.996 32.3135C181.838 32.372 181.686 32.44 181.535 32.5099C180.805 31.104 179.954 29.7552 178.986 28.4743C179.108 28.3561 179.23 28.2357 179.345 28.106C181.568 25.6032 184.31 22.9516 181.967 20.9353C176.546 16.2707 173.197 18.1692 170.975 20.6719C170.859 20.8017 170.754 20.9363 170.651 21.072C169.265 20.2622 167.825 19.5761 166.343 19.0171C166.395 18.8591 166.444 18.7002 166.484 18.5364C167.253 15.3426 168.646 13.8704 165.608 13.0104C158.983 11.1351 155.979 13.4363 155.21 16.6301C155.17 16.7971 155.141 16.9631 155.115 17.1286C153.475 17.1635 151.831 17.3267 150.195 17.6169C150.163 17.457 150.128 17.2972 150.082 17.1389C149.191 14.1096 145.972 12.5791 142.891 13.7202C139.811 14.8613 138.035 18.2419 138.925 21.2711C138.971 21.4264 139.027 21.5749 139.084 21.722C137.629 22.5726 136.222 23.5412 134.872 24.6224C134.765 24.5076 134.654 24.3943 134.535 24.2879C132.223 22.2351 128.547 22.5998 126.325 25.1026C124.102 27.6054 124.174 31.2986 126.485 33.3514C126.605 33.4578 126.73 33.5536 126.857 33.6471C125.943 35.1148 125.147 36.6269 124.474 38.1719C124.321 38.1323 124.167 38.0946 124.008 38.0675C120.895 37.5412 117.747 39.7036 116.978 42.8976C116.209 46.0917 118.109 49.1074 121.222 49.6339C121.385 49.6614 121.547 49.6774 121.71 49.6904C121.615 51.3483 121.647 53.0005 121.806 54.6332C121.645 54.6783 121.483 54.7264 121.322 54.7861C118.242 55.9271 116.466 59.3078 117.356 62.337C118.247 65.3663 123.146 67.9498 126.227 66.8087C126.385 66.7502 124.856 65.6293 125.007 65.5595C125.737 66.9654 126.589 68.3142 127.556 69.5951C127.434 69.7133 127.312 69.8336 127.197 69.9633C124.975 72.4661 125.046 76.1593 127.358 78.2121C129.669 80.265 133.345 79.9003 135.568 77.3975C135.683 77.2678 135.788 77.1332 135.891 76.9974C137.277 77.8072 138.717 78.4934 140.199 79.0522C140.148 79.2103 140.098 79.3692 140.059 79.5329C139.289 82.7267 141.19 85.7427 144.303 86.2691C147.416 86.7956 150.563 84.6331 151.333 81.4392C151.373 81.2723 151.401 81.1063 151.427 80.9406C153.067 80.9058 154.712 80.7426 156.347 80.4524C156.379 80.6123 156.414 80.7719 156.461 80.9303C157.351 83.9595 160.57 85.4903 163.651 84.3491C166.732 83.208 168.507 79.8274 167.617 76.798C167.571 76.6429 167.516 76.4945 167.458 76.3473C168.913 75.4968 170.321 74.5282 171.67 73.447C171.778 73.5618 171.888 73.6752 172.008 73.7815ZM138.658 65.4885C130.266 58.035 130.005 44.6261 138.076 35.539C146.146 26.4518 159.492 25.1275 167.884 32.5809C176.277 40.0343 176.538 53.4432 168.467 62.5303C160.396 71.6177 147.05 72.942 138.658 65.4885Z" fill="#A73A60"/>
<path d="M182.534 60.0019C185.647 60.5283 188.795 58.3659 189.564 55.1719C190.333 51.978 188.433 48.9619 185.32 48.4356C185.157 48.4081 184.995 48.3923 184.832 48.3792C184.927 46.7213 184.895 45.0692 184.736 43.4364C184.897 43.3914 185.059 43.3431 185.22 43.2834C188.3 42.1424 192.676 38.5808 191.479 35.6589C189.209 30.1134 185.076 31.1727 181.996 32.3136C181.838 32.3721 181.686 32.44 181.535 32.5099C180.805 31.104 179.954 29.7553 178.986 28.4743C179.108 28.3562 179.23 28.2358 179.345 28.1062C180.554 26.7441 181.079 25.0301 180.938 23.4192C177.264 27.1846 173.62 30.9776 170.013 34.8062C176.252 42.4906 175.787 54.2881 168.466 62.5307C162.263 69.5156 152.945 71.9077 145.153 69.259C144.558 70.0847 143.968 70.9171 143.351 71.7273C141.674 73.9262 139.871 76.0375 138.067 78.1453C138.767 78.4772 139.478 78.7803 140.199 79.0525C140.147 79.2106 140.098 79.3695 140.058 79.5331C139.289 82.7271 140.51 85.9323 146.1 87.0854C149.193 87.7233 150.563 84.6335 151.332 81.4395C151.373 81.2726 151.401 81.1067 151.427 80.9411C153.067 80.9062 154.712 80.7429 156.346 80.4528C156.379 80.6127 156.414 80.7724 156.46 80.9306C157.351 83.9599 162.527 86.5051 165.608 85.364C168.689 84.2228 168.507 79.8278 167.617 76.7985C167.571 76.6434 167.515 76.4949 167.458 76.3476C168.913 75.4971 170.32 74.5285 171.67 73.4474C171.777 73.5621 171.888 73.6755 172.007 73.7817C174.319 75.8347 177.995 75.4698 180.217 72.9671C182.44 70.4644 182.368 66.7711 180.057 64.7183C179.937 64.6119 179.812 64.516 179.685 64.4226C180.599 62.9549 181.395 61.4426 182.068 59.8978C182.221 59.9373 182.375 59.9748 182.534 60.0019Z" fill="#22604B"/>
<path d="M174.79 74.8598C177.101 76.9127 180.777 76.5479 183 74.0451C185.223 71.5423 185.151 67.8492 182.839 65.7963C182.719 65.6899 182.594 65.594 182.467 65.5005C183.382 64.0329 184.177 62.5208 184.85 60.9756C185.003 61.0153 185.157 61.053 185.316 61.0799C188.43 61.6063 191.577 59.4439 192.346 56.2499C193.116 53.0559 191.216 50.0399 188.102 49.5135C187.94 49.4861 187.777 49.4701 187.614 49.457C187.709 47.7991 187.677 46.1469 187.518 44.5143C187.68 44.4691 187.841 44.421 188.002 44.3614C191.083 43.2203 192.858 39.8396 191.968 36.8103C191.078 33.7811 187.859 32.2504 184.778 33.3915C184.62 33.45 184.468 33.518 184.317 33.5879C183.587 32.182 182.736 30.8333 181.768 29.5523C181.89 29.4342 182.012 29.3137 182.127 29.1841C184.35 26.6813 184.278 22.9881 181.967 20.9353C179.655 18.8824 175.979 19.2472 173.757 21.75C173.641 21.8797 173.536 22.0144 173.433 22.1501C172.047 21.3404 170.607 20.6542 169.125 20.0953C169.177 19.9373 169.226 19.7784 169.266 19.6147C170.035 16.4208 168.135 13.4049 165.022 12.8785C161.908 12.3521 158.761 14.5145 157.992 17.7084C157.952 17.8753 157.923 18.0413 157.897 18.2069C156.257 18.2419 154.613 18.405 152.978 18.6953C152.946 18.5354 152.91 18.3757 152.864 18.2173C151.974 15.188 148.754 13.6574 145.674 14.7985C142.593 15.9397 140.817 19.3203 141.708 22.3495C141.753 22.5047 141.809 22.6533 141.866 22.8004C140.411 23.6509 139.004 24.6196 137.654 25.7008C137.547 25.586 137.437 25.4726 137.317 25.3663C135.005 23.3134 131.33 23.6782 129.107 26.181C126.884 28.6838 126.956 32.3771 129.267 34.4299C129.387 34.5363 129.513 34.6321 129.639 34.7256C128.725 36.1933 127.929 37.7054 127.257 39.2505C127.104 39.2109 126.95 39.1732 126.79 39.1461C123.677 38.6199 120.53 40.7822 119.76 43.9762C118.991 47.1701 120.891 50.186 124.004 50.7125C124.167 50.74 124.33 50.756 124.492 50.7689C124.397 52.4267 124.429 54.079 124.588 55.7117C124.427 55.7568 124.265 55.8048 124.104 55.8647C121.024 57.0056 119.248 60.3864 120.138 63.4156C121.029 66.4449 124.248 67.9755 127.329 66.8346C127.487 66.776 127.639 66.708 127.789 66.6381C128.519 68.0441 129.371 69.3929 130.339 70.6738C130.216 70.7919 130.095 70.9123 129.98 71.0421C127.757 73.5448 127.829 77.2379 130.14 79.2908C132.452 81.3436 136.127 80.9789 138.35 78.476C138.465 78.3464 138.57 78.2116 138.673 78.076C140.06 78.8857 141.499 79.5719 142.982 80.1308C142.93 80.2889 142.88 80.4477 142.841 80.6115C142.072 83.8053 143.972 86.8214 147.085 87.3477C150.198 87.8742 153.346 85.7117 154.115 82.5179C154.155 82.3509 154.184 82.185 154.21 82.0193C155.85 81.9844 157.494 81.8213 159.129 81.5311C159.161 81.691 159.196 81.8507 159.243 82.0089C160.133 85.0382 163.352 86.569 166.433 85.4278C169.514 84.2867 171.289 80.9061 170.399 77.8768C170.354 77.7217 170.298 77.5732 170.24 77.426C171.695 76.5755 173.103 75.6069 174.452 74.5257C174.56 74.6401 174.67 74.7534 174.79 74.8598ZM141.44 66.5668C133.048 59.1133 132.787 45.7045 140.858 36.6173C148.928 27.5302 162.274 26.2058 170.666 33.6593C179.059 41.1128 179.319 54.5216 171.249 63.6088C163.178 72.696 149.832 74.0203 141.44 66.5668Z" fill="#E596B2"/>
<path d="M281.974 256.924L11.0171 254.582V261.512C11.0171 263.393 12.1988 264.992 13.7995 265.277L90.418 278.924C91.3273 279.086 92.2494 279.129 93.167 279.052L279.03 263.493C280.689 263.354 281.974 261.75 281.974 259.817L281.974 256.924Z" fill="#BFC8D6"/>
<path d="M182.261 245.819L10.0463 258.497C6.96463 258.723 4.45898 256.313 4.45898 253.112V124.868C4.45898 121.667 6.96463 119.073 10.0463 119.073L16.1388 122.584L182.261 119.073C184.8 119.073 186.853 121.418 186.853 124.312V240.242C186.853 243.135 184.8 245.632 182.261 245.819Z" fill="#BFC8D6"/>
<path d="M185.007 245.819L12.7919 258.497C9.71014 258.723 7.20459 256.313 7.20459 253.112V124.868C7.20459 121.667 9.71014 119.073 12.7919 119.073H185.007C187.546 119.073 189.599 121.418 189.599 124.312V240.242C189.599 243.135 187.546 245.632 185.007 245.819Z" fill="white"/>
<path d="M179.642 237.645L19.242 248.658C16.7342 248.83 14.6963 246.851 14.6963 244.238V131.961C14.6963 129.347 16.7342 127.22 19.242 127.209L179.642 126.518C181.737 126.509 183.431 128.431 183.431 130.811V233.076C183.431 235.456 181.737 237.502 179.642 237.645Z" fill="#D8DEE8"/>
<path d="M76.1296 137.747L32.8413 137.86L32.835 133.733L76.1235 133.747L76.1296 137.747Z" fill="white"/>
<path d="M96.5141 136.553L86.5142 136.57L86.5098 133.75L96.5098 133.754L96.5141 136.553Z" fill="white"/>
<path d="M96.5195 140.442L86.5195 140.488L86.5151 137.668L96.5151 137.643L96.5195 140.442Z" fill="white"/>
<path d="M146.353 140.21L107.558 140.39L107.554 137.614L146.349 137.515L146.353 140.21Z" fill="white"/>
<path d="M152.721 143.906L114.311 144.196L114.307 141.434L152.717 141.224L152.721 143.906Z" fill="white"/>
<path d="M152.727 147.633L114.318 148.034L114.313 145.272L152.723 144.951L152.727 147.633Z" fill="white"/>
<path d="M152.732 151.359L114.323 151.871L114.319 149.109L152.728 148.677L152.732 151.359Z" fill="white"/>
<path d="M96.5252 144.33L86.5254 144.406L86.521 141.586L96.5209 141.531L96.5252 144.33Z" fill="white"/>
<path d="M96.5321 148.219L86.5322 148.323L86.5278 145.503L96.5278 145.42L96.5321 148.219Z" fill="white"/>
<path d="M96.5378 152.108L86.5381 152.241L86.5337 149.421L96.5335 149.309L96.5378 152.108Z" fill="white"/>
<path d="M96.5437 155.997L86.544 156.159L86.5396 153.339L96.5394 153.198L96.5437 155.997Z" fill="white"/>
<path d="M123.339 155.563L98.7255 155.962L98.7212 153.167L123.335 152.819L123.339 155.563Z" fill="white"/>
<path d="M96.5499 159.886L86.5503 160.077L86.5459 157.257L96.5456 157.087L96.5499 159.886Z" fill="white"/>
<path d="M96.5558 163.775L86.5562 163.995L86.5518 161.175L96.5515 160.976L96.5558 163.775Z" fill="white"/>
<path d="M96.5617 167.663L86.562 167.912L86.5576 165.092L96.5574 164.864L96.5617 167.663Z" fill="white"/>
<path d="M134.877 159.153L107.588 159.675L107.583 156.899L134.873 156.434L134.877 159.153Z" fill="white"/>
<path d="M149.061 162.62L114.341 163.384L114.337 160.622L149.057 159.93L149.061 162.62Z" fill="white"/>
<path d="M149.068 166.356L114.348 167.22L114.344 164.459L149.063 163.667L149.068 166.356Z" fill="white"/>
<path d="M96.5674 171.552L86.5679 171.83L86.5635 169.01L96.5631 168.753L96.5674 171.552Z" fill="white"/>
<path d="M96.5733 175.442L86.5737 175.748L86.5693 172.928L96.569 172.643L96.5733 175.442Z" fill="white"/>
<path d="M96.58 179.33L86.5806 179.666L86.5762 176.846L96.5757 176.531L96.58 179.33Z" fill="white"/>
<path d="M96.5864 183.219L86.5869 183.584L86.5825 180.764L96.582 180.42L96.5864 183.219Z" fill="white"/>
<path d="M96.5916 187.108L86.5923 187.501L86.5879 184.681L96.5873 184.309L96.5916 187.108Z" fill="white"/>
<path d="M96.598 190.997L86.5987 191.419L86.5942 188.599L96.5937 188.198L96.598 190.997Z" fill="white"/>
<path d="M96.6038 194.886L86.6045 195.337L86.6001 192.517L96.5994 192.087L96.6038 194.886Z" fill="white"/>
<path d="M96.6106 198.775L86.6113 199.255L86.6069 196.435L96.6063 195.976L96.6106 198.775Z" fill="white"/>
<path d="M96.6164 202.663L86.6172 203.172L86.6128 200.353L96.6121 199.864L96.6164 202.663Z" fill="white"/>
<path d="M96.6222 206.552L86.6231 207.09L86.6187 204.27L96.6179 203.753L96.6222 206.552Z" fill="white"/>
<path d="M96.6276 210.441L86.6284 211.008L86.624 208.188L96.6233 207.642L96.6276 210.441Z" fill="white"/>
<path d="M96.6343 214.33L86.6353 214.926L86.6309 212.106L96.63 211.531L96.6343 214.33Z" fill="white"/>
<path d="M96.6401 218.218L86.6411 218.843L86.6367 216.023L96.6358 215.419L96.6401 218.218Z" fill="white"/>
<path d="M96.646 222.108L86.647 222.762L86.6426 219.942L96.6416 219.309L96.646 222.108Z" fill="white"/>
<path d="M96.6518 225.996L86.6529 226.679L86.6484 223.859L96.6475 223.197L96.6518 225.996Z" fill="white"/>
<path d="M96.6581 229.885L86.6592 230.597L86.6548 227.777L96.6538 227.086L96.6581 229.885Z" fill="white"/>
<path d="M96.6639 233.774L86.6651 234.515L86.6606 231.695L96.6596 230.975L96.6639 233.774Z" fill="white"/>
<path d="M96.6697 237.663L86.6709 238.432L86.6665 235.612L96.6654 234.864L96.6697 237.663Z" fill="white"/>
<path d="M125.9 136.501L98.6274 136.549L98.623 133.754L125.896 133.763L125.9 136.501Z" fill="white"/>
<path d="M146.47 215.106L107.678 217.529L107.673 214.753L146.465 212.411L146.47 215.106Z" fill="white"/>
<path d="M152.836 218.435L114.43 220.945L114.426 218.183L152.832 215.753L152.836 218.435Z" fill="white"/>
<path d="M152.842 222.161L114.436 224.783L114.432 222.021L152.838 219.479L152.842 222.161Z" fill="white"/>
<path d="M169.398 224.71L131.987 227.372L131.982 224.646L169.394 222.062L169.398 224.71Z" fill="white"/>
<path d="M169.403 228.389L131.992 231.159L131.988 228.433L169.399 225.741L169.403 228.389Z" fill="white"/>
<path d="M169.409 232.067L131.998 234.945L131.994 232.22L169.405 229.419L169.409 232.067Z" fill="white"/>
<path d="M126.018 212.579L98.748 214.204L98.7437 211.409L126.014 209.841L126.018 212.579Z" fill="white"/>
<path d="M146.406 173.913L107.612 175.103L107.607 172.327L146.401 171.218L146.406 173.913Z" fill="white"/>
<path d="M152.773 177.444L114.365 178.733L114.361 175.971L152.769 174.762L152.773 177.444Z" fill="white"/>
<path d="M152.779 181.171L114.371 182.571L114.367 179.809L152.775 178.489L152.779 181.171Z" fill="white"/>
<path d="M152.784 184.897L114.377 186.408L114.373 183.646L152.78 182.215L152.784 184.897Z" fill="white"/>
<path d="M123.393 189.865L98.7797 190.904L98.7754 188.11L123.388 187.122L123.393 189.865Z" fill="white"/>
<path d="M134.931 193.156L107.642 194.387L107.638 191.611L134.926 190.437L134.931 193.156Z" fill="white"/>
<path d="M149.113 196.253L114.394 197.92L114.39 195.159L149.109 193.564L149.113 196.253Z" fill="white"/>
<path d="M149.119 199.99L114.401 201.758L114.397 198.996L149.115 197.301L149.119 199.99Z" fill="white"/>
<path d="M156.821 203.313L122.521 205.158L122.517 202.413L156.817 200.639L156.821 203.313Z" fill="white"/>
<path d="M156.827 207.028L122.527 208.973L122.522 206.228L156.823 204.354L156.827 207.028Z" fill="white"/>
<path d="M125.954 170.736L98.682 171.494L98.6777 168.699L125.949 167.999L125.954 170.736Z" fill="white"/>
<path d="M76.1393 143.998L51.3622 144.176L51.356 140.103L76.1332 139.998L76.1393 143.998Z" fill="white"/>
<path d="M44.9531 144.222L49.6197 144.189L49.6135 140.111L44.9468 140.13L44.9531 144.222Z" fill="white"/>
<path d="M76.1474 149.749L51.3705 150.031L51.3643 145.958L76.1413 145.748L76.1474 149.749Z" fill="white"/>
<path d="M44.9624 150.104L49.6289 150.051L49.6227 145.973L44.9561 146.012L44.9624 150.104Z" fill="white"/>
<path d="M76.1566 155.499L51.3798 155.886L51.3735 151.813L76.1504 151.499L76.1566 155.499Z" fill="white"/>
<path d="M44.9716 155.986L49.6382 155.913L49.6318 151.835L44.9653 151.894L44.9716 155.986Z" fill="white"/>
<path d="M76.2205 196.319L32.9351 198.288L32.9287 194.161L76.2143 192.318L76.2205 196.319Z" fill="white"/>
<path d="M76.229 202.57L51.4535 203.81L51.4473 199.737L76.2228 198.569L76.229 202.57Z" fill="white"/>
<path d="M45.0463 204.131L49.7126 203.897L49.7063 199.819L45.04 200.039L45.0463 204.131Z" fill="white"/>
<path d="M76.2392 208.32L51.4638 209.665L51.4575 205.592L76.2329 204.32L76.2392 208.32Z" fill="white"/>
<path d="M45.0547 210.013L49.721 209.76L49.7146 205.682L45.0483 205.921L45.0547 210.013Z" fill="white"/>
<path d="M76.2482 214.071L51.4731 215.52L51.4668 211.447L76.2421 210.071L76.2482 214.071Z" fill="white"/>
<path d="M45.0644 215.896L49.7307 215.623L49.7243 211.544L45.0581 211.804L45.0644 215.896Z" fill="white"/>
<path d="M76.165 161.289L32.8779 162.148L32.8716 158.021L76.1588 157.289L76.165 161.289Z" fill="white"/>
<path d="M76.1763 167.54L51.3999 168.145L51.3936 164.072L76.1702 163.54L76.1763 167.54Z" fill="white"/>
<path d="M44.9907 168.301L49.6572 168.187L49.6509 164.109L44.9844 164.209L44.9907 168.301Z" fill="white"/>
<path d="M76.1844 173.29L51.4081 173.999L51.4019 169.926L76.1783 169.29L76.1844 173.29Z" fill="white"/>
<path d="M45.0004 174.183L49.6669 174.049L49.6605 169.971L44.9941 170.091L45.0004 174.183Z" fill="white"/>
<path d="M76.2022 184.866L51.4263 185.786L51.4199 181.713L76.196 180.866L76.2022 184.866Z" fill="white"/>
<path d="M45.018 186.024L49.6845 185.85L49.6781 181.772L45.0117 181.932L45.018 186.024Z" fill="white"/>
<path d="M76.2113 190.617L51.4356 191.641L51.4292 187.568L76.2052 186.616L76.2113 190.617Z" fill="white"/>
<path d="M45.0273 191.906L49.6937 191.713L49.6873 187.635L45.021 187.814L45.0273 191.906Z" fill="white"/>
<path d="M76.1936 179.041L51.4174 179.855L51.4111 175.782L76.1873 175.041L76.1936 179.041Z" fill="white"/>
<path d="M45.0088 180.065L49.6752 179.912L49.6689 175.834L45.0024 175.974L45.0088 180.065Z" fill="white"/>
<path d="M76.256 219.819L32.9717 222.534L32.9653 218.407L76.2498 215.819L76.256 219.819Z" fill="white"/>
<path d="M76.266 226.07L51.4911 227.737L51.4849 223.665L76.2598 222.07L76.266 226.07Z" fill="white"/>
<path d="M45.0834 228.169L49.7496 227.855L49.7433 223.777L45.0771 224.077L45.0834 228.169Z" fill="white"/>
<path d="M76.2751 231.821L51.5004 233.593L51.4941 229.52L76.2689 227.821L76.2751 231.821Z" fill="white"/>
<path d="M45.0928 234.051L49.759 233.717L49.7526 229.639L45.0864 229.959L45.0928 234.051Z" fill="white"/>
<path d="M76.2833 237.571L51.5088 239.447L51.5024 235.374L76.2771 233.571L76.2833 237.571Z" fill="white"/>
<path d="M45.101 239.932L49.7672 239.579L49.7608 235.501L45.0947 235.84L45.101 239.932Z" fill="white"/>
<path d="M81.5435 237.194L80.5902 237.266L80.4302 133.749L81.3836 133.749L81.5435 237.194Z" fill="white"/>
<path d="M104.982 122.58C104.982 123.772 104.095 124.741 103.001 124.744C101.905 124.748 101.016 123.782 101.016 122.588C101.016 121.394 101.905 120.425 103.001 120.424C104.096 120.423 104.982 121.389 104.982 122.58Z" fill="white"/>
<path opacity="0.48" d="M12.7913 258.497L184.135 245.883L185.007 245.819C186.172 245.733 187.231 245.158 188.04 244.284C175.71 243.609 168.052 239.234 163.111 234.713C153.19 225.633 154.911 216.679 144.212 210.709C130.868 203.263 120.376 212.698 110.25 203.389C104.111 197.745 107.125 193.537 99.5706 185.103C91.2041 175.761 85.757 178.901 77.3486 170.494C66.7171 159.864 72.0343 151.593 62.8765 143.961C51.7667 134.702 39.7853 143.272 29.2095 134.392C24.6481 130.562 22.1452 124.994 20.8384 119.073H12.792C9.71024 119.073 7.20459 121.667 7.20459 124.868V253.112C7.20459 256.313 9.70974 258.723 12.7913 258.497Z" fill="white"/>
<path d="M193.122 245.116L11.0171 258.46L90.418 272.602C91.3273 272.764 92.2494 272.807 93.167 272.73L281.974 256.924L196.018 245.207C195.057 245.075 194.087 245.045 193.122 245.116Z" fill="url(#paint0_linear_26_8580)"/>
<path d="M37.5894 258.575L189.197 247.3L236.118 253.645L85.8165 265.697L37.5894 258.575Z" fill="#D8DEE8"/>
<path d="M106.418 188.043C107.802 189.096 109.777 188.827 110.83 187.442L111.173 186.991C112.225 185.606 111.956 183.631 110.572 182.579L59.8953 144.054C58.5109 143.001 56.5356 143.27 55.4832 144.655L55.1398 145.106C54.0874 146.491 54.3565 148.466 55.7408 149.518L106.418 188.043Z" fill="url(#paint1_linear_26_8580)"/>
<path d="M100.17 195.505C101.555 196.558 103.53 196.289 104.583 194.904L116.598 179.099C117.65 177.714 117.381 175.739 115.997 174.687L113.724 172.958C112.339 171.906 110.364 172.175 109.312 173.559L97.296 189.365C96.2437 190.749 96.5127 192.725 97.8971 193.777L100.17 195.505Z" fill="#A73A60"/>
<path d="M100.841 200.532L150.136 238.007C151.308 238.898 152.701 239.307 154.069 239.28C155.928 239.246 157.761 238.382 158.973 236.789L171.517 220.287C173.621 217.519 173.083 213.567 170.315 211.463L121.02 173.988C118.998 172.451 116.336 172.32 114.235 173.445C113.458 173.856 112.751 174.436 112.184 175.182L99.6395 191.683C97.5355 194.451 98.0734 198.428 100.841 200.532Z" fill="#E696B3"/>
<g opacity="0.5">
<path d="M160.399 218.707C161.405 219.472 162.841 219.276 163.606 218.27C164.371 217.264 164.175 215.829 163.169 215.064L122.312 184.004C121.306 183.24 119.871 183.435 119.106 184.441C118.341 185.447 118.537 186.883 119.543 187.648L160.399 218.707Z" fill="#A73A60"/>
<path d="M151.694 230.158C152.7 230.923 154.136 230.727 154.901 229.721C155.665 228.715 155.47 227.279 154.464 226.514L113.607 195.455C112.601 194.69 111.166 194.886 110.401 195.892C109.636 196.898 109.832 198.333 110.838 199.098L151.694 230.158Z" fill="#A73A60"/>
</g>
<path d="M47.2241 148.513L37.6171 137.546C37.1884 137.057 37.1689 136.338 37.5624 135.82L39.0881 133.813L40.3585 132.142L41.9051 130.107C42.2988 129.589 42.9969 129.416 43.5831 129.698L56.7233 136.023C57.1316 136.22 57.4652 136.541 57.6779 136.941L59.4299 140.295C60.0121 141.391 59.8539 142.687 59.103 143.675L57.7941 145.396L56.5238 147.067L55.2358 148.762C54.4849 149.749 53.2778 150.248 52.0664 149.98L48.3405 149.17C47.8978 149.072 47.5228 148.854 47.2241 148.513Z" fill="url(#paint2_linear_26_8580)"/>
<path opacity="0.3" d="M154.076 239.272C155.934 239.238 157.761 238.382 158.973 236.788L171.517 220.287C173.621 217.519 173.083 213.567 170.315 211.463L121.02 173.988C118.998 172.451 116.342 172.324 114.241 173.449C118.022 175.378 123.658 178.018 125.585 182.073C127.423 185.942 132.758 192.799 140.403 195.315C148.048 197.831 162.327 206.58 163.804 214.608C165.283 222.634 166.239 228.852 154.076 239.272Z" fill="#A73A60"/>
<path d="M138.682 152.475L118.199 147.042L112.662 126.587L134.186 107.249C135.487 105.94 133.158 102.875 131.314 102.8C122.323 102.434 113.21 105.79 106.483 112.863C94.3709 125.6 94.6745 145.816 107.148 158.199C119.843 170.803 140.351 170.743 152.972 158.059C159.642 151.354 163.908 143.437 163.509 134.68C163.425 132.834 160.058 130.991 158.754 132.302L138.682 152.475Z" fill="url(#paint3_linear_26_8580)"/>
<path d="M107.16 146.588L32.5117 216.42C27.7218 221.01 27.6502 228.644 32.3531 233.323C37.0547 238.001 44.6851 237.892 49.2516 233.083L118.754 158.123L107.16 146.588Z" fill="url(#paint4_linear_26_8580)"/>
<path d="M139.862 153.795L119.379 148.362L113.842 127.906L133.914 107.733C135.216 106.424 134.338 104.195 132.494 104.12C123.503 103.754 114.39 107.109 107.663 114.183C95.5511 126.92 95.8547 147.135 108.328 159.519C121.023 172.123 141.531 172.063 154.152 159.378C160.822 152.674 163.953 143.785 163.554 135.028C163.47 133.182 161.238 132.311 159.934 133.621L139.862 153.795Z" fill="#567CC4"/>
<path d="M108.341 147.908L33.6923 217.74C28.9025 222.331 28.8308 229.964 33.5338 234.643C38.2354 239.321 45.8657 239.213 50.4323 234.403L119.935 159.443L108.341 147.908Z" fill="#567CC4"/>
<path opacity="0.4" d="M112.02 155.76C113.897 157.628 113.905 160.664 112.037 162.542C110.169 164.419 107.133 164.427 105.255 162.559C103.377 160.691 103.37 157.654 105.238 155.777C107.106 153.899 110.142 153.892 112.02 155.76Z" fill="#06203D"/>
<path opacity="0.4" d="M105.884 165.948L45.4776 226.661C44.3726 227.771 42.5765 227.776 41.4658 226.671C40.3552 225.566 40.3507 223.77 41.4557 222.659L101.862 161.947L105.884 165.948Z" fill="#0F4178"/>
<defs>
<linearGradient id="paint0_linear_26_8580" x1="11.017" y1="258.923" x2="281.974" y2="258.923" gradientUnits="userSpaceOnUse">
<stop offset="0.494" stop-color="#EBEFF2"/>
<stop offset="1" stop-color="white"/>
</linearGradient>
<linearGradient id="paint1_linear_26_8580" x1="109.297" y1="189.187" x2="57.0154" y2="142.91" gradientUnits="userSpaceOnUse">
<stop stop-color="#40447E"/>
<stop offset="0.9964" stop-color="#3C3B6B"/>
</linearGradient>
<linearGradient id="paint2_linear_26_8580" x1="57.0536" y1="146.723" x2="40.3107" y2="131.903" gradientUnits="userSpaceOnUse">
<stop stop-color="#40447E"/>
<stop offset="0.9964" stop-color="#3C3B6B"/>
</linearGradient>
<linearGradient id="paint3_linear_26_8580" x1="118.601" y1="119.101" x2="188.525" y2="236.721" gradientUnits="userSpaceOnUse">
<stop stop-color="#40447E"/>
<stop offset="0.9964" stop-color="#3C3B6B"/>
</linearGradient>
<linearGradient id="paint4_linear_26_8580" x1="52.9761" y1="158.112" x2="122.919" y2="275.764" gradientUnits="userSpaceOnUse">
<stop stop-color="#40447E"/>
<stop offset="0.9964" stop-color="#3C3B6B"/>
</linearGradient>
</defs>
</svg>
