<svg width="323" height="281" viewBox="0 0 323 281" fill="none" xmlns="http://www.w3.org/2000/svg">
<g clip-path="url(#clip0_2001_195)">
<path d="M323 246.264H1V246.425H323V246.264Z" fill="#EBEBEB"/>
<path d="M290.736 256.63H269.405V256.791H290.736V256.63Z" fill="#EBEBEB"/>
<path d="M214.305 258.378H208.707V258.539H214.305V258.378Z" fill="#EBEBEB"/>
<path d="M268.761 250.65H256.401V250.811H268.761V250.65Z" fill="#EBEBEB"/>
<path d="M62.5995 251.732H34.7832V251.893H62.5995V251.732Z" fill="#EBEBEB"/>
<path d="M72.4124 251.732H68.334V251.893H72.4124V251.732Z" fill="#EBEBEB"/>
<path d="M145.994 254.451H85.667V254.612H145.994V254.451Z" fill="#EBEBEB"/>
<path d="M153.637 217.543H29.2814C27.2548 217.543 25.6055 215.894 25.6055 213.867V39.065C25.6055 37.0383 27.2548 35.389 29.2814 35.389H153.637C155.663 35.389 157.312 37.0383 157.312 39.065V213.867C157.312 215.894 155.663 217.543 153.637 217.543ZM29.2814 35.5507C27.343 35.5507 25.7665 37.1272 25.7665 39.0656V213.868C25.7665 215.806 27.343 217.383 29.2814 217.383H153.637C155.575 217.383 157.151 215.806 157.151 213.868V39.065C157.151 37.1272 155.575 35.55 153.637 35.55L29.2814 35.5507Z" fill="#EBEBEB"/>
<path d="M292.932 217.543H168.577C166.55 217.543 164.901 215.894 164.901 213.867V39.065C164.901 37.0383 166.551 35.389 168.577 35.389H292.932C294.959 35.389 296.608 37.0383 296.608 39.065V213.867C296.608 215.894 294.959 217.543 292.932 217.543ZM168.577 35.5507C166.639 35.5507 165.062 37.1272 165.062 39.0656V213.868C165.062 215.806 166.639 217.383 168.577 217.383H292.932C294.87 217.383 296.447 215.806 296.447 213.868V39.065C296.447 37.1272 294.87 35.55 292.932 35.55L168.577 35.5507Z" fill="#EBEBEB"/>
<path d="M194.531 171.918H43.7221C40.2895 171.918 37.662 169.109 37.8842 165.677L46.4088 33.6464C46.6304 30.2139 49.6205 27.4054 53.053 27.4054H203.862C207.294 27.4054 209.921 30.2139 209.7 33.6464L201.175 165.676C200.953 169.109 197.963 171.918 194.531 171.918Z" fill="#EBEBEB"/>
<path d="M40.5357 164.881L48.5548 40.6834C48.7132 38.233 50.8275 36.2469 53.2779 36.2469H202.495C204.946 36.2469 206.804 38.233 206.645 40.6834L198.626 164.881C198.468 167.332 196.353 169.318 193.903 169.318H44.6857C42.2359 169.317 40.3779 167.331 40.5357 164.881Z" fill="#FAFAFA"/>
<path d="M107.795 118.93H61.8164L66.6335 40.9429H112.613L107.795 118.93Z" fill="#F5F5F5"/>
<path d="M175.515 97.1403H143.183L146.571 42.2998H178.903L175.515 97.1403Z" fill="#F5F5F5"/>
<path d="M203.862 27.4054H53.0533C49.6208 27.4054 46.6307 30.2139 46.4092 33.6464H209.7C209.921 30.2139 207.295 27.4054 203.862 27.4054Z" fill="#F5F5F5"/>
<path d="M56.7351 30.5256C56.681 31.3615 55.9597 32.039 55.1238 32.039C54.2879 32.039 53.6542 31.3615 53.7083 30.5256C53.7624 29.6897 54.4837 29.0122 55.3196 29.0122C56.1555 29.0122 56.7885 29.6897 56.7351 30.5256Z" fill="white"/>
<path d="M64.1062 30.5256C64.0521 31.3615 63.3308 32.039 62.4949 32.039C61.659 32.039 61.0253 31.3615 61.0794 30.5256C61.1335 29.6897 61.8548 29.0122 62.6907 29.0122C63.5259 29.0122 64.1603 29.6897 64.1062 30.5256Z" fill="white"/>
<path d="M71.4783 30.5256C71.4242 31.3615 70.7029 32.039 69.867 32.039C69.0311 32.039 68.3974 31.3615 68.4515 30.5256C68.5056 29.6897 69.2268 29.0122 70.0628 29.0122C70.898 29.0122 71.5324 29.6897 71.4783 30.5256Z" fill="white"/>
<path d="M271.242 231.983H84.5029C80.2525 231.983 76.9996 228.505 77.274 224.255L87.8298 60.7691C88.1041 56.5187 91.8065 53.0411 96.0569 53.0411H282.795C287.045 53.0411 290.298 56.5187 290.024 60.7691L279.468 224.255C279.194 228.505 275.491 231.983 271.242 231.983Z" fill="#F5F5F5"/>
<path d="M80.5576 223.27L90.4874 69.4831C90.6832 66.4492 93.3017 63.9897 96.3356 63.9897H281.104C284.138 63.9897 286.439 66.4492 286.242 69.4831L276.312 223.27C276.117 226.304 273.498 228.764 270.464 228.764H85.6961C82.6622 228.764 80.3612 226.304 80.5576 223.27Z" fill="white"/>
<path d="M194.4 169.671H137.466L143.431 73.1043H200.365L194.4 169.671Z" fill="#F5F5F5"/>
<path d="M242.579 203.624H202.543L206.738 135.718H246.774L242.579 203.624Z" fill="#F5F5F5"/>
<path d="M282.795 53.0411H96.0572C91.8068 53.0411 88.1044 56.5187 87.8301 60.7691H290.024C290.299 56.5187 287.046 53.0411 282.795 53.0411Z" fill="#EBEBEB"/>
<path d="M100.616 56.9051C100.549 57.94 99.6561 58.7791 98.6212 58.7791C97.5863 58.7791 96.8013 57.94 96.8682 56.9051C96.9352 55.8702 97.8284 55.0311 98.8634 55.0311C99.8983 55.0311 100.683 55.8702 100.616 56.9051Z" fill="white"/>
<path d="M109.744 56.9051C109.677 57.94 108.784 58.7791 107.749 58.7791C106.714 58.7791 105.929 57.94 105.996 56.9051C106.063 55.8702 106.956 55.0311 107.991 55.0311C109.026 55.0311 109.811 55.8702 109.744 56.9051Z" fill="white"/>
<path d="M118.871 56.9051C118.804 57.94 117.911 58.7791 116.876 58.7791C115.841 58.7791 115.056 57.94 115.123 56.9051C115.19 55.8702 116.083 55.0311 117.118 55.0311C118.153 55.0311 118.938 55.8702 118.871 56.9051Z" fill="white"/>
<path d="M162 275.349C230.961 275.349 286.865 272.085 286.865 268.057C286.865 264.03 230.961 260.765 162 260.765C93.0395 260.765 37.1357 264.03 37.1357 268.057C37.1357 272.085 93.0395 275.349 162 275.349Z" fill="#F5F5F5"/>
<path d="M275.225 123.369H239.208L242.982 62.2786H278.999L275.225 123.369Z" fill="#359976"/>
<path opacity="0.7" d="M275.225 123.369H239.208L242.982 62.2786H278.999L275.225 123.369Z" fill="white"/>
<path opacity="0.3" d="M266.12 105.297H250.546L250.713 102.583H266.287L266.12 105.297Z" fill="#359976"/>
<path opacity="0.3" d="M265.846 109.724H250.272L250.44 107.01H266.014L265.846 109.724Z" fill="#359976"/>
<path d="M267.287 95.7C272.056 91.0756 272.398 83.6923 268.05 79.2088C263.703 74.7254 256.313 74.8396 251.544 79.464C246.774 84.0883 246.432 91.4717 250.78 95.9551C255.127 100.439 262.517 100.324 267.287 95.7Z" fill="#359976"/>
<path d="M265.103 93.4533C268.547 90.1146 268.793 84.7841 265.655 81.5472C262.516 78.3103 257.181 78.3928 253.737 81.7314C250.294 85.0701 250.047 90.4006 253.186 93.6375C256.324 96.8744 261.66 96.792 265.103 93.4533Z" fill="white"/>
<path d="M158.335 111.055H122.318L126.092 49.9647H162.109L158.335 111.055Z" fill="#359976"/>
<path opacity="0.7" d="M158.335 111.055H122.318L126.092 49.9647H162.109L158.335 111.055Z" fill="white"/>
<path d="M156.697 79.7111H127.83L129.372 54.7387H158.24L156.697 79.7111Z" fill="white"/>
<path d="M156.45 83.7033H127.583L127.729 81.343H156.596L156.45 83.7033Z" fill="white"/>
<path d="M141.743 88.1308H127.31L127.455 85.7705H141.889L141.743 88.1308Z" fill="white"/>
<path opacity="0.3" d="M155.061 106.196H126.193L127.182 90.198H156.049L155.061 106.196Z" fill="#359976"/>
<path d="M148.142 67.2252L139.785 62.222L139.167 72.2278L148.142 67.2252Z" fill="#359976"/>
<path d="M219.108 135.005H183.091L186.865 73.9144H222.882L219.108 135.005Z" fill="#359976"/>
<path opacity="0.7" d="M219.108 135.005H183.091L186.865 73.9144H222.882L219.108 135.005Z" fill="white"/>
<path opacity="0.3" d="M211.048 81.4788H189.973L190.056 80.1316H211.131L211.048 81.4788Z" fill="#359976"/>
<path opacity="0.3" d="M218.653 84.4999H189.786L189.869 83.1533H218.737L218.653 84.4999Z" fill="#359976"/>
<path opacity="0.3" d="M218.467 87.5208H189.6L189.683 86.1742H218.55L218.467 87.5208Z" fill="#359976"/>
<path d="M217.969 95.5741H189.103L189.41 90.6018H218.276L217.969 95.5741Z" fill="white"/>
<path d="M217.544 102.454H188.677L188.984 97.4816H217.851L217.544 102.454Z" fill="white"/>
<path opacity="0.3" d="M217.128 109.197H188.261L188.568 104.225H217.435L217.128 109.197Z" fill="#359976"/>
<path d="M216.711 115.941H187.844L188.151 110.968H217.018L216.711 115.941Z" fill="white"/>
<path d="M207.269 129.173H195.652C193.59 129.173 192.008 127.487 192.135 125.425C192.263 123.363 194.054 121.676 196.116 121.676H207.733C209.795 121.676 211.377 123.363 211.25 125.425C211.122 127.487 209.331 129.173 207.269 129.173Z" fill="#359976"/>
<path d="M153.415 190.708H117.397L121.171 129.617H157.189L153.415 190.708Z" fill="#359976"/>
<path opacity="0.7" d="M153.415 190.708H117.397L121.171 129.617H157.189L153.415 190.708Z" fill="white"/>
<path d="M136.872 145.488H123.792L124.589 132.575H137.67L136.872 145.488Z" fill="white"/>
<path opacity="0.3" d="M150.094 186.59H121.253L121.686 179.574H150.528L150.094 186.59Z" fill="#359976"/>
<path d="M152.608 145.488H139.528L140.326 132.575H153.406L152.608 145.488Z" fill="white"/>
<path d="M135.91 161.057H122.83L123.628 148.144H136.708L135.91 161.057Z" fill="white"/>
<path d="M151.646 161.057H138.566L139.364 148.144H152.444L151.646 161.057Z" fill="#359976"/>
<path opacity="0.3" d="M134.948 176.625H121.868L122.666 163.713H135.746L134.948 176.625Z" fill="#359976"/>
<path d="M150.685 176.625H137.604L138.402 163.713H151.482L150.685 176.625Z" fill="white"/>
<path d="M269.873 210.006H233.856L237.63 148.916H273.647L269.873 210.006Z" fill="#359976"/>
<path opacity="0.7" d="M269.873 210.006H233.856L237.63 148.916H273.647L269.873 210.006Z" fill="white"/>
<path d="M266.726 198.317H238.448L241.086 155.607H269.364L266.726 198.317Z" fill="white"/>
<path d="M269.454 154.165H241.175L241.086 155.607H269.364L269.454 154.165Z" fill="#359976"/>
<path d="M242.999 203.136C242.916 204.475 241.764 205.56 240.425 205.56C239.086 205.56 238.068 204.475 238.15 203.136C238.233 201.797 239.385 200.712 240.724 200.712C242.063 200.712 243.081 201.797 242.999 203.136Z" fill="white"/>
<path d="M251.056 204.818C252.047 203.857 252.118 202.323 251.214 201.391C250.31 200.459 248.774 200.482 247.783 201.443C246.792 202.405 246.721 203.939 247.625 204.871C248.528 205.803 250.064 205.78 251.056 204.818Z" fill="white"/>
<path opacity="0.3" d="M259.91 204.819C260.901 203.858 260.972 202.323 260.069 201.391C259.165 200.459 257.629 200.483 256.638 201.444C255.646 202.405 255.575 203.94 256.479 204.871C257.383 205.803 258.919 205.78 259.91 204.819Z" fill="#359976"/>
<g opacity="0.5">
<path d="M155.646 154.756C155.56 154.756 155.49 154.687 155.49 154.601C155.49 154.514 155.56 154.445 155.646 154.445C155.748 154.445 155.85 154.443 155.951 154.44C155.953 154.44 155.955 154.44 155.956 154.44C156.04 154.44 156.109 154.505 156.112 154.59C156.116 154.676 156.048 154.748 155.962 154.751C155.857 154.755 155.752 154.756 155.646 154.756Z" fill="#359976"/>
<path d="M156.573 154.707C156.494 154.707 156.427 154.648 156.418 154.568C156.408 154.482 156.471 154.405 156.557 154.396C156.759 154.374 156.959 154.345 157.156 154.309C157.247 154.294 157.323 154.351 157.337 154.435C157.352 154.52 157.296 154.601 157.211 154.616C157.007 154.653 156.8 154.683 156.59 154.706C156.584 154.707 156.578 154.707 156.573 154.707ZM157.786 154.487C157.716 154.487 157.653 154.44 157.635 154.369C157.613 154.286 157.663 154.201 157.747 154.179C157.944 154.128 158.137 154.071 158.326 154.005C158.405 153.979 158.497 154.021 158.524 154.103C158.552 154.184 158.509 154.273 158.427 154.301C158.23 154.368 158.029 154.429 157.825 154.481C157.812 154.485 157.799 154.487 157.786 154.487ZM158.954 154.092C158.893 154.092 158.836 154.056 158.81 153.996C158.776 153.917 158.814 153.825 158.893 153.792C159.079 153.713 159.263 153.629 159.443 153.537C159.52 153.499 159.615 153.529 159.653 153.606C159.693 153.683 159.661 153.777 159.585 153.816C159.397 153.91 159.207 153.998 159.015 154.08C158.995 154.088 158.974 154.092 158.954 154.092ZM160.057 153.539C160.003 153.539 159.951 153.512 159.922 153.462C159.878 153.387 159.903 153.291 159.977 153.248C160.151 153.146 160.323 153.038 160.494 152.924C160.566 152.877 160.663 152.896 160.711 152.967C160.759 153.039 160.739 153.137 160.668 153.184C160.493 153.301 160.315 153.412 160.136 153.517C160.111 153.531 160.084 153.539 160.057 153.539ZM161.084 152.853C161.037 152.853 160.99 152.831 160.959 152.79C160.908 152.721 160.921 152.623 160.991 152.571C161.153 152.45 161.312 152.324 161.47 152.192C161.536 152.138 161.635 152.146 161.69 152.212C161.745 152.278 161.735 152.377 161.67 152.432C161.508 152.567 161.344 152.697 161.178 152.821C161.15 152.842 161.117 152.853 161.084 152.853ZM162.036 152.061C161.994 152.061 161.951 152.044 161.92 152.01C161.862 151.947 161.866 151.848 161.931 151.79C162.079 151.654 162.228 151.513 162.374 151.368C162.435 151.306 162.533 151.307 162.595 151.368C162.656 151.429 162.655 151.528 162.594 151.589C162.445 151.738 162.293 151.882 162.141 152.021C162.111 152.048 162.073 152.061 162.036 152.061ZM162.915 151.191C162.876 151.191 162.838 151.177 162.808 151.149C162.745 151.09 162.741 150.992 162.8 150.928C162.939 150.78 163.076 150.628 163.212 150.472C163.269 150.407 163.367 150.402 163.432 150.458C163.498 150.514 163.504 150.613 163.447 150.678C163.309 150.836 163.169 150.99 163.029 151.142C162.998 151.174 162.956 151.191 162.915 151.191ZM163.731 150.259C163.696 150.259 163.661 150.247 163.632 150.223C163.565 150.168 163.556 150.07 163.611 150.003C163.74 149.847 163.868 149.687 163.995 149.523C164.047 149.454 164.145 149.443 164.214 149.496C164.283 149.548 164.295 149.646 164.242 149.714C164.114 149.881 163.984 150.043 163.852 150.202C163.82 150.24 163.776 150.259 163.731 150.259ZM164.492 149.282C164.459 149.282 164.427 149.273 164.398 149.252C164.33 149.201 164.315 149.103 164.366 149.033C164.487 148.87 164.607 148.703 164.727 148.535C164.777 148.464 164.875 148.447 164.945 148.497C165.015 148.546 165.032 148.644 164.983 148.714C164.861 148.886 164.74 149.053 164.618 149.219C164.587 149.26 164.539 149.282 164.492 149.282ZM165.207 148.271C165.177 148.271 165.146 148.263 165.12 148.245C165.048 148.197 165.029 148.099 165.078 148.028C165.193 147.858 165.306 147.687 165.419 147.514C165.467 147.441 165.563 147.423 165.636 147.469C165.708 147.516 165.728 147.613 165.681 147.685C165.567 147.86 165.452 148.032 165.337 148.203C165.307 148.247 165.258 148.271 165.207 148.271ZM165.885 147.234C165.856 147.234 165.828 147.227 165.802 147.211C165.73 147.165 165.708 147.068 165.753 146.996C165.862 146.822 165.971 146.647 166.079 146.471C166.125 146.397 166.221 146.375 166.294 146.419C166.368 146.464 166.39 146.561 166.346 146.634C166.236 146.812 166.128 146.988 166.017 147.162C165.988 147.209 165.937 147.234 165.885 147.234ZM166.533 146.176C166.506 146.176 166.478 146.169 166.453 146.155C166.379 146.111 166.354 146.015 166.398 145.941C166.503 145.765 166.607 145.587 166.71 145.408C166.753 145.333 166.849 145.308 166.924 145.351C166.998 145.393 167.024 145.489 166.981 145.564C166.877 145.744 166.772 145.923 166.667 146.1C166.638 146.149 166.585 146.176 166.533 146.176ZM167.154 145.104C167.128 145.104 167.101 145.098 167.077 145.084C167.002 145.042 166.976 144.946 167.018 144.872C167.119 144.693 167.22 144.513 167.321 144.332C167.363 144.257 167.457 144.23 167.533 144.271C167.609 144.313 167.636 144.409 167.594 144.484C167.493 144.665 167.392 144.845 167.29 145.025C167.262 145.076 167.208 145.104 167.154 145.104ZM167.757 144.022C167.731 144.022 167.706 144.016 167.682 144.003C167.606 143.962 167.579 143.866 167.62 143.791C167.718 143.611 167.817 143.43 167.914 143.247C167.955 143.17 168.051 143.143 168.125 143.183C168.201 143.224 168.23 143.318 168.19 143.394C168.092 143.577 167.993 143.759 167.894 143.94C167.865 143.993 167.812 144.022 167.757 144.022ZM168.345 142.931C168.32 142.931 168.295 142.925 168.271 142.913C168.195 142.872 168.166 142.777 168.207 142.701C168.304 142.52 168.4 142.339 168.496 142.156C168.536 142.08 168.63 142.052 168.707 142.09C168.783 142.131 168.812 142.225 168.772 142.301C168.677 142.484 168.579 142.667 168.483 142.848C168.454 142.901 168.4 142.931 168.345 142.931ZM168.922 141.837C168.897 141.837 168.873 141.831 168.85 141.82C168.773 141.78 168.743 141.686 168.783 141.609L169.07 141.06C169.111 140.983 169.205 140.954 169.281 140.994C169.357 141.033 169.387 141.128 169.347 141.205L169.06 141.754C169.033 141.807 168.978 141.837 168.922 141.837ZM169.495 140.738C169.471 140.738 169.446 140.732 169.423 140.72C169.347 140.68 169.317 140.586 169.357 140.51L169.644 139.959C169.683 139.883 169.778 139.854 169.854 139.893C169.93 139.933 169.961 140.027 169.921 140.103L169.634 140.654C169.606 140.708 169.551 140.738 169.495 140.738ZM170.068 139.637C170.043 139.637 170.019 139.631 169.995 139.62C169.919 139.581 169.889 139.486 169.929 139.409L170.216 138.86C170.255 138.783 170.35 138.755 170.426 138.794C170.503 138.833 170.533 138.928 170.493 139.005L170.206 139.553C170.178 139.607 170.124 139.637 170.068 139.637ZM170.644 138.539C170.619 138.539 170.594 138.533 170.571 138.522C170.495 138.481 170.466 138.387 170.505 138.311L170.796 137.763C170.836 137.685 170.931 137.657 171.006 137.697C171.083 137.738 171.112 137.832 171.071 137.908L170.782 138.455C170.754 138.509 170.7 138.539 170.644 138.539ZM171.225 137.446C171.2 137.446 171.175 137.44 171.151 137.428C171.076 137.387 171.047 137.292 171.088 137.216L171.383 136.671C171.424 136.595 171.52 136.565 171.594 136.608C171.67 136.649 171.699 136.744 171.658 136.819L171.363 137.365C171.335 137.417 171.281 137.446 171.225 137.446ZM171.82 136.359C171.794 136.359 171.768 136.352 171.744 136.339C171.669 136.297 171.641 136.202 171.683 136.127C171.784 135.946 171.886 135.764 171.987 135.586C172.03 135.51 172.127 135.485 172.2 135.527C172.275 135.569 172.302 135.664 172.259 135.739C172.158 135.917 172.058 136.098 171.956 136.279C171.928 136.33 171.875 136.359 171.82 136.359ZM172.431 135.281C172.405 135.281 172.378 135.274 172.353 135.26C172.278 135.217 172.253 135.121 172.296 135.047C172.399 134.867 172.504 134.688 172.609 134.51C172.654 134.437 172.749 134.413 172.824 134.456C172.898 134.499 172.922 134.596 172.879 134.67C172.774 134.846 172.67 135.024 172.566 135.203C172.537 135.253 172.484 135.281 172.431 135.281ZM173.063 134.215C173.036 134.215 173.007 134.208 172.982 134.192C172.909 134.148 172.886 134.051 172.93 133.978C173.039 133.8 173.148 133.624 173.258 133.45C173.304 133.376 173.401 133.356 173.473 133.401C173.546 133.446 173.568 133.543 173.522 133.616C173.413 133.789 173.304 133.964 173.197 134.141C173.167 134.188 173.116 134.215 173.063 134.215ZM173.724 133.166C173.695 133.166 173.665 133.158 173.639 133.141C173.567 133.095 173.546 132.998 173.593 132.925C173.707 132.75 173.822 132.577 173.937 132.406C173.986 132.335 174.084 132.316 174.154 132.364C174.226 132.413 174.245 132.511 174.197 132.582C174.082 132.751 173.968 132.922 173.856 133.095C173.825 133.142 173.775 133.166 173.724 133.166ZM174.418 132.141C174.387 132.141 174.356 132.132 174.328 132.113C174.258 132.063 174.241 131.965 174.29 131.895C174.411 131.724 174.532 131.556 174.654 131.39C174.706 131.321 174.803 131.305 174.872 131.357C174.942 131.408 174.957 131.506 174.906 131.575C174.785 131.74 174.664 131.906 174.545 132.075C174.516 132.118 174.467 132.141 174.418 132.141ZM175.155 131.145C175.122 131.145 175.088 131.134 175.06 131.112C174.992 131.059 174.979 130.961 175.032 130.893C175.16 130.727 175.29 130.565 175.42 130.405C175.475 130.338 175.573 130.329 175.64 130.383C175.706 130.438 175.717 130.536 175.663 130.603C175.534 130.76 175.406 130.921 175.279 131.084C175.247 131.124 175.202 131.145 175.155 131.145ZM175.94 130.188C175.903 130.188 175.867 130.175 175.838 130.149C175.772 130.092 175.766 129.994 175.823 129.929C175.961 129.771 176.1 129.617 176.24 129.465C176.3 129.401 176.4 129.4 176.461 129.457C176.525 129.516 176.528 129.615 176.47 129.678C176.331 129.826 176.193 129.978 176.058 130.134C176.026 130.17 175.983 130.188 175.94 130.188ZM176.784 129.284C176.744 129.284 176.705 129.268 176.674 129.238C176.613 129.177 176.613 129.078 176.674 129.017C176.822 128.87 176.974 128.725 177.126 128.585C177.191 128.526 177.288 128.531 177.347 128.595C177.405 128.658 177.401 128.757 177.337 128.815C177.188 128.953 177.04 129.094 176.894 129.239C176.864 129.268 176.824 129.284 176.784 129.284ZM177.696 128.448C177.651 128.448 177.607 128.43 177.576 128.393C177.521 128.326 177.529 128.228 177.595 128.173C177.756 128.037 177.919 127.908 178.084 127.782C178.152 127.731 178.25 127.743 178.303 127.813C178.355 127.881 178.342 127.98 178.273 128.032C178.112 128.153 177.953 128.281 177.796 128.412C177.767 128.437 177.731 128.448 177.696 128.448ZM178.682 127.704C178.632 127.704 178.583 127.68 178.553 127.636C178.505 127.564 178.523 127.467 178.595 127.419C178.769 127.301 178.946 127.189 179.124 127.083C179.198 127.041 179.294 127.064 179.339 127.138C179.382 127.212 179.358 127.308 179.284 127.352C179.11 127.455 178.939 127.563 178.769 127.677C178.743 127.695 178.713 127.704 178.682 127.704ZM179.747 127.076C179.69 127.076 179.635 127.045 179.608 126.991C179.568 126.914 179.599 126.82 179.675 126.781C179.862 126.686 180.05 126.598 180.243 126.516C180.319 126.482 180.413 126.518 180.447 126.599C180.481 126.678 180.444 126.77 180.364 126.803C180.18 126.882 179.997 126.968 179.817 127.059C179.795 127.071 179.771 127.076 179.747 127.076ZM180.879 126.595C180.814 126.595 180.754 126.554 180.732 126.49C180.704 126.408 180.746 126.319 180.828 126.291C181.026 126.223 181.226 126.162 181.429 126.109C181.515 126.084 181.599 126.136 181.62 126.219C181.642 126.303 181.593 126.389 181.51 126.411C181.313 126.463 181.121 126.521 180.931 126.587C180.913 126.592 180.896 126.595 180.879 126.595ZM182.072 126.28C181.998 126.28 181.932 126.228 181.918 126.153C181.903 126.068 181.958 125.986 182.043 125.971C182.248 125.933 182.456 125.902 182.665 125.877C182.761 125.865 182.828 125.93 182.838 126.015C182.848 126.101 182.786 126.178 182.7 126.189C182.498 126.211 182.298 126.241 182.1 126.278C182.09 126.279 182.081 126.28 182.072 126.28Z" fill="#359976"/>
<path d="M183.339 126.142C183.254 126.142 183.185 126.075 183.183 125.991C183.18 125.905 183.248 125.832 183.333 125.83C183.438 125.827 183.543 125.825 183.648 125.825C183.735 125.825 183.804 125.894 183.804 125.981C183.804 126.067 183.735 126.136 183.648 126.136C183.547 126.136 183.444 126.138 183.343 126.142C183.342 126.142 183.34 126.142 183.339 126.142Z" fill="#359976"/>
<path d="M219.744 124.887C219.657 124.887 219.588 124.817 219.588 124.731C219.588 124.645 219.657 124.575 219.744 124.575C219.844 124.575 219.943 124.571 220.041 124.562C220.128 124.546 220.202 124.618 220.209 124.705C220.217 124.79 220.153 124.866 220.067 124.873C219.96 124.883 219.853 124.887 219.744 124.887Z" fill="#359976"/>
<path d="M220.669 124.771C220.599 124.771 220.535 124.725 220.517 124.653C220.497 124.57 220.547 124.485 220.631 124.463C220.82 124.416 221.009 124.351 221.193 124.273C221.269 124.238 221.364 124.275 221.397 124.356C221.431 124.435 221.394 124.527 221.315 124.56C221.116 124.645 220.912 124.714 220.707 124.766C220.694 124.77 220.681 124.771 220.669 124.771ZM221.805 124.291C221.753 124.291 221.7 124.264 221.671 124.215C221.627 124.141 221.651 124.045 221.725 124.002C221.894 123.901 222.061 123.787 222.225 123.663C222.293 123.611 222.392 123.623 222.444 123.693C222.496 123.761 222.483 123.86 222.414 123.912C222.241 124.043 222.063 124.164 221.885 124.27C221.86 124.284 221.832 124.291 221.805 124.291ZM222.796 123.544C222.755 123.544 222.712 123.528 222.681 123.494C222.623 123.43 222.627 123.332 222.691 123.273C222.838 123.139 222.981 122.994 223.125 122.843C223.185 122.781 223.283 122.777 223.346 122.836C223.409 122.895 223.412 122.994 223.353 123.057C223.205 123.215 223.054 123.364 222.903 123.503C222.872 123.531 222.834 123.544 222.796 123.544ZM223.65 122.637C223.615 122.637 223.58 122.625 223.551 122.601C223.485 122.546 223.475 122.448 223.53 122.381C223.658 122.226 223.785 122.064 223.91 121.896C223.961 121.826 224.059 121.813 224.128 121.863C224.197 121.914 224.212 122.012 224.16 122.082C224.033 122.254 223.903 122.421 223.771 122.58C223.741 122.618 223.695 122.637 223.65 122.637ZM224.395 121.635C224.365 121.635 224.334 121.626 224.308 121.608C224.236 121.56 224.217 121.462 224.266 121.391C224.38 121.223 224.492 121.051 224.603 120.872C224.649 120.8 224.745 120.778 224.819 120.822C224.891 120.868 224.913 120.964 224.868 121.038C224.754 121.219 224.64 121.396 224.525 121.566C224.495 121.611 224.445 121.635 224.395 121.635ZM225.058 120.575C225.03 120.575 225.003 120.569 224.979 120.555C224.905 120.512 224.879 120.416 224.922 120.341C225.025 120.165 225.126 119.984 225.227 119.799C225.268 119.725 225.363 119.695 225.439 119.737C225.514 119.778 225.542 119.873 225.501 119.949C225.399 120.136 225.297 120.319 225.193 120.498C225.164 120.548 225.111 120.575 225.058 120.575ZM225.656 119.478C225.632 119.478 225.608 119.473 225.585 119.461C225.508 119.422 225.478 119.327 225.518 119.251C225.612 119.069 225.705 118.884 225.797 118.695C225.835 118.617 225.929 118.586 226.006 118.623C226.083 118.661 226.116 118.754 226.078 118.832C225.984 119.023 225.891 119.21 225.796 119.394C225.768 119.447 225.713 119.478 225.656 119.478ZM226.206 118.356C226.185 118.356 226.162 118.352 226.14 118.341C226.062 118.305 226.028 118.212 226.065 118.134C226.152 117.948 226.239 117.76 226.323 117.568C226.358 117.49 226.451 117.453 226.529 117.489C226.608 117.524 226.644 117.616 226.608 117.695C226.522 117.888 226.435 118.079 226.347 118.266C226.322 118.323 226.265 118.356 226.206 118.356ZM226.718 117.216C226.698 117.216 226.677 117.212 226.657 117.203C226.577 117.169 226.541 117.077 226.575 116.998C226.657 116.809 226.737 116.617 226.818 116.424C226.852 116.344 226.941 116.306 227.022 116.34C227.102 116.373 227.14 116.464 227.106 116.544C227.025 116.739 226.943 116.932 226.861 117.121C226.836 117.18 226.779 117.216 226.718 117.216ZM227.198 116.062C227.179 116.062 227.159 116.059 227.14 116.051C227.06 116.019 227.02 115.928 227.053 115.848C227.13 115.657 227.207 115.463 227.283 115.269C227.314 115.189 227.405 115.148 227.485 115.181C227.566 115.212 227.605 115.302 227.574 115.383C227.497 115.579 227.42 115.772 227.342 115.964C227.319 116.026 227.26 116.062 227.198 116.062ZM227.655 114.899C227.637 114.899 227.617 114.895 227.599 114.888C227.518 114.857 227.478 114.767 227.509 114.687C227.582 114.494 227.655 114.299 227.728 114.103C227.758 114.022 227.851 113.982 227.928 114.011C228.01 114.041 228.051 114.131 228.021 114.211C227.948 114.409 227.874 114.604 227.8 114.797C227.777 114.861 227.718 114.899 227.655 114.899ZM228.091 113.727C228.074 113.727 228.055 113.725 228.038 113.718C227.957 113.688 227.916 113.598 227.945 113.517L228.156 112.93C228.186 112.849 228.275 112.807 228.357 112.836C228.438 112.865 228.48 112.955 228.451 113.036L228.238 113.625C228.215 113.688 228.155 113.727 228.091 113.727ZM228.513 112.551C228.496 112.551 228.478 112.548 228.461 112.542C228.379 112.513 228.337 112.424 228.366 112.343L228.571 111.753C228.599 111.671 228.688 111.629 228.77 111.656C228.851 111.684 228.894 111.774 228.866 111.855L228.66 112.446C228.638 112.51 228.578 112.551 228.513 112.551ZM228.921 111.369C228.905 111.369 228.887 111.367 228.871 111.361C228.789 111.333 228.746 111.245 228.773 111.163L228.974 110.572C229.001 110.49 229.089 110.444 229.171 110.474C229.253 110.501 229.297 110.59 229.269 110.671L229.07 111.264C229.046 111.328 228.986 111.369 228.921 111.369ZM229.32 110.185C229.303 110.185 229.287 110.183 229.271 110.177C229.189 110.15 229.144 110.062 229.171 109.98L229.368 109.387C229.395 109.305 229.484 109.262 229.566 109.287C229.647 109.314 229.692 109.403 229.665 109.485L229.468 110.078C229.446 110.143 229.385 110.185 229.32 110.185ZM229.712 108.998C229.696 108.998 229.679 108.996 229.663 108.991C229.581 108.964 229.537 108.875 229.564 108.793L229.757 108.201C229.784 108.119 229.876 108.077 229.954 108.101C230.037 108.128 230.081 108.216 230.054 108.298L229.86 108.891C229.839 108.957 229.777 108.998 229.712 108.998ZM230.097 107.812C230.082 107.812 230.065 107.81 230.049 107.804C229.967 107.778 229.922 107.69 229.949 107.607L230.142 107.013C230.169 106.931 230.257 106.884 230.338 106.912C230.421 106.939 230.465 107.027 230.439 107.109L230.246 107.704C230.225 107.771 230.164 107.812 230.097 107.812ZM230.483 106.621C230.467 106.621 230.45 106.619 230.435 106.614C230.352 106.587 230.308 106.499 230.334 106.417L230.527 105.82C230.553 105.738 230.644 105.691 230.723 105.72C230.806 105.746 230.85 105.834 230.824 105.916L230.631 106.513C230.609 106.579 230.548 106.621 230.483 106.621ZM230.867 105.43C230.852 105.43 230.835 105.428 230.819 105.422C230.737 105.396 230.692 105.308 230.719 105.225L230.911 104.631C230.938 104.549 231.025 104.503 231.109 104.531C231.19 104.557 231.235 104.645 231.208 104.728L231.016 105.322C230.994 105.388 230.933 105.43 230.867 105.43ZM231.252 104.241C231.236 104.241 231.219 104.238 231.204 104.233C231.121 104.206 231.077 104.118 231.104 104.036L231.298 103.442C231.324 103.361 231.41 103.318 231.495 103.343C231.577 103.369 231.622 103.457 231.595 103.54L231.401 104.133C231.379 104.2 231.318 104.241 231.252 104.241ZM231.642 103.053C231.626 103.053 231.61 103.05 231.593 103.045C231.512 103.018 231.467 102.929 231.494 102.847L231.691 102.254C231.718 102.172 231.806 102.129 231.888 102.154C231.97 102.182 232.015 102.27 231.988 102.352L231.791 102.946C231.769 103.012 231.707 103.053 231.642 103.053ZM232.037 101.868C232.02 101.868 232.003 101.865 231.987 101.86C231.905 101.832 231.861 101.744 231.889 101.662L232.089 101.069C232.118 100.986 232.208 100.944 232.288 100.971C232.369 100.999 232.413 101.089 232.385 101.17L232.185 101.762C232.162 101.827 232.102 101.868 232.037 101.868ZM232.44 100.685C232.424 100.685 232.406 100.682 232.389 100.677C232.308 100.648 232.265 100.559 232.293 100.478L232.499 99.8863C232.527 99.8058 232.616 99.7607 232.698 99.791C232.779 99.8193 232.822 99.9082 232.793 99.99L232.588 100.58C232.565 100.644 232.505 100.685 232.44 100.685ZM232.855 99.5051C232.838 99.5051 232.82 99.5025 232.802 99.496C232.721 99.4671 232.679 99.3769 232.708 99.2958C232.778 99.0987 232.849 98.9023 232.92 98.7078C232.95 98.6266 233.039 98.5822 233.12 98.6144C233.202 98.644 233.243 98.7336 233.214 98.8147C233.143 99.0092 233.073 99.2043 233.003 99.4014C232.979 99.4651 232.919 99.5051 232.855 99.5051ZM233.282 98.3317C233.264 98.3317 233.245 98.3285 233.227 98.322C233.147 98.2918 233.106 98.2023 233.135 98.1205C233.208 97.924 233.282 97.7289 233.356 97.5351C233.387 97.4546 233.476 97.4134 233.558 97.4443C233.638 97.4752 233.679 97.5653 233.648 97.6458C233.575 97.8397 233.502 98.0342 233.429 98.23C233.405 98.2931 233.345 98.3317 233.282 98.3317ZM233.728 97.1628C233.709 97.1628 233.689 97.1596 233.67 97.1519C233.591 97.1203 233.551 97.0302 233.582 96.9497C233.659 96.7533 233.735 96.5601 233.813 96.3681C233.846 96.2876 233.938 96.2471 234.016 96.2818C234.096 96.314 234.135 96.4049 234.102 96.4847C234.026 96.6753 233.949 96.8692 233.873 97.0637C233.849 97.1255 233.79 97.1628 233.728 97.1628ZM234.195 96.0043C234.175 96.0043 234.155 96.0004 234.135 95.9921C234.055 95.9592 234.017 95.8684 234.051 95.7885C234.131 95.5934 234.213 95.4009 234.295 95.2109C234.329 95.1317 234.421 95.095 234.5 95.1291C234.579 95.1632 234.616 95.2547 234.582 95.3339C234.5 95.5232 234.419 95.7145 234.339 95.9083C234.315 95.9689 234.256 96.0043 234.195 96.0043ZM234.69 94.8573C234.669 94.8573 234.647 94.8528 234.626 94.8444C234.547 94.809 234.511 94.7169 234.547 94.6384C234.634 94.4445 234.721 94.2545 234.808 94.0671C234.844 93.9892 234.936 93.9551 235.015 93.9918C235.093 94.0285 235.127 94.1206 235.09 94.1992C235.004 94.3853 234.917 94.574 234.832 94.7652C234.806 94.8232 234.75 94.8573 234.69 94.8573ZM235.219 93.7252C235.195 93.7252 235.172 93.72 235.15 93.7097C235.072 93.6717 235.04 93.5783 235.078 93.5011C235.172 93.3104 235.264 93.1237 235.359 92.9395C235.399 92.8629 235.494 92.8326 235.57 92.8725C235.646 92.9124 235.676 93.0065 235.636 93.0831C235.542 93.2647 235.45 93.4502 235.358 93.6382C235.332 93.693 235.276 93.7252 235.219 93.7252ZM235.791 92.6143C235.766 92.6143 235.74 92.6085 235.716 92.5956C235.641 92.5544 235.613 92.4591 235.654 92.3837C235.756 92.197 235.858 92.0141 235.962 91.8357C236.005 91.761 236.1 91.7352 236.175 91.7784C236.25 91.8215 236.275 91.9175 236.232 91.9915C236.13 92.168 236.029 92.3489 235.928 92.5331C235.9 92.5853 235.846 92.6143 235.791 92.6143ZM236.418 91.5343C236.39 91.5343 236.362 91.5266 236.336 91.5111C236.262 91.4654 236.241 91.3688 236.286 91.296C236.399 91.1144 236.513 90.9379 236.628 90.7673C236.676 90.6951 236.774 90.6758 236.844 90.7248C236.915 90.7724 236.935 90.8697 236.887 90.9412C236.774 91.1099 236.661 91.2831 236.551 91.4615C236.521 91.5085 236.47 91.5343 236.418 91.5343ZM237.117 90.5C237.085 90.5 237.053 90.4904 237.024 90.4698C236.955 90.4182 236.94 90.321 236.991 90.2508C237.119 90.0776 237.248 89.9114 237.379 89.753C237.434 89.686 237.533 89.677 237.599 89.7317C237.666 89.7865 237.675 89.885 237.621 89.952C237.493 90.1065 237.367 90.2682 237.243 90.4375C237.212 90.4788 237.165 90.5 237.117 90.5ZM237.91 89.5392C237.871 89.5392 237.833 89.5256 237.803 89.4973C237.74 89.4387 237.737 89.3402 237.796 89.2764C237.943 89.1186 238.093 88.9692 238.245 88.8295C238.309 88.7709 238.408 88.776 238.466 88.8391C238.524 88.9029 238.52 89.0014 238.456 89.06C238.31 89.1946 238.166 89.3382 238.023 89.4909C237.993 89.5231 237.951 89.5392 237.91 89.5392ZM238.826 88.6981C238.779 88.6981 238.732 88.6775 238.702 88.6369C238.649 88.5687 238.663 88.4701 238.731 88.418C238.903 88.2866 239.079 88.1655 239.256 88.0586C239.329 88.0155 239.426 88.0374 239.471 88.1121C239.515 88.1855 239.491 88.2821 239.417 88.3265C239.25 88.427 239.083 88.5416 238.92 88.6653C238.893 88.6884 238.859 88.6981 238.826 88.6981ZM239.886 88.0657C239.826 88.0657 239.768 88.0303 239.743 87.9717C239.709 87.8925 239.745 87.8004 239.824 87.7669C240.025 87.6806 240.229 87.6097 240.433 87.5563C240.514 87.5325 240.602 87.5833 240.624 87.6677C240.646 87.7514 240.596 87.8364 240.512 87.8583C240.324 87.9079 240.134 87.9742 239.947 88.0541C239.928 88.0618 239.908 88.0657 239.886 88.0657Z" fill="#359976"/>
<path d="M241.109 87.7553C241.029 87.7553 240.96 87.6934 240.954 87.6117C240.947 87.5254 241.012 87.45 241.097 87.4429C241.204 87.4346 241.311 87.4301 241.42 87.4301C241.506 87.4301 241.576 87.4996 241.576 87.5859C241.576 87.6722 241.506 87.7417 241.42 87.7417C241.32 87.7417 241.22 87.7463 241.122 87.7546C241.118 87.7553 241.113 87.7553 241.109 87.7553Z" fill="#359976"/>
<path d="M219.976 126.154C219.971 126.154 219.964 126.154 219.958 126.154C219.863 126.142 219.765 126.137 219.667 126.137C219.58 126.137 219.511 126.067 219.511 125.981C219.511 125.895 219.58 125.825 219.667 125.825C219.778 125.825 219.887 125.831 219.995 125.843C220.081 125.854 220.142 125.932 220.132 126.017C220.123 126.096 220.056 126.154 219.976 126.154Z" fill="#359976"/>
<path d="M234.957 176.946C234.939 176.946 234.92 176.943 234.902 176.936C234.707 176.864 234.513 176.766 234.325 176.647C234.252 176.6 234.231 176.504 234.276 176.431C234.323 176.357 234.42 176.337 234.492 176.383C234.663 176.491 234.837 176.579 235.011 176.643C235.092 176.674 235.134 176.764 235.103 176.845C235.08 176.907 235.02 176.946 234.957 176.946ZM233.924 176.301C233.887 176.301 233.85 176.288 233.82 176.261C233.67 176.127 233.522 175.976 233.378 175.81C233.321 175.745 233.328 175.646 233.393 175.59C233.457 175.534 233.556 175.54 233.613 175.605C233.749 175.76 233.889 175.903 234.029 176.028C234.093 176.086 234.098 176.185 234.041 176.249C234.01 176.283 233.967 176.301 233.924 176.301ZM233.115 175.378C233.067 175.378 233.019 175.355 232.988 175.313C232.871 175.148 232.756 174.972 232.643 174.787C232.599 174.713 232.622 174.617 232.695 174.572C232.768 174.527 232.866 174.551 232.91 174.624C233.019 174.803 233.129 174.972 233.243 175.131C233.293 175.201 233.277 175.299 233.207 175.349C233.178 175.368 233.147 175.378 233.115 175.378ZM232.472 174.323C232.416 174.323 232.362 174.293 232.334 174.24C232.239 174.06 232.145 173.873 232.054 173.678C232.017 173.6 232.051 173.506 232.129 173.47C232.207 173.433 232.301 173.468 232.337 173.546C232.426 173.736 232.516 173.918 232.609 174.094C232.65 174.17 232.621 174.265 232.544 174.305C232.522 174.317 232.496 174.323 232.472 174.323ZM231.944 173.201C231.883 173.201 231.825 173.164 231.8 173.106C231.72 172.918 231.643 172.725 231.566 172.526C231.535 172.445 231.576 172.355 231.656 172.323C231.735 172.293 231.827 172.332 231.858 172.414C231.933 172.609 232.01 172.8 232.088 172.984C232.121 173.064 232.084 173.155 232.004 173.189C231.985 173.197 231.965 173.201 231.944 173.201ZM231.498 172.043C231.433 172.043 231.373 172.002 231.35 171.938C231.283 171.746 231.215 171.549 231.15 171.347C231.123 171.265 231.167 171.177 231.25 171.15C231.329 171.124 231.42 171.167 231.447 171.25C231.511 171.449 231.578 171.643 231.645 171.835C231.674 171.916 231.631 172.005 231.55 172.034C231.532 172.041 231.514 172.043 231.498 172.043ZM231.112 170.864C231.045 170.864 230.983 170.821 230.962 170.753C230.903 170.557 230.844 170.357 230.787 170.154C230.763 170.071 230.811 169.984 230.894 169.961C230.98 169.939 231.064 169.986 231.087 170.069C231.145 170.27 231.203 170.467 231.262 170.663C231.286 170.745 231.24 170.833 231.158 170.858C231.142 170.863 231.127 170.864 231.112 170.864ZM230.771 169.669C230.702 169.669 230.639 169.623 230.62 169.552C230.568 169.355 230.516 169.154 230.464 168.95C230.443 168.866 230.494 168.781 230.577 168.76C230.661 168.74 230.746 168.79 230.767 168.874C230.819 169.076 230.87 169.275 230.923 169.473C230.944 169.556 230.895 169.642 230.811 169.664C230.798 169.668 230.785 169.669 230.771 169.669ZM230.468 168.467C230.397 168.467 230.333 168.419 230.316 168.347C230.268 168.146 230.221 167.944 230.174 167.74C230.155 167.656 230.208 167.572 230.292 167.553C230.373 167.535 230.46 167.587 230.479 167.671C230.525 167.874 230.573 168.075 230.62 168.274C230.64 168.358 230.588 168.443 230.505 168.463C230.492 168.465 230.479 168.467 230.468 168.467ZM230.19 167.255C230.118 167.255 230.053 167.206 230.038 167.132L229.909 166.525C229.891 166.44 229.946 166.357 230.03 166.34C230.112 166.319 230.198 166.377 230.215 166.461L230.344 167.067C230.362 167.151 230.308 167.235 230.224 167.253C230.212 167.255 230.201 167.255 230.19 167.255ZM229.937 166.04C229.864 166.04 229.799 165.989 229.784 165.915C229.743 165.713 229.704 165.51 229.665 165.304C229.649 165.219 229.703 165.138 229.788 165.122C229.877 165.107 229.955 165.161 229.971 165.245C230.011 165.449 230.051 165.653 230.091 165.853C230.107 165.938 230.052 166.021 229.969 166.037C229.957 166.039 229.948 166.04 229.937 166.04ZM229.703 164.821C229.629 164.821 229.563 164.769 229.55 164.694C229.512 164.492 229.475 164.287 229.437 164.082C229.423 163.997 229.479 163.916 229.564 163.901C229.654 163.889 229.73 163.943 229.745 164.027C229.781 164.232 229.818 164.435 229.856 164.636C229.872 164.721 229.815 164.803 229.732 164.818C229.721 164.82 229.712 164.821 229.703 164.821ZM229.484 163.599C229.409 163.599 229.343 163.545 229.33 163.469L229.226 162.857C229.212 162.772 229.269 162.691 229.354 162.677C229.443 162.668 229.52 162.72 229.534 162.805L229.638 163.416C229.652 163.502 229.595 163.582 229.51 163.597C229.502 163.598 229.493 163.599 229.484 163.599ZM229.278 162.375C229.203 162.375 229.136 162.321 229.124 162.244L229.027 161.63C229.012 161.545 229.071 161.465 229.156 161.452C229.237 161.437 229.322 161.496 229.334 161.582L229.432 162.195C229.446 162.28 229.389 162.359 229.303 162.373C229.294 162.374 229.286 162.375 229.278 162.375ZM229.084 161.148C229.008 161.148 228.941 161.093 228.93 161.016L228.836 160.402C228.823 160.316 228.882 160.237 228.967 160.224C229.057 160.214 229.132 160.27 229.145 160.355L229.238 160.968C229.252 161.054 229.193 161.134 229.108 161.146C229.099 161.148 229.092 161.148 229.084 161.148ZM228.898 159.92C228.822 159.92 228.755 159.865 228.744 159.787L228.654 159.172C228.642 159.087 228.701 159.008 228.786 158.996C228.876 158.977 228.951 159.043 228.963 159.129L229.053 159.741C229.066 159.827 229.007 159.906 228.922 159.919C228.913 159.92 228.906 159.92 228.898 159.92ZM228.721 158.692C228.645 158.692 228.578 158.636 228.567 158.558L228.48 157.944C228.468 157.858 228.527 157.779 228.612 157.767C228.701 157.752 228.777 157.815 228.789 157.9L228.876 158.514C228.887 158.6 228.829 158.679 228.743 158.691C228.735 158.692 228.728 158.692 228.721 158.692ZM228.549 157.462C228.472 157.462 228.404 157.406 228.394 157.328L228.31 156.712C228.298 156.627 228.358 156.548 228.444 156.537C228.527 156.52 228.607 156.585 228.619 156.671L228.703 157.285C228.715 157.371 228.656 157.45 228.57 157.461C228.563 157.462 228.556 157.462 228.549 157.462ZM228.382 156.232C228.305 156.232 228.238 156.175 228.227 156.097L228.146 155.481C228.134 155.395 228.195 155.317 228.28 155.306C228.374 155.29 228.444 155.356 228.455 155.441L228.537 156.055C228.549 156.141 228.489 156.22 228.403 156.231C228.396 156.232 228.389 156.232 228.382 156.232ZM228.219 155.002C228.142 155.002 228.074 154.944 228.064 154.866L227.984 154.25C227.972 154.165 228.033 154.087 228.119 154.076C228.214 154.06 228.283 154.125 228.294 154.21L228.374 154.826C228.386 154.912 228.325 154.99 228.24 155C228.233 155.002 228.225 155.002 228.219 155.002ZM228.058 153.77C227.981 153.77 227.913 153.713 227.903 153.635L227.824 153.019C227.813 152.933 227.873 152.855 227.959 152.844C228.048 152.83 228.123 152.894 228.133 152.979L228.213 153.595C228.224 153.68 228.164 153.759 228.078 153.769C228.072 153.77 228.064 153.77 228.058 153.77ZM227.9 152.539C227.822 152.539 227.755 152.482 227.745 152.403L227.666 151.788C227.654 151.702 227.715 151.623 227.8 151.613C227.896 151.6 227.965 151.662 227.975 151.748L228.054 152.363C228.066 152.449 228.005 152.528 227.92 152.538C227.913 152.539 227.906 152.539 227.9 152.539ZM227.741 151.308C227.664 151.308 227.596 151.25 227.587 151.172L227.507 150.554C227.496 150.469 227.556 150.39 227.642 150.38C227.738 150.362 227.806 150.429 227.817 150.514L227.896 151.132C227.907 151.218 227.847 151.296 227.761 151.306C227.755 151.308 227.748 151.308 227.741 151.308ZM227.583 150.073C227.505 150.073 227.438 150.016 227.428 149.937L227.348 149.322C227.337 149.236 227.397 149.157 227.483 149.147C227.579 149.133 227.647 149.197 227.658 149.282L227.738 149.897C227.75 149.983 227.689 150.061 227.603 150.072C227.596 150.073 227.589 150.073 227.583 150.073ZM227.424 148.843C227.346 148.843 227.279 148.786 227.269 148.707L227.189 148.095C227.177 148.009 227.237 147.931 227.323 147.92C227.408 147.902 227.487 147.968 227.498 148.054L227.578 148.667C227.59 148.753 227.529 148.832 227.444 148.842C227.437 148.843 227.43 148.843 227.424 148.843ZM227.263 147.614C227.185 147.614 227.118 147.558 227.108 147.479L227.026 146.864C227.014 146.779 227.074 146.7 227.16 146.688C227.239 146.675 227.324 146.737 227.335 146.822L227.417 147.437C227.429 147.523 227.369 147.602 227.283 147.613C227.276 147.614 227.27 147.614 227.263 147.614ZM227.097 146.384C227.019 146.384 226.952 146.327 226.942 146.249C226.915 146.044 226.887 145.839 226.858 145.635C226.846 145.549 226.906 145.471 226.992 145.459C227.074 145.442 227.156 145.507 227.167 145.592C227.196 145.796 227.224 146.002 227.251 146.209C227.263 146.294 227.202 146.372 227.116 146.383C227.11 146.384 227.103 146.384 227.097 146.384ZM226.928 145.154C226.851 145.154 226.784 145.098 226.773 145.02L226.686 144.406C226.674 144.32 226.733 144.241 226.819 144.23C226.907 144.21 226.983 144.277 226.995 144.362L227.082 144.977C227.094 145.062 227.035 145.141 226.95 145.153C226.943 145.154 226.935 145.154 226.928 145.154ZM226.753 143.924C226.677 143.924 226.61 143.868 226.599 143.79L226.509 143.177C226.496 143.092 226.555 143.012 226.641 143C226.722 142.984 226.805 143.046 226.818 143.132L226.908 143.747C226.92 143.832 226.861 143.911 226.775 143.923C226.767 143.924 226.76 143.924 226.753 143.924ZM226.572 142.696C226.496 142.696 226.429 142.641 226.417 142.564L226.324 141.95C226.31 141.865 226.369 141.785 226.454 141.773C226.548 141.758 226.619 141.818 226.632 141.903L226.726 142.517C226.739 142.603 226.68 142.682 226.595 142.695C226.586 142.696 226.579 142.696 226.572 142.696ZM226.382 141.47C226.306 141.47 226.239 141.415 226.228 141.339L226.129 140.727C226.116 140.642 226.172 140.561 226.258 140.548C226.341 140.532 226.424 140.592 226.437 140.677L226.536 141.29C226.549 141.375 226.492 141.455 226.406 141.468C226.398 141.469 226.389 141.47 226.382 141.47ZM226.181 140.244C226.107 140.244 226.04 140.19 226.027 140.114L225.923 139.503C225.909 139.418 225.965 139.337 226.05 139.322C226.14 139.309 226.217 139.365 226.231 139.449L226.335 140.062C226.349 140.147 226.292 140.228 226.207 140.242C226.198 140.244 226.19 140.244 226.181 140.244ZM225.969 139.022C225.895 139.022 225.828 138.969 225.815 138.893C225.779 138.689 225.742 138.485 225.704 138.284C225.689 138.199 225.745 138.117 225.828 138.102C225.915 138.087 225.995 138.142 226.011 138.226C226.049 138.428 226.085 138.633 226.123 138.838C226.138 138.924 226.082 139.005 225.997 139.02C225.987 139.021 225.978 139.022 225.969 139.022ZM225.743 137.801C225.669 137.801 225.604 137.75 225.59 137.675C225.55 137.471 225.51 137.267 225.47 137.067C225.454 136.982 225.508 136.9 225.592 136.883C225.681 136.869 225.76 136.921 225.776 137.005C225.817 137.207 225.856 137.41 225.896 137.616C225.912 137.701 225.857 137.782 225.772 137.799C225.763 137.801 225.752 137.801 225.743 137.801ZM225.499 136.583C225.426 136.583 225.361 136.532 225.346 136.458C225.304 136.255 225.26 136.053 225.217 135.853C225.199 135.768 225.253 135.685 225.337 135.667C225.424 135.647 225.506 135.702 225.523 135.787C225.566 135.988 225.61 136.191 225.652 136.396C225.669 136.48 225.615 136.563 225.531 136.58C225.519 136.582 225.508 136.583 225.499 136.583ZM225.235 135.369C225.163 135.369 225.099 135.32 225.083 135.248C225.036 135.044 224.989 134.843 224.942 134.645C224.921 134.561 224.973 134.477 225.057 134.457C225.142 134.436 225.225 134.488 225.245 134.572C225.293 134.772 225.34 134.973 225.387 135.178C225.407 135.263 225.354 135.346 225.269 135.365C225.258 135.368 225.246 135.369 225.235 135.369ZM224.944 134.163C224.874 134.163 224.81 134.116 224.792 134.045C224.741 133.842 224.689 133.643 224.636 133.446C224.615 133.363 224.663 133.277 224.747 133.255C224.828 133.23 224.916 133.282 224.938 133.365C224.991 133.564 225.043 133.764 225.096 133.968C225.116 134.052 225.066 134.137 224.982 134.158C224.969 134.161 224.957 134.163 224.944 134.163ZM224.622 132.964C224.554 132.964 224.491 132.92 224.472 132.851C224.414 132.65 224.356 132.452 224.296 132.258C224.271 132.176 224.317 132.088 224.399 132.063C224.48 132.035 224.57 132.084 224.595 132.166C224.655 132.363 224.714 132.562 224.772 132.765C224.796 132.848 224.747 132.934 224.664 132.958C224.651 132.962 224.636 132.964 224.622 132.964ZM224.258 131.776C224.192 131.776 224.132 131.735 224.11 131.668C224.045 131.469 223.979 131.275 223.911 131.084C223.882 131.003 223.925 130.914 224.006 130.885C224.087 130.854 224.177 130.897 224.206 130.979C224.275 131.172 224.341 131.37 224.407 131.571C224.434 131.653 224.39 131.741 224.307 131.768C224.291 131.773 224.275 131.776 224.258 131.776ZM223.842 130.606C223.779 130.606 223.721 130.568 223.696 130.506C223.621 130.31 223.544 130.12 223.466 129.935C223.433 129.855 223.47 129.764 223.549 129.731C223.631 129.697 223.721 129.735 223.754 129.814C223.833 130.002 223.911 130.195 223.988 130.394C224.019 130.474 223.978 130.565 223.898 130.596C223.88 130.603 223.862 130.606 223.842 130.606ZM223.358 129.464C223.299 129.464 223.243 129.431 223.216 129.374C223.127 129.183 223.036 129.001 222.943 128.826C222.902 128.75 222.93 128.654 223.007 128.615C223.084 128.573 223.178 128.602 223.218 128.679C223.314 128.859 223.408 129.046 223.499 129.242C223.536 129.32 223.502 129.413 223.424 129.449C223.403 129.459 223.381 129.464 223.358 129.464ZM222.774 128.369C222.721 128.369 222.67 128.343 222.641 128.294C222.532 128.115 222.42 127.947 222.306 127.788C222.256 127.717 222.272 127.62 222.342 127.569C222.412 127.52 222.509 127.536 222.56 127.605C222.679 127.771 222.795 127.947 222.907 128.132C222.952 128.206 222.929 128.302 222.855 128.347C222.83 128.362 222.802 128.369 222.774 128.369ZM222.049 127.368C222.006 127.368 221.963 127.35 221.932 127.315C221.794 127.158 221.653 127.016 221.512 126.892C221.447 126.835 221.441 126.737 221.498 126.672C221.555 126.607 221.653 126.6 221.718 126.658C221.869 126.791 222.02 126.942 222.166 127.109C222.223 127.174 222.217 127.272 222.152 127.329C222.123 127.355 222.086 127.368 222.049 127.368ZM221.123 126.563C221.095 126.563 221.067 126.555 221.041 126.54C220.874 126.436 220.7 126.351 220.524 126.287C220.443 126.257 220.401 126.167 220.43 126.086C220.46 126.005 220.549 125.964 220.631 125.993C220.827 126.064 221.02 126.159 221.206 126.274C221.279 126.319 221.301 126.416 221.256 126.489C221.226 126.537 221.176 126.563 221.123 126.563Z" fill="#359976"/>
<path d="M235.898 177.118C235.787 177.118 235.677 177.112 235.57 177.1C235.485 177.09 235.423 177.013 235.433 176.927C235.442 176.841 235.509 176.785 235.606 176.789C235.701 176.8 235.799 176.806 235.898 176.806C235.984 176.806 236.053 176.875 236.053 176.961C236.053 177.048 235.984 177.118 235.898 177.118Z" fill="#359976"/>
<path d="M161.354 67.392C161.35 67.392 161.347 67.392 161.343 67.392C161.244 67.3849 161.143 67.381 161.043 67.381C160.956 67.381 160.887 67.3115 160.887 67.2252C160.887 67.1389 160.956 67.0693 161.043 67.0693C161.151 67.0693 161.258 67.0732 161.364 67.0803C161.45 67.0861 161.515 67.1608 161.509 67.2471C161.504 67.3289 161.435 67.392 161.354 67.392Z" fill="#359976"/>
<path d="M182.754 124.777C182.742 124.777 182.731 124.776 182.719 124.773C182.512 124.725 182.305 124.661 182.104 124.582C182.024 124.55 181.984 124.46 182.016 124.38C182.048 124.3 182.137 124.26 182.218 124.291C182.404 124.365 182.596 124.425 182.789 124.468C182.873 124.488 182.925 124.572 182.906 124.656C182.889 124.729 182.825 124.777 182.754 124.777ZM181.604 124.328C181.578 124.328 181.552 124.322 181.528 124.309C181.347 124.208 181.167 124.092 180.992 123.966C180.922 123.915 180.906 123.818 180.957 123.748C181.008 123.678 181.107 123.663 181.176 123.713C181.34 123.832 181.51 123.941 181.68 124.036C181.755 124.078 181.782 124.173 181.74 124.248C181.711 124.299 181.658 124.328 181.604 124.328ZM180.601 123.606C180.564 123.606 180.527 123.593 180.497 123.566C180.347 123.432 180.194 123.284 180.044 123.124C179.985 123.061 179.988 122.962 180.051 122.903C180.114 122.844 180.212 122.847 180.272 122.91C180.416 123.062 180.562 123.205 180.705 123.333C180.77 123.39 180.776 123.489 180.718 123.553C180.687 123.588 180.644 123.606 180.601 123.606ZM179.749 122.705C179.704 122.705 179.658 122.685 179.628 122.647C179.499 122.488 179.371 122.319 179.246 122.144C179.195 122.075 179.211 121.977 179.282 121.927C179.351 121.877 179.45 121.892 179.5 121.963C179.621 122.133 179.745 122.296 179.871 122.45C179.925 122.517 179.915 122.616 179.848 122.67C179.819 122.694 179.784 122.705 179.749 122.705ZM179.023 121.693C178.972 121.693 178.922 121.668 178.892 121.622C178.781 121.448 178.671 121.269 178.563 121.083C178.52 121.009 178.546 120.913 178.621 120.87C178.696 120.826 178.791 120.852 178.834 120.927C178.939 121.108 179.046 121.284 179.155 121.453C179.201 121.525 179.18 121.623 179.108 121.669C179.081 121.686 179.052 121.693 179.023 121.693ZM178.396 120.616C178.34 120.616 178.287 120.586 178.258 120.534C178.161 120.351 178.066 120.165 177.972 119.972C177.934 119.895 177.967 119.801 178.044 119.763C178.12 119.727 178.215 119.758 178.252 119.835C178.345 120.024 178.439 120.208 178.534 120.386C178.574 120.462 178.545 120.557 178.469 120.597C178.446 120.61 178.421 120.616 178.396 120.616ZM177.846 119.494C177.786 119.494 177.73 119.46 177.703 119.402C177.619 119.213 177.534 119.022 177.451 118.827C177.418 118.748 177.455 118.656 177.534 118.622C177.616 118.589 177.706 118.626 177.739 118.705C177.821 118.899 177.904 119.088 177.988 119.275C178.024 119.353 177.988 119.446 177.91 119.481C177.89 119.49 177.868 119.494 177.846 119.494ZM177.359 118.345C177.296 118.345 177.238 118.307 177.213 118.246C177.137 118.054 177.062 117.858 176.988 117.66C176.957 117.58 176.998 117.489 177.079 117.459C177.157 117.428 177.25 117.469 177.279 117.551C177.353 117.747 177.428 117.94 177.503 118.132C177.535 118.212 177.496 118.303 177.415 118.334C177.397 118.341 177.377 118.345 177.359 118.345ZM176.92 117.173C176.856 117.173 176.796 117.133 176.773 117.07C176.704 116.874 176.635 116.677 176.568 116.476C176.541 116.394 176.584 116.305 176.666 116.278C176.747 116.248 176.836 116.294 176.864 116.376C176.931 116.575 176.999 116.771 177.067 116.965C177.096 117.046 177.054 117.135 176.972 117.164C176.955 117.171 176.937 117.173 176.92 117.173ZM176.521 115.989C176.454 115.989 176.393 115.947 176.371 115.881C176.308 115.683 176.246 115.484 176.185 115.282C176.159 115.199 176.205 115.112 176.288 115.087C176.368 115.06 176.458 115.107 176.483 115.19C176.545 115.39 176.606 115.588 176.67 115.785C176.695 115.867 176.65 115.955 176.568 115.982C176.552 115.988 176.536 115.989 176.521 115.989ZM176.154 114.793C176.087 114.793 176.025 114.749 176.005 114.681C175.946 114.482 175.888 114.282 175.831 114.079C175.808 113.996 175.855 113.909 175.939 113.886C176.024 113.863 176.109 113.911 176.132 113.993C176.189 114.195 176.246 114.395 176.304 114.593C176.329 114.675 176.282 114.762 176.199 114.787C176.184 114.791 176.169 114.793 176.154 114.793ZM175.815 113.591C175.745 113.591 175.683 113.546 175.664 113.475C175.61 113.274 175.557 113.073 175.504 112.87C175.482 112.786 175.532 112.701 175.615 112.679C175.7 112.656 175.785 112.708 175.806 112.791C175.859 112.994 175.912 113.195 175.966 113.394C175.989 113.478 175.939 113.564 175.856 113.586C175.842 113.589 175.828 113.591 175.815 113.591ZM175.499 112.381C175.429 112.381 175.365 112.334 175.347 112.262C175.297 112.062 175.247 111.858 175.197 111.655C175.177 111.571 175.228 111.486 175.312 111.466C175.398 111.445 175.481 111.498 175.501 111.581C175.55 111.784 175.6 111.986 175.651 112.187C175.671 112.27 175.62 112.355 175.537 112.376C175.524 112.379 175.511 112.381 175.499 112.381ZM175.204 111.166C175.133 111.166 175.069 111.118 175.052 111.046C175.004 110.844 174.957 110.64 174.909 110.436C174.89 110.352 174.942 110.268 175.027 110.249C175.111 110.228 175.194 110.282 175.214 110.366C175.261 110.57 175.308 110.773 175.356 110.974C175.376 111.058 175.324 111.142 175.24 111.162C175.228 111.165 175.216 111.166 175.204 111.166ZM174.923 109.948C174.851 109.948 174.786 109.899 174.771 109.826L174.636 109.215C174.618 109.13 174.671 109.047 174.756 109.029C174.844 109.007 174.923 109.065 174.942 109.148L175.076 109.758C175.094 109.843 175.041 109.926 174.957 109.944C174.946 109.946 174.935 109.948 174.923 109.948ZM174.658 108.725C174.586 108.725 174.52 108.675 174.505 108.602L174.377 107.989C174.36 107.905 174.415 107.822 174.499 107.805C174.586 107.782 174.667 107.842 174.683 107.926L174.811 108.537C174.828 108.622 174.774 108.705 174.69 108.722C174.68 108.725 174.669 108.725 174.658 108.725ZM174.405 107.501C174.332 107.501 174.266 107.45 174.251 107.376L174.129 106.763C174.113 106.678 174.168 106.596 174.251 106.579C174.342 106.564 174.419 106.617 174.435 106.702L174.558 107.315C174.574 107.4 174.52 107.482 174.435 107.499C174.425 107.5 174.414 107.501 174.405 107.501ZM174.162 106.275C174.088 106.275 174.023 106.223 174.008 106.149L173.89 105.534C173.874 105.449 173.929 105.367 174.014 105.351C174.101 105.336 174.181 105.392 174.197 105.476L174.315 106.089C174.331 106.174 174.276 106.256 174.191 106.272C174.181 106.275 174.171 106.275 174.162 106.275ZM173.928 105.046C173.855 105.046 173.788 104.994 173.775 104.919L173.66 104.304C173.645 104.219 173.701 104.137 173.785 104.123C173.871 104.105 173.951 104.163 173.967 104.248L174.081 104.861C174.097 104.946 174.042 105.028 173.957 105.043C173.947 105.045 173.937 105.046 173.928 105.046ZM173.701 103.818C173.627 103.818 173.561 103.765 173.548 103.69L173.437 103.074C173.421 102.989 173.477 102.908 173.562 102.893C173.654 102.878 173.729 102.934 173.743 103.019L173.855 103.634C173.87 103.719 173.813 103.801 173.729 103.815C173.719 103.817 173.71 103.818 173.701 103.818ZM173.481 102.587C173.407 102.587 173.341 102.534 173.328 102.458C173.29 102.254 173.254 102.048 173.218 101.842C173.204 101.757 173.26 101.676 173.345 101.661C173.437 101.65 173.512 101.704 173.526 101.788C173.562 101.994 173.597 102.198 173.634 102.403C173.65 102.488 173.594 102.569 173.509 102.584C173.499 102.586 173.49 102.587 173.481 102.587ZM173.265 101.356C173.19 101.356 173.124 101.303 173.111 101.227L173.005 100.611C172.991 100.526 173.048 100.445 173.133 100.431C173.216 100.42 173.299 100.473 173.313 100.558L173.419 101.174C173.433 101.259 173.376 101.339 173.291 101.354C173.283 101.355 173.274 101.356 173.265 101.356ZM173.053 100.123C172.978 100.123 172.912 100.07 172.899 99.9939L172.795 99.3769C172.78 99.2919 172.838 99.2114 172.923 99.1973C173.011 99.187 173.09 99.2404 173.102 99.3254L173.207 99.9411C173.221 100.026 173.164 100.107 173.079 100.121C173.071 100.123 173.062 100.123 173.053 100.123ZM172.844 98.8907C172.769 98.8907 172.702 98.8366 172.69 98.7606L172.587 98.1443C172.572 98.0593 172.63 97.9788 172.715 97.9647C172.807 97.9543 172.881 98.0078 172.895 98.0928L172.998 98.7091C173.012 98.7948 172.955 98.8753 172.87 98.8888C172.861 98.8901 172.853 98.8907 172.844 98.8907ZM172.639 97.6581C172.564 97.6581 172.497 97.6047 172.485 97.528L172.382 96.9104C172.369 96.8254 172.426 96.7449 172.511 96.7314C172.596 96.7159 172.676 96.7745 172.69 96.8602L172.793 97.4765C172.807 97.5615 172.749 97.642 172.664 97.6562C172.655 97.6575 172.646 97.6581 172.639 97.6581ZM172.433 96.4242C172.358 96.4242 172.292 96.3707 172.279 96.2941L172.176 95.6772C172.162 95.5922 172.219 95.5117 172.305 95.4981C172.389 95.4859 172.47 95.5419 172.484 95.6269L172.587 96.2426C172.601 96.3276 172.544 96.4081 172.458 96.4223C172.45 96.4242 172.441 96.4242 172.433 96.4242ZM172.227 95.1897C172.152 95.1897 172.085 95.1356 172.073 95.0589L171.97 94.4413C171.956 94.3563 172.013 94.2758 172.098 94.2617C172.187 94.2507 172.265 94.3048 172.278 94.3898L172.381 95.0087C172.395 95.0937 172.338 95.1742 172.252 95.1877C172.244 95.189 172.236 95.1897 172.227 95.1897ZM172.022 93.9545C171.947 93.9545 171.88 93.901 171.868 93.8244L171.764 93.2081C171.75 93.1231 171.807 93.0426 171.892 93.0284C171.982 93.0181 172.058 93.0715 172.072 93.1565L172.176 93.7729C172.19 93.8579 172.133 93.9384 172.048 93.9525C172.039 93.9538 172.03 93.9545 172.022 93.9545ZM171.814 92.7225C171.739 92.7225 171.673 92.669 171.66 92.593L171.555 91.9787C171.541 91.8937 171.598 91.8132 171.684 91.799C171.772 91.7861 171.849 91.8421 171.863 91.9272L171.968 92.5402C171.982 92.6252 171.925 92.7057 171.84 92.7206C171.832 92.7212 171.823 92.7225 171.814 92.7225ZM171.603 91.4925C171.528 91.4925 171.462 91.439 171.449 91.363L171.344 90.7467C171.329 90.6617 171.386 90.5805 171.471 90.5664C171.555 90.5554 171.637 90.6089 171.651 90.6939L171.757 91.3102C171.772 91.3952 171.715 91.4763 171.63 91.4905C171.621 91.4918 171.612 91.4925 171.603 91.4925ZM171.391 90.2605C171.316 90.2605 171.25 90.207 171.237 90.1317L171.129 89.5167C171.114 89.431 171.17 89.3505 171.255 89.335C171.347 89.3228 171.422 89.3769 171.436 89.4613L171.545 90.0776C171.559 90.1626 171.503 90.2437 171.418 90.2585C171.408 90.2598 171.4 90.2605 171.391 90.2605ZM171.172 89.0304C171.098 89.0304 171.032 88.9776 171.018 88.9016L170.908 88.2866C170.893 88.2016 170.949 88.1205 171.034 88.1057C171.121 88.0896 171.2 88.1469 171.215 88.2312L171.326 88.8475C171.34 88.9326 171.284 89.0137 171.199 89.0285C171.191 89.0298 171.181 89.0304 171.172 89.0304ZM170.95 87.7998C170.876 87.7998 170.81 87.7476 170.797 87.6722L170.682 87.0585C170.667 86.9735 170.722 86.8917 170.807 86.8763C170.897 86.8627 170.973 86.9168 170.989 87.0005L171.103 87.6156C171.119 87.7006 171.063 87.7817 170.978 87.7972C170.969 87.7991 170.959 87.7998 170.95 87.7998ZM170.718 86.571C170.645 86.571 170.579 86.5188 170.565 86.4441L170.447 85.831C170.43 85.7467 170.486 85.6643 170.57 85.6482C170.658 85.634 170.737 85.6881 170.753 85.7718L170.872 86.3862C170.888 86.4712 170.832 86.5523 170.747 86.5684C170.738 86.5704 170.728 86.571 170.718 86.571ZM170.481 85.3429C170.408 85.3429 170.342 85.292 170.327 85.218L170.205 84.6062C170.188 84.5212 170.242 84.4387 170.326 84.422C170.414 84.4033 170.493 84.46 170.51 84.5437L170.634 85.1568C170.65 85.2418 170.596 85.3242 170.512 85.341C170.501 85.3429 170.491 85.3429 170.481 85.3429ZM170.232 84.118C170.16 84.118 170.094 84.0678 170.079 83.9944L169.951 83.3826C169.934 83.2982 169.988 83.2151 170.072 83.1977C170.154 83.181 170.239 83.2344 170.257 83.3188L170.385 83.9306C170.403 84.0156 170.349 84.098 170.264 84.1154C170.253 84.1174 170.243 84.118 170.232 84.118ZM169.972 82.895C169.9 82.895 169.835 82.8455 169.819 82.7727L169.685 82.1628C169.667 82.0785 169.719 81.9954 169.804 81.9767C169.886 81.9555 169.971 82.0108 169.99 82.0952L170.125 82.7064C170.143 82.7907 170.09 82.8738 170.005 82.8925C169.994 82.8944 169.983 82.895 169.972 82.895ZM169.7 81.6747C169.629 81.6747 169.565 81.6264 169.548 81.5536L169.406 80.945C169.386 80.8613 169.438 80.7769 169.522 80.757C169.607 80.7383 169.69 80.7898 169.71 80.8735L169.853 81.4834C169.872 81.5678 169.819 81.6515 169.736 81.6708C169.723 81.6734 169.712 81.6747 169.7 81.6747ZM169.412 80.4588C169.341 80.4588 169.277 80.4111 169.26 80.3397C169.211 80.1368 169.16 79.9339 169.11 79.7343C169.089 79.6506 169.139 79.5656 169.223 79.5443C169.305 79.5237 169.392 79.5739 169.413 79.6577C169.464 79.8592 169.514 80.0615 169.564 80.2656C169.584 80.3493 169.533 80.4343 169.449 80.4543C169.436 80.4575 169.423 80.4588 169.412 80.4588ZM169.104 79.2461C169.035 79.2461 168.972 79.1998 168.954 79.1289C168.901 78.9261 168.847 78.7251 168.793 78.5262C168.771 78.4431 168.82 78.3568 168.903 78.3342C168.989 78.3098 169.073 78.3613 169.095 78.4444C169.15 78.6446 169.203 78.8462 169.256 79.0504C169.278 79.1334 169.227 79.2191 169.144 79.2403C169.13 79.2449 169.117 79.2461 169.104 79.2461ZM168.778 78.0393C168.71 78.0393 168.647 77.9949 168.628 77.9253C168.571 77.7237 168.513 77.5241 168.455 77.3264C168.431 77.2439 168.478 77.157 168.561 77.1325C168.643 77.1094 168.731 77.1557 168.755 77.2382C168.814 77.4371 168.872 77.6374 168.929 77.8409C168.952 77.924 168.903 78.0103 168.82 78.0335C168.806 78.0374 168.792 78.0393 168.778 78.0393ZM168.425 76.8395C168.359 76.8395 168.297 76.797 168.276 76.7294C168.214 76.5278 168.152 76.3301 168.089 76.1343C168.063 76.0519 168.108 75.9637 168.19 75.9373C168.272 75.9115 168.361 75.9572 168.387 76.0384C168.45 76.2354 168.512 76.4344 168.574 76.6373C168.6 76.7197 168.554 76.8073 168.471 76.8324C168.455 76.8376 168.44 76.8395 168.425 76.8395ZM168.042 75.6501C167.976 75.6501 167.916 75.6088 167.894 75.5438C167.827 75.3448 167.76 75.149 167.691 74.9552C167.662 74.874 167.704 74.7845 167.786 74.7555C167.864 74.7266 167.956 74.7691 167.985 74.8502C168.054 75.0453 168.123 75.2424 168.19 75.444C168.218 75.5258 168.174 75.6146 168.092 75.6417C168.075 75.6475 168.058 75.6501 168.042 75.6501ZM167.623 74.4722C167.559 74.4722 167.5 74.4335 167.476 74.3711C167.402 74.1746 167.328 73.9814 167.251 73.7915C167.219 73.711 167.259 73.6202 167.339 73.5886C167.418 73.557 167.51 73.5963 167.541 73.6762C167.617 73.8687 167.693 74.0639 167.768 74.2622C167.799 74.3427 167.758 74.4329 167.677 74.4632C167.66 74.469 167.641 74.4722 167.623 74.4722ZM167.159 73.311C167.098 73.311 167.04 73.2756 167.015 73.2164C166.932 73.0225 166.849 72.8332 166.765 72.6477C166.729 72.5692 166.763 72.4764 166.842 72.441C166.921 72.4062 167.013 72.4397 167.049 72.5183C167.134 72.7063 167.219 72.8982 167.303 73.0947C167.336 73.1739 167.299 73.266 167.219 73.2994C167.2 73.3072 167.18 73.311 167.159 73.311ZM166.639 72.1737C166.581 72.1737 166.525 72.1415 166.498 72.0862C166.405 71.8975 166.311 71.7133 166.216 71.5349C166.175 71.4589 166.204 71.3636 166.28 71.3237C166.355 71.2824 166.451 71.3108 166.492 71.3881C166.589 71.5703 166.685 71.7571 166.778 71.9496C166.816 72.0269 166.784 72.1209 166.707 72.1583C166.685 72.1686 166.662 72.1737 166.639 72.1737ZM166.051 71.0712C165.997 71.0712 165.944 71.0435 165.915 70.9939C165.81 70.8123 165.702 70.6365 165.593 70.4678C165.546 70.395 165.567 70.2984 165.639 70.2514C165.712 70.2044 165.808 70.2263 165.855 70.2978C165.967 70.4723 166.078 70.6513 166.186 70.8368C166.229 70.9115 166.203 71.0075 166.129 71.0506C166.105 71.0654 166.078 71.0712 166.051 71.0712ZM165.372 70.0234C165.324 70.0234 165.276 70.0015 165.246 69.9584C165.123 69.789 164.998 69.6267 164.871 69.4715C164.817 69.4045 164.826 69.3066 164.893 69.2519C164.959 69.1978 165.058 69.2068 165.113 69.2738C165.244 69.4329 165.372 69.6003 165.499 69.7755C165.55 69.845 165.534 69.9429 165.463 69.9932C165.436 70.0144 165.404 70.0234 165.372 70.0234ZM164.581 69.0613C164.54 69.0613 164.499 69.0458 164.468 69.0136C164.323 68.8616 164.175 68.7193 164.03 68.5912C163.965 68.5345 163.959 68.436 164.016 68.3709C164.074 68.3065 164.172 68.3001 164.236 68.3574C164.388 68.4913 164.543 68.6395 164.694 68.7979C164.754 68.861 164.752 68.9595 164.689 69.0194C164.658 69.0478 164.62 69.0613 164.581 69.0613ZM163.647 68.2441C163.615 68.2441 163.583 68.2344 163.556 68.2151C163.39 68.0972 163.22 67.9903 163.048 67.8969C162.972 67.8564 162.943 67.761 162.984 67.6857C163.026 67.6097 163.121 67.5801 163.196 67.6226C163.379 67.7218 163.561 67.8358 163.737 67.9607C163.807 68.0103 163.824 68.1082 163.773 68.1784C163.743 68.2215 163.695 68.2441 163.647 68.2441ZM162.561 67.6574C162.543 67.6574 162.523 67.6541 162.506 67.6471C162.319 67.5775 162.127 67.5202 161.937 67.477C161.852 67.459 161.8 67.3753 161.818 67.2909C161.836 67.2066 161.92 67.155 162.004 67.1724C162.208 67.2175 162.415 67.2793 162.615 67.3547C162.696 67.385 162.737 67.4751 162.706 67.5556C162.684 67.6187 162.624 67.6574 162.561 67.6574Z" fill="#359976"/>
<path d="M183.725 124.887C183.617 124.887 183.509 124.883 183.403 124.875C183.317 124.869 183.252 124.794 183.258 124.708C183.265 124.621 183.337 124.559 183.426 124.563C183.524 124.571 183.625 124.575 183.725 124.575C183.811 124.575 183.881 124.644 183.881 124.731C183.882 124.817 183.811 124.887 183.725 124.887Z" fill="#359976"/>
</g>
<path d="M88.4896 106.018C87.0194 108.611 85.5253 111.389 84.1774 114.117C82.8102 116.855 81.5538 119.633 80.5665 122.398C80.4306 122.744 80.3308 123.086 80.2187 123.43L79.9476 124.267C79.871 124.445 79.8311 124.923 79.8909 125.479C80.0146 126.608 80.4364 127.986 80.9368 129.338C81.9711 132.059 83.3769 134.887 84.7995 137.587L81.9137 139.772C79.5805 137.344 77.5577 134.781 75.8247 131.772C74.9759 130.252 74.1838 128.659 73.6924 126.662C73.4548 125.66 73.2829 124.524 73.4786 123.132L73.5675 122.61L73.6422 122.293L73.7923 121.659C73.894 121.237 73.9874 120.807 74.1091 120.401C75.021 117.093 76.2408 113.994 77.6035 110.991C78.2958 109.494 79.0022 108.01 79.7828 106.566C80.5665 105.108 81.3219 103.704 82.2357 102.241L88.4896 106.018Z" fill="#FF8B7B"/>
<path d="M84.0677 136.607L87.2143 138.277L83.5969 142.513C83.5969 142.513 81.3391 140.985 81.2373 138.652L84.0677 136.607Z" fill="#FF8B7B"/>
<path d="M91.4487 140.888L87.5724 143.964L83.5977 142.512L87.2144 138.277L91.4487 140.888Z" fill="#FF8B7B"/>
<path d="M104.685 79.8218C104.763 80.2031 105.027 80.4703 105.277 80.4201C105.526 80.3692 105.665 80.0195 105.587 79.6383C105.51 79.257 105.245 78.9898 104.996 79.04C104.747 79.0909 104.608 79.4406 104.685 79.8218Z" fill="#263238"/>
<path d="M104.992 80.4774C104.992 80.4774 106.305 82.4996 107.475 83.3658C106.929 84.1321 105.724 84.0774 105.724 84.0774L104.992 80.4774Z" fill="#FF5652"/>
<path d="M136.415 105.491L134.665 101.354L140.413 99.6615C140.413 99.6615 141.846 103.249 139.245 105.606L136.415 105.491Z" fill="#FF8B7B"/>
<path d="M136.02 97.1429L140.343 96.5909L140.413 99.6615L134.665 101.354L136.02 97.1429Z" fill="#FF8B7B"/>
<path d="M102.86 77.9896C102.805 77.9896 102.749 77.9697 102.705 77.9291C102.613 77.8435 102.607 77.6992 102.693 77.6065C103.55 76.6785 104.591 76.8433 104.635 76.8511C104.76 76.8723 104.843 76.9902 104.822 77.1144C104.801 77.2387 104.682 77.3212 104.56 77.3012C104.526 77.2961 103.712 77.1763 103.029 77.9162C102.983 77.9645 102.922 77.9896 102.86 77.9896Z" fill="#263238"/>
<path d="M94.1043 86.7558C94.796 90.2823 95.2133 95.1677 92.7461 97.5209C92.7461 97.5209 93.7102 101.098 100.262 101.098C107.467 101.098 103.728 97.9588 103.728 97.9588C100.734 97.0295 100.759 93.6176 101.445 90.878L94.1043 86.7558Z" fill="#FF8B7B"/>
<path d="M91.396 99.8798C90.7546 98.9712 90.7804 96.1002 91.465 95.5934C92.5707 94.7755 97.3015 94.5875 103.675 96.0532C102.988 98.834 104.458 100.292 104.458 100.292L91.396 99.8798Z" fill="#263238"/>
<path d="M106.895 263.382C107.514 263.382 108.111 263.297 108.311 263.019C108.381 262.922 108.437 262.756 108.301 262.52C108.226 262.387 108.104 262.298 107.94 262.253C107.137 262.035 105.453 262.995 105.382 263.036C105.34 263.06 105.318 263.107 105.326 263.153C105.333 263.2 105.369 263.238 105.416 263.247C105.724 263.308 106.319 263.382 106.895 263.382ZM107.659 262.447C107.74 262.447 107.814 262.456 107.88 262.474C107.986 262.502 108.059 262.555 108.104 262.633C108.184 262.775 108.155 262.845 108.126 262.886C107.902 263.198 106.683 263.205 105.787 263.078C106.234 262.849 107.097 262.447 107.659 262.447Z" fill="#359976"/>
<path d="M105.439 263.249C105.455 263.249 105.471 263.246 105.486 263.239C106.068 262.978 107.22 261.935 107.132 261.391C107.112 261.262 107.021 261.103 106.707 261.071C106.473 261.047 106.261 261.114 106.074 261.267C105.461 261.771 105.331 263.069 105.326 263.124C105.322 263.165 105.34 263.204 105.373 263.228C105.393 263.242 105.416 263.249 105.439 263.249ZM106.615 261.295C106.638 261.295 106.661 261.297 106.684 261.298C106.889 261.319 106.902 261.4 106.907 261.427C106.96 261.754 106.176 262.573 105.583 262.93C105.644 262.55 105.816 261.774 106.219 261.443C106.34 261.344 106.47 261.295 106.615 261.295Z" fill="#359976"/>
<path d="M100.139 263.135H104.959L105.439 251.972H100.618L100.139 263.135Z" fill="#FF8B7B"/>
<path d="M104.927 262.577H99.6631C99.4661 262.577 99.2954 262.713 99.2529 262.906L98.3004 267.19C98.2019 267.635 98.5387 268.055 98.994 268.048C100.893 268.015 103.637 267.904 106.023 267.904C108.814 267.904 110.572 268.056 113.845 268.056C115.824 268.056 116.374 266.055 115.545 265.874C111.774 265.049 109.346 264.961 106.088 262.952C105.734 262.734 105.343 262.577 104.927 262.577Z" fill="#263238"/>
<path d="M84.1154 98.6112C79.5977 99.6467 76.4795 111.701 76.4795 111.701L84.9449 118.095C84.9449 118.095 88.2744 114.955 89.7568 109.186C91.3095 103.142 88.7348 97.5524 84.1154 98.6112Z" fill="#359976"/>
<path opacity="0.4" d="M84.1154 98.6112C79.5977 99.6467 76.4795 111.701 76.4795 111.701L84.9449 118.095C84.9449 118.095 88.2744 114.955 89.7568 109.186C91.3095 103.142 88.7348 97.5524 84.1154 98.6112Z" fill="white"/>
<path d="M110.66 102.08C113.207 104.911 115.717 107.764 118.252 110.49C119.511 111.852 120.801 113.169 122.076 114.369C122.715 114.963 123.359 115.521 123.976 115.984C124.585 116.449 125.199 116.816 125.526 116.95C125.683 117.019 125.715 117.008 125.584 117.036C125.515 117.046 125.425 117.079 125.344 117.122C125.324 117.129 125.305 117.14 125.287 117.153L125.262 117.174L125.321 117.143L125.58 117.003C126.276 116.637 126.952 116.214 127.603 115.737C128.909 114.788 130.111 113.617 131.217 112.314C132.316 111.001 133.305 109.544 134.195 107.999C134.631 107.223 135.065 106.434 135.452 105.622C135.832 104.826 136.206 103.943 136.503 103.199L140.041 103.958C139.904 105.08 139.7 106.028 139.445 107.039C139.191 108.032 138.903 109.02 138.543 109.987C137.839 111.927 136.927 113.817 135.788 115.616C134.637 117.406 133.262 119.114 131.595 120.588C130.773 121.335 129.882 122.025 128.923 122.627L128.566 122.856L128.469 122.916L128.283 123.015L127.901 123.2C127.644 123.316 127.368 123.401 127.095 123.485C126.825 123.551 126.547 123.605 126.275 123.642C125.188 123.766 124.255 123.594 123.5 123.375C122.002 122.909 120.958 122.271 120.003 121.636C119.054 120.995 118.217 120.333 117.418 119.662C115.82 118.323 114.402 116.923 113.004 115.526C110.244 112.711 107.668 109.825 105.163 106.894L110.66 102.08Z" fill="#FF8B7B"/>
<path opacity="0.2" d="M87.9867 107.093C85.5325 109.521 84.7326 113.943 84.542 117.788L84.9419 118.096C84.9419 118.096 88.2753 114.953 89.7584 109.186C89.8505 108.825 89.929 108.464 89.9947 108.11L87.9867 107.093Z" fill="black"/>
<path d="M76.1552 111.045L75.9775 111.51C75.8744 111.78 75.9614 112.086 76.1913 112.261L84.2876 118.42C84.5671 118.632 84.9645 118.585 85.186 118.313L85.2182 118.273C85.4436 117.996 85.4043 117.589 85.1287 117.361L77.1779 110.776C76.8353 110.492 76.3143 110.629 76.1552 111.045Z" fill="#263238"/>
<path d="M112.664 103.444C113.649 108.652 114.265 119.346 111.405 140.523H85.6235C85.4457 136.566 87.9329 117.259 84.1152 98.6112C84.1152 98.6112 88.5344 97.7244 92.7461 97.5215C96.0402 97.3624 100.81 97.2575 103.706 97.5222C104.915 97.6323 106.101 97.8068 107.158 97.9942C109.946 98.4869 112.138 100.662 112.664 103.444Z" fill="#359976"/>
<path opacity="0.4" d="M112.664 103.444C113.649 108.652 114.265 119.346 111.405 140.523H85.6235C85.4457 136.566 87.9329 117.259 84.1152 98.6112C84.1152 98.6112 88.5344 97.7244 92.7461 97.5215C96.0402 97.3624 100.81 97.2575 103.706 97.5222C104.915 97.6323 106.101 97.8068 107.158 97.9942C109.946 98.4869 112.138 100.662 112.664 103.444Z" fill="white"/>
<path opacity="0.2" d="M108.718 111.141L113.377 110.025C113.521 112.847 113.535 116.344 113.325 120.668C111.179 118.227 108.443 114.422 108.718 111.141Z" fill="black"/>
<path opacity="0.2" d="M105.437 251.975L105.191 257.729H100.368L100.615 251.975H105.437Z" fill="black"/>
<path d="M91.8131 81.5967C93.0515 86.2174 93.5416 88.9853 96.3932 90.9064C100.682 93.7966 106.023 90.4794 106.19 85.5818C106.34 81.1736 104.29 74.3575 99.3311 73.4263C94.4457 72.5092 90.5747 76.976 91.8131 81.5967Z" fill="#FF8B7B"/>
<path d="M102.493 82.6445C103.102 81.6431 102.911 77.383 101.883 76.1433C103.448 76.1433 105.136 74.7226 104.458 72.8666C103.271 69.6164 99.3326 70.525 96.1724 72.1241C93.6068 73.4224 90.7145 75.7749 88.0973 76.3893C87.4694 76.5368 87.3187 77.3534 87.8455 77.725C88.456 78.1552 88.8811 78.387 88.8811 78.387C88.8811 78.387 87.8153 80.7286 89.4903 83.4888C91.1653 86.2489 93.031 88.2479 92.0032 89.5424C94.5541 91.2747 98.742 91.3507 99.0086 88.2479C99.2752 85.1458 104.034 84.865 102.493 82.6445Z" fill="#263238"/>
<path d="M88.826 74.9699C88.3224 74.9699 87.8349 74.9036 87.3699 74.7529C87.0099 74.6363 86.8135 74.2499 86.9301 73.8893C87.0466 73.5299 87.4311 73.329 87.7937 73.4494C89.3689 73.9582 91.621 73.0624 93.7983 72.1924C94.7057 71.8298 95.644 71.4543 96.5212 71.1909C98.3514 70.6416 100.904 70.1985 102.662 71.2045C103.549 71.7119 104.131 72.5163 104.395 73.5963C104.484 73.9634 104.259 74.3349 103.891 74.4245C103.524 74.5127 103.153 74.2886 103.063 73.9208C102.89 73.2112 102.536 72.7121 101.981 72.3946C100.938 71.7969 99.139 71.8362 96.9147 72.5047C96.0961 72.7501 95.2274 73.0978 94.3065 73.4649C92.4492 74.2074 90.5423 74.9699 88.826 74.9699Z" fill="#263238"/>
<path d="M100.435 81.9638C100.509 83.2144 101.09 84.3916 101.788 85.1612C102.839 86.3191 103.935 85.5985 104.122 84.1881C104.29 82.9188 103.945 80.7872 102.66 80.149C101.395 79.5198 100.35 80.5341 100.435 81.9638Z" fill="#FF8B7B"/>
<path d="M64.3215 261.718C64.3254 261.099 64.2443 260.502 63.9673 260.3C63.8707 260.229 63.7052 260.173 63.4682 260.306C63.3349 260.381 63.2448 260.502 63.1991 260.666C62.9756 261.467 63.9248 263.158 63.9654 263.229C63.9886 263.27 64.0356 263.293 64.0826 263.286C64.1296 263.279 64.167 263.243 64.1766 263.196C64.2404 262.889 64.3177 262.295 64.3215 261.718ZM63.3916 260.948C63.3923 260.868 63.4006 260.793 63.4193 260.728C63.4489 260.623 63.5011 260.55 63.5803 260.505C63.7226 260.425 63.7928 260.455 63.8327 260.484C64.1432 260.71 64.1425 261.929 64.0099 262.825C63.7838 262.376 63.3884 261.511 63.3916 260.948Z" fill="#359976"/>
<path d="M64.1798 263.174C64.1798 263.158 64.1766 263.142 64.1701 263.127C63.9125 262.543 62.8776 261.384 62.3322 261.469C62.204 261.489 62.0443 261.579 62.0102 261.892C61.9851 262.126 62.0495 262.338 62.2021 262.527C62.7018 263.143 63.9995 263.281 64.0542 263.287C64.0948 263.291 64.1341 263.274 64.1579 263.241C64.1721 263.22 64.1798 263.197 64.1798 263.174ZM62.233 261.985C62.233 261.962 62.2343 261.939 62.2369 261.917C62.2588 261.711 62.3399 261.699 62.3663 261.694C62.6935 261.644 63.5081 262.432 63.861 263.028C63.4824 262.964 62.7063 262.787 62.3785 262.382C62.28 262.261 62.2324 262.13 62.233 261.985Z" fill="#359976"/>
<path d="M64.1064 263.205L68.8102 263.538L71.4526 252.286L66.7488 251.953L64.1064 263.205Z" fill="#FF8B7B"/>
<path d="M64.1224 262.125L69.3658 261.66C69.5622 261.643 69.7438 261.764 69.8037 261.952L71.1297 266.136C71.2675 266.57 70.9687 267.019 70.5147 267.051C68.6207 267.187 65.8773 267.317 63.4996 267.528C60.7201 267.774 62.5201 267.767 59.2602 268.056C57.2889 268.23 56.5657 266.286 57.3745 266.032C61.0582 264.878 61.7248 264.081 62.9979 262.601C63.2704 262.286 63.7083 262.161 64.1224 262.125Z" fill="#263238"/>
<path opacity="0.2" d="M71.4512 252.29L70.0905 258.089L65.3848 257.756L66.7455 251.956L71.4512 252.29Z" fill="black"/>
<path d="M102.259 140.523C102.259 140.523 93.7408 177.548 90.488 191.292C86.926 206.343 72.8624 256.274 72.8624 256.274L64.2334 254.406C64.2334 254.406 72.8617 213.474 76.0044 192.399C78.4188 176.211 85.6226 140.523 85.6226 140.523H102.259Z" fill="#263238"/>
<path d="M74.4074 253.646C74.446 253.65 73.5715 256.966 73.5715 256.966L63.3486 255.868L63.395 252.83L74.4074 253.646Z" fill="#359976"/>
<path opacity="0.3" d="M97.3086 157.683C91.2299 158.492 90.2703 179.873 90.2227 192.421C90.3115 192.023 90.4075 191.646 90.4899 191.29C92.2648 183.786 95.6091 169.326 98.2817 157.751C97.9874 157.656 97.6583 157.635 97.3086 157.683Z" fill="black"/>
<path d="M111.405 140.523C111.405 140.523 110.784 176.563 110.26 191.262C109.715 206.552 106.987 256.615 106.987 256.615H98.8208C98.8208 256.615 95.9086 207.445 95.5454 192.429C95.1493 176.059 94.457 140.523 94.457 140.523H111.405Z" fill="#263238"/>
<path d="M108.559 253.362C108.597 253.362 108.098 256.752 108.098 256.752H98.165L97.8965 253.727L108.559 253.362Z" fill="#359976"/>
<path d="M102.56 105.025C100.249 111.254 114.26 118.802 114.26 118.802L119.707 111.033C119.707 111.033 115.785 103.227 110.972 99.7085C105.027 95.3622 104.32 100.284 102.56 105.025Z" fill="#359976"/>
<path opacity="0.4" d="M102.56 105.025C100.249 111.254 114.26 118.802 114.26 118.802L119.707 111.033C119.707 111.033 115.785 103.227 110.972 99.7085C105.027 95.3622 104.32 100.284 102.56 105.025Z" fill="white"/>
<path d="M119.812 110.344L120.112 110.742C120.285 110.972 120.286 111.29 120.114 111.521L114.628 118.892C114.434 119.152 114.079 119.23 113.794 119.074L113.713 119.03C113.375 118.846 113.27 118.41 113.487 118.092L118.754 110.368C119.005 110 119.544 109.987 119.812 110.344Z" fill="#263238"/>
</g>
<defs>
<clipPath id="clip0_2001_195">
<rect width="322" height="280" fill="white" transform="translate(0.5 0.5)"/>
</clipPath>
</defs>
</svg>
